<mxfile host="app.diagrams.net" agent="Mozilla/5.0 (Macintosh; Intel Mac OS X 10_15_7) AppleWebKit/537.36 (KHTML, like Gecko) Chrome/139.0.0.0 Safari/537.36" version="28.2.0">
  <diagram name="Page-1" id="os7h5PtUGG8z26CSKxAm">
    <mxGraphModel dx="1018" dy="655" grid="1" gridSize="10" guides="1" tooltips="1" connect="1" arrows="1" fold="1" page="1" pageScale="1" pageWidth="850" pageHeight="1100" math="0" shadow="0">
      <root>
        <mxCell id="0" />
        <mxCell id="1" parent="0" />
        <mxCell id="R2ofVa8NWxra6CiLQ6Ep-2" value="" style="rounded=0;whiteSpace=wrap;html=1;fillColor=light-dark(#fafafa, #ededed);strokeColor=none;" vertex="1" parent="1">
          <mxGeometry width="850" height="550" as="geometry" />
        </mxCell>
        <mxCell id="zJ8hoWpcTsWKnKYzU_Mt-107" value="" style="rounded=1;whiteSpace=wrap;html=1;strokeColor=light-dark(#373E49,#EDEDED);strokeWidth=2;" parent="1" vertex="1">
          <mxGeometry x="20" y="45" width="810" height="100" as="geometry" />
        </mxCell>
        <mxCell id="zJ8hoWpcTsWKnKYzU_Mt-96" value="" style="rounded=0;whiteSpace=wrap;html=1;strokeWidth=2;strokeColor=light-dark(#373e49, #ededed);" parent="1" vertex="1">
          <mxGeometry x="580" y="265" width="163" height="230" as="geometry" />
        </mxCell>
        <mxCell id="zJ8hoWpcTsWKnKYzU_Mt-1" value="" style="rounded=0;whiteSpace=wrap;html=1;strokeWidth=2;strokeColor=#373E49;" parent="1" vertex="1">
          <mxGeometry x="110" y="265" width="150" height="230" as="geometry" />
        </mxCell>
        <mxCell id="zJ8hoWpcTsWKnKYzU_Mt-2" value="&lt;b&gt;&lt;font style=&quot;font-size: 16px; color: light-dark(rgb(55, 62, 73), rgb(218, 218, 255));&quot;&gt;Clientes&lt;/font&gt;&lt;/b&gt;" style="text;html=1;align=center;verticalAlign=middle;whiteSpace=wrap;rounded=0;" parent="1" vertex="1">
          <mxGeometry x="153" y="241" width="60" height="30" as="geometry" />
        </mxCell>
        <mxCell id="zJ8hoWpcTsWKnKYzU_Mt-3" value="" style="shape=image;verticalLabelPosition=bottom;labelBackgroundColor=default;verticalAlign=top;aspect=fixed;imageAspect=0;image=data:image/png,iVBORw0KGgoAAAANSUhEUgAAARMAAAEsCAMAAADXW6fyAAAACXBIWXMAAAsTAAALEwEAmpwYAAADAFBMVEVHcEw5U9Rd0/lay/VYz/ha0vpf1vpb0vpVwPFYz/ggRqxPuvNczPdVvO9Ww/Vd1vlWyvZb0PhDo+tbzvlb0vhd0/hcpOdYy/ZWjOJZzPhayfdNvvNWyvVd1Phbz/le0vpaz/tUxvZf1vlTwfRc0/ld0/lc1PZMr/BZzfha0flc0fhXy/ZZxvRd1PlZzPdc0vlcvvZc0/lcz/hay/db0vlc0/ld1vpb0PlVyPZZ0Plc0vlb0flc0/hc0flf1/xaz/dh3vxX0Ple1Plf2Ptc1Phc1Pdg3Pph1v1c0/hc1fpRxfNf1Pld1PpYzfhc0/pazvlZzPda0fhd0/lf1/xf1flg2vtc0/hd0/la0Phf0vld2vti3/1c0vlg1/pb0/pe1fpb1Plf2Ppf2vxHpO9e1vpg2vxd1fld1/th2/tZy/Zb1Ppc0fhg1/lh3vtd0vdh3f1e3Pxh3/th3f1f3P1g3Pxg2vtd0/hh3vth3Ptf2/xYzvhh3/xf2fph3vxh3vtg2vph3v1h3vxd1fVg2/th3ftg1vlh2fxe1vph3Pxe0vZh3ftf2fhd0vpc0/lg2vtf0flh2/xc1/ti3/xg2vth3/ph3vpe1vli3/1e2/tg2/pi3vth2vtf2Plf1fpf1/lf1vpe1flf1Plh2Plh2vpf1fxe0/lf2Ppd0/hr8/9r8P9s8/9j3/9r8v9s8v9p7f9p7P9q7/9e1fhq7v9g2f1t9/9l5P9g3P1r8f9s9f9l5f9h3/to6v9k5P9k4P9k4f9n6v9s9P9f2Phh3f5m6v9m5/9m6f9f2/pm5v9g2/9k4v9i3f9q8P9f1vhi4/9l4/9i4P9o7v9g3Ppn6f9t9/9o6/9d0vhe1/xu+P9l5v9q8f9g2P5g2/5k4vte1/hg2vxc0vpk4v5r9P9d1Ptc0Phj3/5j4fth3/9p7/9h3P9h3f9f2Pxh3ftg2v9i3/tn7P9h4ftg3Pte1fpf2fxe0vli4vtg2ftf1/pi3f10//9e1vlp8P9f1ftf1/5u+v9w/f9f2frxomicAAAAm3RSTlMABMdEfanKoyJxAhcvDy36PoEMOpizCk8HdhoeSexgWh8xvSjAjtERblWUXTjvZCYU4HpMoM7ihSNHm6+2djWJ01D4XrravCzd5zXgQTPGaViMylb8lrxykThp3q2CfafD7WQbh9zzTatUZKbo7+XLfaXXSHh08fqybymd9JO448SI1I6v/sfUz9fmtm78+PuioffC8uuS/Zv19POOxRMAACAASURBVHjazFx7cBPHGRcDCeFhx+YZCA/zMBhDSQoEUlISHgnhFVzSpKVNGggl1ICZdtI0SSlDEzJNQjPTaWlnko5W5z0JeU7y6WErsk6WJRtzxhgHE6tqxkb2jD0DDq4qp2YYZS7DjHu20d7eWbLvTubk/cvj2/u+1e++x+/7du90utEcOVlHF+TlrVg1RXf/x5Txk/Jnfrj4wIxNa+fqxuZ47DMjqC/3WGin0+Ip9xJg+7FZ90tXzuH1Jr+TdjrYJq/Pwf9R21z42JhD5C190MqWlkDz4IAlpS2tVOBS4Qujr2rP4hLW6gi4oBlCjuMg5P8Iu23ByMIxhcjvIzXeYsgBYNQPDgAAv1iX2xYChTmjqWluocnZ2hCDkABAj0a/tuJgZ/SFMYPIrH8wATOH8BCt1BCw1et/Plqatv3FbfMbeDyG6NIbeWV11YVjBJK1d8p5E9EnHCZAwFjQavrDaCh6P0KxdzkCmBLr0gPO9fk/xwQkmxwBMgki6AFeszZ/8kiKel6O1AT63XMYVQCYGysnpx+SObZaONw6B9ZKcP+1RU6nouaDZqY7qTVimkj7jbRDcvS78MgrHQgtYSby1xRieDdJyNDDg1L+bZohWd7mlwPJgK2Qt5joW2qUZFXWBOQhMgBKzdn0YhJziBwH8F7C8wU+DiYIhDwqpTWRnynWsdnBJvIaXhccoEOSIAMMTF46IZn4Lyy88sGUC1f5Ql87gu5aA4RDwyH/K9jq95Sp+E2ELh6CSH86g64Gn8VGWWlL8BaHzTARtZE0QjLN7SKw5xa7SAOwdeeZ3S+VtfdYQ1cSwAK489bKQwpqmnNMNyllIzwgBr+FDnxx6uDGCRvWHXyJsHkxWwGkLY3eM79RMBMAA44igV0/ve/PhLPxFpRSOQB4B3pFdra56oCSQNKf2rs9PaYHj2UI8w7pqbDgxCDmeDJdkGQ6e7GH44jskVz/7YfAGrwrpRSA6G2VZyoZ7zCXJXmez193g5Rx+9PSuYfZUjTVyNm3pguTt+2cCVmJI6ETbztV7wlLUDEB0k9tHln876IOSbbhEbluYU9tSzR7nvtbodqK+XLSA8ly9i5AkHiTxbWc9/S2y5LAwpsKHc0aQfybPEkDEq+57rn6cbKewEpLTDAUz5n0YPKsFa0ZuNiHks4b927Edh2K4gpvKt7qz4YTvihq6ZUYCfeV5+p7GclvWWoT1hO+lB5MuC4CBRPrgWGnnu6ySBIqIFzMieQ3HPaypIji8LmmLrj58WG1mDo4ZLefZ6elHKbQYyH8ppH8bHMPK84gfL3mjE5PRtOYsIQLkgHq3PMjKClgEO7Q9+90YLLMApFVM8+MOH16tJOPD6JHT3qDhxMCGKXEfsMblTUiI1WVBZChuPzpqI+hP+46RG2JPEbaKvmpMMz8eui82XfqRH7DGwkbfFeOhg3IUACsWZMGctJjuKffBD0vyrpl8iuegPjXEobO6JBQ8qVf7Dfwek3lVHmLMoWR8zjWa49JvhWa4kVX+Sq5vcOoU2QqfP6xt2WKpvy9JozPMAKynpXdpdvpQP5cymmPyfdCEEXYMvm3vdkpZh18UGnC++0nGBFogCjurMyULb0A0QMQG4Yd3K9Rdg2ZqWWZkvYQz05FLXfY9XVu/OIj0UazyLmg37Jdyaoq485jhNRPNSexTS6k3Vqg5M6MT2vOi03BxTw7eGlJW4gU+409+mNFy+r1cuhJ7dUakxUeZKX/8WYou7fQIoqivH8wbwyULDe9pPj/Ne8o7Gwf9MQ9mqv7QmtMNlrN8aVfK1MMaL//CC5iJCB1Tqc7Vh0QQQW7PZ8olZxnhUbVy0p1nLVDRBmPKG9GRWlxKCVt8+ewXSJIyGD0kGLBS+rihSDP2mZpjAlXhxy39Ycq7v+YEaVcAN0WFxZ6+STt7FBT74NaxNp6VmmMSXtTnMWaKVWM8X2HJKjgG8CA6K05oS4dVgnrKtAak1qUdpzj1dWQd9hk+4f9qWi7unUd8cV92mydoXEqboinYlDSovJEzJRvyhODwlOWxlyVC3viOxTnWn+iLSZTffFqB9T2qZYSoSFhTACJ271SrcjjNjOqeHZr3Dxxomon0K5ezBtM8ZD9PT7h3NylWmI2hTDxadyoXo1UE+5Uiq3TjEva1of2yOMpLKwxvjAuqHEVuAZhwtX3piIot6NP0oi+cSIVebOdqDT1aozJMzTCpA6mJOkjnxiT245fpiJulT1OZImGC9piMoMeJbfd1zLETjpS4Z9TfbE4JgGgMSZCeA/NT0FOdqdLunkKfakcIHmSjWMCAoS2mBynRwWTAo8rQd6xR9VLzGlBmFxr1xaTB0YFk3mh2gRHbfhSR/35q4daStJVGGPxJFSkVkhmmz/hUThAUq+rlfloS9p8B8fkbZUyZnV4k5wOBCSzTKXQJXVpwyQXyzsPq5QRvQhBsrr4PPOAOqGLetKWd7IxzqaSGgG8AgTQ68AYrYmIMRNUSc0S+Ilb4+ZjnsDt64tVSdhN4ZCQthcXhiqEgGskKr6crUbsFsRjOW+xtpisRGUF0aDKRGcyuOOQzgqd7jUaS8wA+tvUbNAUWASC/ZW2mIwvR73ggBoKPYEviHFGMnCiZz8TI0wCKOw3KdbFR7TFJNOHesFXCDVeXyE0TgC82DH471cZA2489mblkjcKwd/+nMZ9toArhf74tDZs14IPrzen3buwlxEFGWqH4oUtbhX6bEu1xURHoP54rO6k4v5aNRQFjiXoynpR5IXMOqWiv4920c22dRpjciEg9Ki3KLy3iMaO1YIK+1ocLjxDEyUepU3IsiCH+vYTNMaE9Krey3gVdxAiRm8S2xDG5ADR1faoQkzcRPxUjPNHGmOyVdgzsB1QdOeCzpjIPY5LGP9NN+5YrMKz8+2lcZ82hKZqjMkyYW/Uruh0+5SOLizlkNSQ5LCI7cJoCkkrKgdn+V3p2xsV9gy4OkXkvjmImQFpT0D4VntKcO7CKDHDVT3ouEOp5ucKJiFuBAJK+hTrbfhrC+zNhBxDxHFjHgVxAas5qgitMckqRw8k/D/5t+3Hfq6R6GpK/P7E2U4MOMJ/Z5oC8xWOO5zSGpMMgbQZ7LJfdd7F13m4BaxO5mB2PM76TLKX9RyiJ7BR83NKOi4e4E1mapJssubFgwnzVNKJouRD1jwoOxWjs1tma67mmMSEk2P0TJn3vO7EfIJsHKZG2xWsEPr5oJeRe2yirBRRycYtmmOyQ7DSkMwCNB8PJqDq0+Hmzg7exjpMtXeWy9Iwt6UEHXfwTtEck4komhEN8hLPyWosmBhvB1dOHr9idd6EDfn5E9HI35+9Jm/10XlTdWdYnNlVywspKz2ohVGq+XE2kfrwjXFy7jC1QPwl0zKXw+6kKAtN0zZsWCiKcpY72AuiQ7Rk/Lio3LTDBYu1xwQzU+icN9zMyZkLchcXcaBJ8trWbfS1lCEDxvpuG8UvNLkhseOp7C3Dlz/zQyrZ9SgNFM700JqfhFXmHdjdB65UW6jWEFsqOVRh5EfS7z4MuQhKGuocrZSTLQN/euLlhUneCy1rIEZa0/1NxiyX/B2I6a8tffjCZQdFO+qvuWJk/xdtgMyX65N9NKT/IzNmWFLbVGenLSy4UHTgmBSZcTdcgu3+IA2Y7EVHlgmc3U9b8bc/9ul7qHJfQ9gwiAUw6kdrGO+9/V/SXRWiKdZkPLMvC0tWNCLXrhvpeKdpjnBk2RUY/NeeGUWmQCMdqgob4MDXfUz6+zOMAx8rgLFbXjtVDmIf/eJ5lblwlMdJoU3Neebpji2+BMrpUMB1f9GQIMPbjCHMA1NNNBf+SrcjKLjzznRgggVZYGx30a31YSj59JMWYzDQxEpZ2tnXDoSw/3/irj+2ieuOm4ltKiooJfwSoVA6KGtRUApljPGjjI3+oO0YjFYtlHTaGIhupRsbLavKxlir/oSurYpW8Xw++yC5OP6FnZAzIcYxF1InwSGO2yW4TMmUNMmyBCjC0UORsrOD77378ey7c6D3p3N37+V7398/Pm/KN0OTaJpTS0BDPGctmjvHNPxbHEQ32sic67WRo1GmWS89bLbkM4CiqFGItfQFIZWspicvm07VjClz0MV8IySZea8YBeraOJ1CcqETJb5Qefn5Sr+fr4tWx0av6mgd76+MBJobQr5EQg3xReMqQyNbJt9ugqx+ryTG0wY2S4WrXe1OtsxT3VYzAmpr6ROWphNv7ri7MHWt3QzBCdB0qan2erit2iP4+e03Yg0U0E/5r50BsP82RoGP7jvnag+UZN1q0mJKdS6g/U2FB1dOuWv2rLkFmVPI0wrWz5o9/oGp9z1xokvSgD76UiYrppXPb4+Av98Wbpn4TybmIGDp4caASnlWEVcvRjoA2wxgKzzlSQAppzWn/B+QBasN0sN+e/PhvbeaIls+DdsjSYIwWZyGUMTtLOMvgZ+WDmE0KXEZ6aRfGcQLpt1vrQMNg2x7dbkvi+1P7sQXtYO3n7x1BPnhI4w96hOUHpNhE4KrUO9lY6D2Bx+m4hH+JJ5EnGpoYaYegWIA/jtCqP3c4mcOgxqPwx2JZ+QYYUfwsxseZv+tochPPuIdfWQrkKJH3H+DjQLqW8Vi1po6I8oOgLxBC/larARLWbemYTwmT3/6N7VXPGwskMIJJVs6c8DO7Fk95hQ50s/yX5AXTo5mVTs9zMjSxZIug2UYWBnwxSYZXH0FVmKmQtKW4uVP/46KsN4IWb8xSZC0MhfYMpYEmbbvChegYSatCpiRv36oDM/7Q5SmPH22C/AQ4RQ1Fsr/XPT+zw6PZFK5ArNcbWP7/zZWFCk6EHL2ZsOfpDz3qjz6RDsGhuXPwbecFPMhfjN3qnVgVPpA5rgI0oFgy5iAtha9HGm/CNWERjC3iFBUOa18djmLgZUlPLnMtmK2h4EBlaauVRi6E6Wu9pLIblzuULYTDoQFigCg6qOX9/SIyDfA7FECAY34EViZ1b4pp520+KENSaGyLWuHmIoFVHlndVyVLCkgzv7cjNAfBpxqFEkSpLesEczbVlMiAsPYFaPXD7Vi37YjRxDGvMYEpq3P3KOw1yIcDPQ/Pud1xh67CNW2Tln7gv3G/bi9A9z/lJCNSajLz9wseHuncMu58rQOhZFS2eMzOlA9B5iDC3Nk2ftQRwKAZ+WSOkcUHRtdsUz44c8vXbHzwypqUKBKoPOUMTfu0aNcuRK1FVBwmLczW29CcDzYI3JsIir7doWNSMLpG6/krNlaajBJbJWhm6wT54rBcN1owWPCtuuVqnDNgl7hvWsM7OAv0ToFkVP4k8766wgZdwP2eWRNistZ1OxKnewelzNNNlRgL6yRBU4QMSyWip35D8bjugihkiqW9v7f61x/50DQJ3+T4Kkm6lnmDQk7nENiXCmFRKNwBVsxFqnAzagDQ65mZ4kZe0GxSUqGy7deCSp9KxsQTNCrunIJH5eFrUCByHmxLKaAqv+gGvEsj6+xHVewbWMyNjIxgikoH1+E/ekgAosze/Jkz+1nWD6hhCelY+e3a1577kCnHNo3acScDWuUnYR3cQThacE8WHNj3ph4j9+uQGqWdm/GmbJLBItTA9ya82rMdUxBFbqX+0Tjytv5Nhm0LwDWPnv/PrUk0LgOn6rwzOOw7Vc9OEYuNQgjeTR37hJ/XyKKDgnxavVWv9cH5fCktKdbU7lwjwxrMUmRXjvRKf5cLJGC4bOiqpno92EKNrtrUvDk9PuXPJUVl2lXpxkJZBg18b2DRId2LFF/9p41ld5jsjwHsIYHj2Td3AwZqk9SG8UzhQnLMOFxPo/sMIrZrK0ZFey0vXsoUO9qbPScCYDr7+3MuL0duJpt3SiKTkj8tYHcmTpzDe+6qoQnzWaV53bHZBil0FIVeiPDE+PEZr+jVDi9n+c8+PfMBAbyq08bWFcklGy7oBO+ct7RCA5kmGmYjKlZhE++kMNEJxOa7mvveutl8KTU1c7Mk7vTI9JRTkG18oNrMud56Sim8m+GeVYel3tyY9mf+jtjF1MJRFsqa5nMS/VWRT+5U0smBTXq3O3GRCdjL4xpefJEBVxbMsDqHcjwHy6KyeEne7mW/CysVcwh1+CmflsYNCM3XGIfJFf+AKd0MwW6WFwZQPAZzJs92TFB5iRR5Vk7hZOA+VJWsQ5eLiLdPdvdJ4V9or2nNGRhWsQdgaFRPwRi7prvDAla6IVB/ppaVkbwlo+xA6Ta5h2tiN7WqnVSf0AbROnL3rCEVYCV/5LQQzjd1ScFYuzrfFcLjN4rKEqnuaRPV9yKKULnUsJjL3E+SMztWsMXSO2t5npE8OFokuDXkOkza0rS/HGAtUjh4c5eVo09JlXWSHrwrO4BbSH1IqThYDTpooAaqNSD8qur7FqmMgSMcwTYt3zHVSSYrkKT6dd1In46DGuch/hYBq9ojanus9svGQu3BIe0wjhSQyJY93DbRNMDmLdprSAMoF0ezHiQUdLeVRBaHQtdyM4nPHeaporNQYIr/bzGPf+i34XLD7A6Dqu4iC7JJN5XVftMWq+lVWnAKWFT800tX1HE8FXUQV5rlsqqjbIQAsci3oeSvBcex0JiIeQq0pxB/CiIy49at+kznHRSPvKido97PfJGqK7C+W7crVql+sRjndasdXEb5atSH0VfigHZ/5d6ISTKIOT1oJU/4sThFYEl+HN5NtmC0+zsl7oqMSdOi0qOavBTyF3z06r3r2o1aznbCQYI4DD9ouPG2L6OAhRYccV6tr3NjaFu2mCNTKUILig2kObSCWk0BWlZvDsHmOWkF6s+UEu/m2C0dmdz3Gz4enGdQ9r3+yP4+IdTAnK34l/4wITrlN54tUuttsLAaKnq3eucGjtXwFVWPW+KJSKw9egbeme087rDGFEsLJ7S6EBnCwHarR/OqFB0riWHSDlV/6OC2Bcam2wEqv5HdT3MtOHrefL1bjy/splCCps3o79swpMdfgNFhyV25ZdnYExd4+0ug1o71YCZVfdnR2qUjAJPH9e/8x+7fBSjJutMXNRZ1FCkQP+bTXQAKhnfs167oBEYhXar5/uXKRkF0BVHDOz8YQ4L4ZGwz8dUpLnzDgMvNj3EyRnFBt2HVG99tkJHHxyIE8DaqA6ouLXFyM5N6xBSAEjE0i38n7ehM1q8Bo9UUHx8kPCq23OEKKCFJjSnPvlfXCELloSg/DFjW2/poESXM53zX9AmxgvUycvG3mva3SM1rwx0EzAPj8b1tDESm8QpmbQKGtYgwuouu+ibicXM8UFxmMDKGcXHyPdI3TBg9s5VV2oOXS2kxIMnimUiCP2lRjPfpdH09xTitdF6zFsowWtQJJPXtTYoYZPBQwTNIwLjaxMeX4AQikpNj6BhDR8uM91pQSdKfD+dkEgzao9xuJ3FEksAzA6Cr/DOBVoXTWgvIbv0sGRBjWcAqV+wWRwPax/tQhThXQBtX2T8xSMoHCa7sCbTm3W6aHKUPNHNYM4sgNxK41vfhIC93aPRxKUGBEGeA57tCg5r2DQ7SYnphM4u/ePss6Qoy4kt6LucQ5F+PALrio7mc0MiNFI8nkuR7hQyKFQ9MTFNVVL6aOIkVoeYLrSgN5cx0V2NclTCo4gmOZ0R3Y2V/urWjhlNHCSaLMBrjRFrDjtfqEBqrBXhdhKx7xl/8cqgRHZIdViLbtkhnSknxE1YJzE3x/jWj2AIIaMM3nSeEt24HE4aLAlp0rGvV+vVsQT8hon1uOtMXlDDpRzVbhItATxzyPB7pc42uaiwqUynLSYdj3KwSrLgsNv4+V2oQkU7v5v6ZV471lazwOh7S/0yn+0D9fs2srSemVIiCs+MiCTCstFVRmF4hdAYHSvoGM0WzBYPyQSw0ajTlueQ+/Yedd8+32vW5dufpgn8xso6BIz74MgjRmE4KreChNvgmMDuHloeAxIYZaRXVwxYpl7snNAhC8QBrDAIjPNbuxUl/tNgXWtFFWOj6g1SW5krIKWUVPOUZHXCztHEJsL/EzhuaOcFqFwkBE1p5IcXg1hFxv5LIy/+kSKnRGSUDUEdgTEVSqgv2KFI1mWw/xkvhseOYW5GftT/ibv24CbOIy5CCAGnNEB4hFDzSnikdMKQUAhtSMAtECgpSXgGmIR2oMkkU0iYCaQzCe2EljSkj7ymnfrTcdbFQm/ZErYlC8mW5vyQZWQs1ImN8Yw9E0KpaidOGGku4xn1TrLv25PuTneyLe9fHo9Od9r7vt39dvf3W1zgRdqafBJtjEjuUVuxP6fTzrlMeu+QKD1m1d/Zl5AP0/52nGbTMUacUXsIHzEpVB19VH2O2qoVyVHXiYcMsy6WKV0o6DNatId1dlgkp4uceYThs8CqRfF+4M8Rfs2I9LpV49qfviniYJHW9LhEyUvhQkFlneJFr601YrUM0rVefR4ZIBvIELzbBy7IERdUrZT2a7jGyEPqKaZJvDoD8Bo5rIkzLFqQLIoMAgJahK2s2kPPh5Y4xi4T1T2CdhtGQJznpUtUfTVM/KNv4CFEHIyBmhSZWVT2+avisTjotkAtuF6c3UItL+escVBZLftcmHid3ROAlOHmK+/ml3dERCCMi/WwhRXKNFBokjOwUZ3o5YswCBsRie5ShPvpVIWcB1xaoBKyLjNTN0VAGU44xYZyS8mSftxr0fPaXtBrwVwVP1Tuc2mJ3CrxXRcv5V+o4wuJxBfEjG4e1Y26VPT1L6s1kmAdMIHsnrbnBA0oxIAhphi18CAeeU26ntTocTmKaZPoyXnuIpljpSDyVlTcrM0xgS4/132aN6+AfjrFQ4sXXK8T5HPPi/EnJgAZI9c1WlerFCHG8JlY5AzP0Ky+CltYJWaB/JxdKbJ0A6TXViyRlcJdlYRXByFepYxHaVPO5po24RBclyhEPiYYqMy+p/oDCmtGuIs51eNHhPFDV/dIXHX2olMansu+EneTRJJIoPKLXHs5BmWgwSpFnTM7anszGh/rxeufs2/QwvbYgYo+JdDt7TfB2v1AwzVCngeYDCmzt/67LIwQ3twDlttSVT0K13UYXyry34MZwEiXEvDUy5GOjAZZixQB769vCKaiUuz67f00t1VJ4mN1IG0+LoDW8rhNqn1+fp9LHKbLlAell+hPIIYnjQq8m2cAK2Wqvs35vBtre4VTxFC55aTkp1f1CLYPt1Rsl1/PcQt8pmN9YTpz9wucTNFlQzyxvFNVkwl45WC6PletZIfh1Bu4l40ZnoqIp6CjuGdhDndzICRcnzqClJ0LPPV2hQCWwS6VLlO7vK39UT/GIFiGGpM2gaCKrJcmxC06FjO5B0mSSdNKcTwyzXZZWoHfGkFfSP0rmTFjzg7ZM5evDGQAM4amsUvLR66MS1CZtzcmN7weAADahruY53lw8M30yKVkJrwdCxscdNAcCLT4LkWtocbX5GLomXAF8mdMkGBignK56nf7TF2kEItDdrlyTl3/UxbMiyCrDCdPSH1+CnhHBr7tdqkFQjzlmWBW7f34j6gbUX7UevhFeUiTprIDWKoKHtLyF4zU1ErXYw6lcCrCH0eGo4dyG+VDHBxQiBBjtHRIaq3gtBmK2zHuJgYhnh1Ku9RzyVroh8GZ+QmAzDBJMIr8gar3ZmDIEfrW0afoiLSjzyDcPxxPBquV0rdEXWOX6LJdD9wDY/vbKOkEZBnYyGeC2AZmgqI2/e/tLnMmOwe3bz5Reuv3TN6MpcKxh7gN1O6sjxYDILrgDQkhnsWjopI/W2GEDO8GWC3inizC3UeO6epvZaLRWUvZFNmt/Oa/6uscyIKhM6TX1PjeBsmALW6HO/mVeq08YYl62QZIyZgeSsqq1U/O+DFUJNScxeCCyGuuvi2q7n+gJjvKRATTbIx+LbBJkCdAmDffBCGeptGYI9XdhClQyKtTpLZwB+z2WnhGDITOOY4G+nW1D1ASc10jM1nHEGtY3CbqCO8dJoa0UgQoEGI8sur8cObqKsgmRzKsBtg8g1U85PF4KW29lU0ExWHIXbW/y+MZzoRtA9nZcY79xBZKLk7vocU8dAdpHSulo3AmEh+xTr4Criyr0RR7HvbMsza9Z95HJnowm/ZIh5hrpr7j+T1E0ftXaDFSFTb8/rKmH53awKFUCGlCpcYgJCzZN0KV/CAEUYZZxeEEroNH2TNuyZF2g72LyeYKozhcatXm/J9jYswSFmPcYrej1mfpZxaj/2KwcxYYEiDpOQaUuSNSyQ/hl4mgDP/dwJ95EpVLkcHWTGZz/HAaGWiwH5g3okcpqe0NimmF4tQSrvhGx2fYDDuzLn4TMuXYRjQ3XdPuw4uOvJrd94mHcSCUsLWIKYTbNQN06KP9I97Gb8V6q0T56iiOtFSW2RccYll745oygqdYY4JsSoRstZQ9TIpSkbG7xnPzHydGJVR6IWaMnM9B94tosazMw4AYJpOTUJXcaxSwbom13yCz/AMSjNMW/WT0aKo3/isS6mIYWfJAiiJ+VpJ5sIlDTkJH/pPTBexsWSDbLWvfIIJy3Iact/yPNXxkkWY0ZctTlMknxw2NUEtTZ42POr0bFkSnOcD71bqW53n3B/HO0RFBGBQXFZ8iUJ3B5nNKs1FyZI9V9aWnVmlGW6bubjfaubQYJXVnhiSdPruhIpH88T93DuUsD1oYsHtu5HfrmSCoZ0OToUztIy+c+2trlaGTNsdluHU5rrD/hRyqWbaUyvOftqRZhqXfCJcq6wrbLUY3gZbu2zhVc9IMSm2Oo/nuHPwlnj2aeSWPbU36GwydkTZ9ildfJ7lnCHKQdlFPzdSMncx+m4rW3JJhsOUVozc32UwV7spWyL2sdeUDnnjGBMtx7bv8tNFidzfHc3BSp8IFn5VGxzVjLTs2N1aEviTlOKnT5X6Oyt9pToCnpogvatVHbo8LOLr1qMWsJ4d5ZKRR7JxCvJ22r19eqCmInDiGKhxefe7eAJQxIAExbf5K4uk1P10/ffmKifc8XNyaEQAAGcpJREFU8D1x4MDsVetWzi9evW/SM0e+n6w0NyJdxnfmxp2iZLjT1vjOBk0B5cTvG915TE9hvZO7wf4dx/ofckQ6LpmRvxt1+1v9la2trZXIz0Zbfj9ldtOeCqPRZHHYPe5gIp9BCIRXf26/puDyG/oz9RNlhmYKlQ+Nh0gEWtrafJeDVWkJXvaZubkQyeHBEOmZRqrvUsrYn9eMh8zh2wmy9ogiGRojkp4kMizD/1I7QIQzIMAfk6b7x0UneHgVIny0U9Ypjq2kPF3cbMM4e5ERYwWRVh5HSCQuELcs6eCJKcyMJmBxOfcWtpnoxrt28YQ9xKVxmV2lIVpwQXKnZu6CWY3dbJDtbtbmawTUydBMDqc5ag21Jd84tESj2cfjcJDTO3ccVHJPVMtjoRqGygdbpq/Ro36DoykVQoyVZoYmnGkD4ajFGESHX1wx9PsxdhmRljnjoJPVPOgECdOOO6bfQRDukNXW1OYkR3Mani5dZi9PTcLrNERR8vSHC+BJfGrCiQd6PTYeJpYHJ4lNRC9acd9ZAnkd3NREX5eeLM81NCCn3SDLy+JO8yWPwxCiETo8a4rIwZ/k08PjM/iN4BOgZOdiqePRvXsPbk+iUrrCZIlmHAYQwn433WhMpf7g/y2MwZxGg9HT5u8++tJDKyTD9e188Xp8jGxlG+4nyJVVXLfxzklnO87Dn6lHbWE2PAuUOuOsnE8NOBvg/tQ7nYEWc7hFoBSi2nnw2eJFuZrVHjbwRjaQLLxKlvEwANbEKiofnTUJegh1R/2V3ckWb5hu8Hj6HZz0ezwNDR0+c6m/278pIWxLfELJLeZX8EZWa99RcJ3MwbdPKOzUbYcDjJEtVZmaMKPo7nXbFq2cyMnKRdumrZu3LLUaPm6A5GhWZSEYHsJKkYbCR7LP8jhlwq1w6y6JVIPGZSoily9+sgbvNMQo5nhqDWayMRRS7gqRquNowF3EmljvdWmQ6qMOJ2+RKcIZVUr3ssmDp7QfLrhOdvH0wqT1VaUXbTUAHjiSlnz7M77yETC3rXg+855O7HhQwXXiH16lunKDcoaQdhoS51mkXmWsTsCvpzzUmM4zzsiRdY+V6Hnmh7hHOf523vUAJFGUIC05XaNsOYk4Hgdv+ZPuogKr5AE8Ir6rWsV1vwRgM1adrjtFPjMJoM4oIkCraF0BEYIkwc6YCRsJDPe4+1pVla8AJkZHVIvgUZYb4oAAZ8ClyqfiCml5wZ3x/ZgyJKIuikYOCLPz3c6szq2MBAi4vV5SF13z9Crl1skF1slkK0+306/ytBVzQ6VEMirrM/7P3rkGN3GdYXghFxjuhQkp0ECZNNzCbUgbLoU6KR2SUtq0uFOSTMMkKQkpTZMhhZBCgBAyhKH5AaRkIF4tKy2yrpZk2UISwkJSZAyWK9muHGzLri3LBRlJnrgG4cUO7q5t7Z5dXSyt5BWZ0fvPkves9OrsOd+ePd/zNV0Ex1dtirPHZHoylv2EZ08ALFPDH1I7dJKd0RGqmXsiW8GZCTWmytD7WEUHKG/y7AmNUREXLUrx2AUWcJwVSsEZGdOCw43NnipS4o9K+pqu4tkTnGLKi6Up7xb4KSP3UGh4mJ6FgaCuAAnLU256G33L4Wzm2RNURwGHNKnn8r+tZBDBqfySI0xSuCH1W5alMipoU/C9gtJMge7CX01I/fAaNQr2B8sXQ4FJF2CJWMrheQQQI9gK+A7tr1OgOy7x4iiwwoAIKVGS+w1eNISB+2ahisuG9EnlkbEKLjHP59cTDxXa2yrHcfnsuuvAXR5y3rEeWgem6REhPSds63Jgqcu+ildLJpZRp7ZxG8qelJ0HZmSk/faYjvOgJWVNnDha4xSR9TmRoHMjr57MNFK3Oy4rx0Upw1kghIc92hIY7Dgqjs9nqDJWGN83PI9T6auwmaMn0CMgb4ixUo8hhUVcabDNLuoRj+ZZXj2ZZAqLImEA57WbTy1xOCiIgDPvGPBELHuSV0+mdQrS9wT6UBbTFCIw4Z7uA3qylFdPFncKsPQ9iV1yBhZa3oC+g55kpp8Q98jqaHa/UPYh9F30JCPjCTl1hr5iYYRgoQNL55NZAU9m8+pJJuadwYC2tR1hAR6PpRdgK7I17wDxiSItT6AXNSxPbjyRVnv9QHzyA149mQ7EsWk9R1lj72ddO2dV/8jIB+M9joVuU/c7JWXTuTezwcDOp8Dg8LBVURNoLP08IWwfy68nzYpM3Gq9waJoRHgk/+Tc4hQttVaQ1o/FRbCTXlPifNnuUcakb8FCTetUjk3OprDsaV7UHCQw0muPHPP8xt+KVyQQFl76L8fsEnq7Q5oTIgctAdaoud2brG6qZezRYdY6vWjfwqnVX1AP0XEj32uP9A4/9AanEgTb1GYG5Qv2ME3xKz/h0iyAZXcv4dmTRfRzQDuXEgRHDB4GIA3VVRpxYHAhMUenOLRLPwdE9a/y7MkcPTW+c1gfHxXydjGZcUU4tJkxCYlgseZW6sBwKmQrEMt/x7MnsyqoOKDQ/sMUD94eUoHMmcjs+7mlhGlUvfGVFFterKJ3Umt430ldrKD5OCkOh8ermUMJcZm8N/DGiSIbE8LoGXojaT0hp3fcm6fy7UkV9SAwUgU9SX3/pIHZHZASS6Qu8ApmQXYY6dKHXuI2xMIu/jcN09k7iDmVs8++oBIzZ5jrd7dR7z7VxMIrCo21x1NoHafvinl/hA5Bn9EVJcLlyd9YvMtklA7UZwcBoGPvaBl4KxhpNISSrmy5yQEwydbw7sl8Yx+dvvOXpAdXJWO+IfqBtom1NWuPhTklIUKTc3+S7Y+mU88E2mm8ewIVO5FUeeFHtVdZnaDLEogVujC7EuqxBJJ7Jl1I032jsT086EcASkmZzNOl3SHlWYT1ZYFtFkCIe8mJspiT9tpkaD8Akj47uSqrqcqRGO4enoHz3B5vmZCZPE2Mn7Hjjym3tGJmrjZyTh7aNfxcSDNTUyBTZ1JAvXqBdpgkiFEf1ZajLOAoEafGveRPGs6x8aQub2AYQOYLAGbfczkblkC/oZLfMKRClPBfd4YazrFKCOElhkQk27fumoVsPGm948uEwUoNRWXG0BuPZcWTZZ0AU93740SOWIJM5BMZd3SeTtj6syENi54B44Jy1Zn4OKSPGwDcrvyprHgC1HMtQPpVC2P/0/IDly1+NrUV6VIOzyg9ZfCjUXjScs03f48T1nvP0TRIpzg7lkC/pTGXMNKui2VK/mtOpR9nk1eFZdJnklliaVULo6GtRjl2IAa78rCmny5sLizdmiVPoGYjwExTuNlMyU2fY0p3FFyQZMRfeD2p9v8UMARZjwlJaGuH3oS9xaR4zD+o7wMLrCDZsoToKF1AjlJf0eUTyyJvvZR3ENZoO6KoVMQEokiylgCp/f9SRTF5iNE27FR2wq+dHkognbXlabMKBcuB/HtL1jyBfg+WqIHRjiJ7Ff7LXz2G47Ba6vbHYOnBOBFovJzCGcZ/aSmLgraS3CgBmZNf399stVZVFKnBO20Yv3Q2e5ZAE3XnEQYWLuyyu1XuWqdNEAsuSPzC9ksfpXiO3SF5YzTsCxtgNxTaFGaXrZDZG5GS2lVZ9ATKY1YlFw1SlEhcfYxaVghx2VzgAK85YIwBbY0k60ehhIgrZw2UVT0tTbIOFTGQ+A1JxOexNPaUw55sbn+CjDreFNAmYwrR04OGwE7OZ/lbwFuP4kmQVWChNgBlXaHqYU0hBpogEVWMS+c06zGpvWsYEOfAekwIug90QZkQYUdOEmWWwIFR6Z4nv0CrSsBWHKxR470vLIGgY6VEEC6Ka8jXtV5sX0ZONOXgdYu5K94vQIY+6WzTyKwOhRq+jtGtyUkobJbr9rycsTNN34cNQATxGCELHrSEtkD3jaa+V6sPArxB0SD6yVMvv4TtnJnZc206gmmUOs8Qm2gQmEJit64asAPQfaW9RzGp1ukJC0nUHEm0cZmUMht8/LmRONmmD2o8miK1UVFSSBJTSiqdarm95vQ46L7T60cxzOSQSmVSqcNUCZ95ZERRetvHHOy3KupNJpPdbO1/+/Ay6H7VhPwV2xatnLFwAk+/2ay5czfunQjllFNOOeWUU0455ZRTTjnllFNOOeWUU0455ZRTThkXudgfI096/uA7qWv/ht3cPghsLAgMqcBmhQs3bM+aJ0s0t/+jzot6udkc1nNhfArvVfe8yumDPFzhsXka+0jdbLyisGv0gUNZ8mSzpc9jjq6r2Ow8R9EPU9CvHS2+Sm7JXg9frEJsGtWA1KayNonYfO3OyH3vCbuW7oi3eXW0VgwLte+zXy521SkfSqbt7+1YuosuyTCX8ETB1RP0Drp23oCe/3lxuSqMdmtGbq/PmB71tavxPHGgBbDAwkb+VJklyXlSUaruWQNeO3fvreXoSbH7HfrPve92tqNi74jlcK/Q+PziBJ5gSFmAqydVfp8GhFDv2jcH4uiJpHYy+MIc3WW8yztlhDx5UC6JC/UmPSmA0aLnOXpiVUgyU+8tyhPoQSWOyt4ZMU/qEnlC1qXq8v6ZsyfSEfIECpvREcvOnWGRuBJ4Av9PB+PmAEdPXBLvghHy5KEitMS5nPHStHV5W/OXxzp+2mcrVy6IvRN45pyteetYCTcv6FFzPJLoaJm4cvIHJlQonzeMJ/Pzt+ZtXcj+PM0uVL+Dkwnj17+ycsHPEnkyWyrGO4GvOfaoqFov08ucgcOstvL/elmrJ6StORY1AO0MGIlj9JpvTg6NdKsrcAQuJgu4W5vRdlEsTyQuK4RcRMOyBxJ5crzGSbYsMwaOR17C69FmK1kcHoURiXuQUlPV3uIeKBM+r1NiY/T7qTWFaCc9Qx0KGPV6pbQTe2ZVXE8edYhRLZ0o9UlFQ9DX0tvi671aGgKzgWeFlKbGlrabvT5JUOU4wmhjV8jgahs4qq98KMttoyN4pcMDF4gQhT8YixBCeKKwQnNlYdRZE9+TwxcM13slvTe7fW3m0qYhcJHY0egn8xNhT4e/r3QQflmsCt4biPUe1ys6DGDu4bp7fqc58seUkOFqm6+7xddypaH2RMJ+sjjy15lrfXUKpclsL9KJu8tb6WzIB1pVYold6exXqGS369q+BbNX15Z21LWplRVmk1RR1yIb4CM92nNDLzeiMNyv12vu4fE8gebJhUKQgsn05NNrwbpgg1tRYCzSdXc73YO/naCnWq8neiBqlOtVPYOg1eKLPtlgLYQWna8BxGq+7/ZRubYz1Ma6XpXG6NQ6btY1frs5jidr9UIaWvWmoVusrfliwtRV60SasLieGv/+z9r5xzZxnnH8UqItIZSmkEAghB+BibCxlVAYgdKibU1blY4BLdlWqEiVMVFghQ2qqVunrWsndQK0StPQ1F6cu6Zvzj/is8/2YRvjxM0uJCapHTu+xY4JduKEhuXHFE44PpI0O/+4H07sYkbvL9vnO9/7ufd53ud9zu/3ybthx/za109shBbml5JNKJgR1eYKZmoD9tZjq4uXrDtUr0OZ8eh9z/t9dnbZBi87SazIzj5zKS0TyNWEhLU/Ts2kaiYQcLuOc3cs78KsjgX2+PVsfTc7++m+SdZbVZad/Yd4ZyZIOlEf4lsmzCq9B9f8QJkw6O/0j9J26oMf5G1c9fcmMhCYOZCaiWsQFcSItvUARnE68eaQto4x8FJBBA7qzfxfX58fmkSdwuqqHI+eg8f7rNNawPTwxRI2mbCv8LFxJm/IaxEKTslknWIKNF/h9zynQ5ieI9JxxyQRPRGZQFY90IrGc0IJbvHXOtZEk1cS/FcOtYGWsZRMzvsQ0JM4WZFDz+hEEZJCH6N3xHvQ4vFAQCtK0axQs0j//sSbAM5MBkXV8D/iwM87iGw5nX4sTjCByhs56zmSikm5NtQiGakbSCCRkpoTn0iY/M1DG/cJO76voRsTE+29jczloPAP3o3By0x3VQomx7V1iJPX5jxooqXXALluYYb4stmqiNtISvbIVJj6qfjLCk0dYnpcsm/ET9u2ZhDH8kygESuit+SkYEKYqEileESuDfOrstLEsRImF5KMp74loI0Pk1uofyM2yZVuU4Lo97j5jlsirn+ivjEM7pp4mdGGFiypmtZTcro1fmPWn928VLqI95cWuisRlD9rwm4lCcb9tXu054UHYfI92wTiDqdgsmnp5rMSPf0cS52kTFR6JhDcEtDxtrxfKQA6b8IGk9ZTXtFP4Mti82Li1F9iGwGzjWaGaTL9jD9cDvRB6YqKfB12PbU+3ilPCN+bmJCaMcUj0n0HcCxIPAgTqMSHovx6ra+IY4upcNiyLgMmL3SElHwF0EotrUz0aMKBGZOmzoSZli/nmMhgfauXim2kn0XbDWOCGG2hGqOSo/xBfRptyT93YXh5/OVsCyb/yf8zBxSZQMEW5DKVd9/YvrkhbFmUAZOd6oCVbwg7POGOy8wUcb5XnVQEs9oYwvfEmMw6E9tdGB5zHZIO5MBdCVXk8FtxTt8wotspOcna1QVHSvdVVx/FBkGCyfrozVv8kExWdNeiGlk6Ji9tPbm7urq6at8kHG7OhAlEOHnjWaXGvAk8C7TIrHXpFqF5OQurLKB1N8eEhTv5WrDtMNtaLu1KbQisb6aEzd0Gw6iokV7xJ1ebUYtbLBa3rl2GaOKH7tSi6UWvMmUC/RDnrGdPKiZv//YarogWJ7V4KCRTJlVy2hgL9KHtRpp3kRcUAJaZ3WL7mq/LWPIbMR8rRKAFJrRWLUnEwCQ3gxgIiNsAQENdvF2cdquHp0bbPNG0pWJYYPKkFmvxQw/LJGuIs55g0TwmC66YqP986nSPcz+qs2TMZD0+kDCeztvhYOI5wONyUM/WSZuHAUx1MDYWi5Iu16yIQ+KIwyQrc6gVSRseSXhgl2Eq5B6Xvb7hm98uKNj6mGA7USZ3H5oJtKMbRfHH5jLJ1ZH0qHq4rrJwV0HBgZODmTKBaEegK/rNfG3Ac1G4GADfaUxunuLLzjnxyQ4DAN17JP0EaXtkf27SVvZu3FdctDETusPPiD6WTjBZpQV6VdFDM4FkGhQxcGFNp1Nksl4zTHtd70l9bIZMCrpDyugQU8WZzgU+qa0Ek8TqsuT2nds0N2aDHWiLSzI0YemKfb5hCNTqJIJYJdxYHGey6F/hsLfm4ZlsJC8jLf+NpkVEJhjODA6JvCs4d54hkyL7VMx4CGuvoKFTJsdUfffPKZ0w1aJizajvamhPGsWZEh3WJo1/S8Z5JlmDfiyt+PADMOFuLYp2VEabyjPZQn2K+CRTmpzMmUC0O2o8i/AAH0ZxvklHTHvz7p9nG6A41yaErWpMlaaW6WefY7bslEwgwo6pd30NTKCGZrSu9eV3rAKTXO7GSuPOB2HyU1PUeArVtFLUvZ/0E7an789kp3wCNfKZ81VyhFWnVsDpu44ppYVL3hwXYrbyL4QIIOGlPNjnrMDEmTGTlZSendR/dhPwTAqUmHQIgJa0Zs4EutZrJziHPSw5AebFqFAG+VhUg4R1/PI6mRWYG5K+/zuRiW2HdKYgjDvQahsaxqVBW4lpeGa7yKQvUybQyW4Unrz5icBklwIMSqcWezpYKRMnpsxNz6Qcr+17ta9WMkGGthmYOl+SmeelZLJYF0Y0mJA+YVC19GHtL/j8ADdVICU51Y80CKLhuxfSBCiJGNiLrRMBYyJfu0KO3YYzZgLNelkYFpmUyVHWJz4nXOCtl47FnM0qs9MzeVKNzDpnk3XTRlqQYFLhsLHU+ZM3O5BaG//vgnoShBVCKhg6hI8a4qP73g4E0R3lO3m0agzrOcXnO3sA8AlZl/VDVhpnhVwvUndvXcZMFuPRugYCk2UOPTI4yOfrz5AqBEZ0+SIETFOZngnEqtiPWXtSIjh6zz1DwirLiiHKciMnBZNHKT1i5tvwku42CDfejfuUl+vlU4Ge6tjrzcY6ltW9s2khlLX8AzvVq5KxrYgQmMsZRlcfC4iX/dphp6+bVwpD4jQbdK3lRuyMmEDPRos5CUygEjWKXB35sIKbaL02q+hV3awHHfsFE+0Cd+znuAbkpWayQckhNB1NOj+sYADl+mdsKrLyvMMcipaQTpF73C7nphp8piX3np1hvD644ZWGTh8Zmu7hswAHZwII6/ap+lRafEA1+8pN1oGIDt0IGNIHdxKs0zdNO3DRG2OckTko4q5qWUZMINjMfoIKTLKCbQDxG919fV61M9RM9N0BNiHZt9oA2NkvCEy9m+82yUw4rwBPU3PG3pH+ANMutxIIy5qN0yFPkNu/rylknivXONIbGhY86/IxUzsWGnV47aP0FO4RMR8zNAEGC7dPhaYVNzaWKUJTTjGa+pXBEaBH7VTTFDbaPSZ5XJNvG2awuvYmZH4/2acJDc8bk/LvDYBQlxDbvxhUhzF6wO8fCF03HOMmL6Fm8fGyrB8ArL3XFg/EiaaQLrmGccAaIrG5P3DYRA3QUyqKvD1A3zJciaZMiR7Ll3M1maoj45aIqNP7/ohRQTnsZrzf/g/pYvszI8ZGijR7+h2/KYLWRMbHI5IHBm+PaOQW7iCt3HU8OUJxmCiSbPTMj/4vRiwm87xPKyO4R5JvzDp8tR9vI9s6jGNnOG8esSivimcaMeHeNkckHnMSM82RZO393RFLZL7g4JoRtxwn7Q6LsWssPmt4tKJm7bxkxzPFNRXSR3FrX/1wQ2nha/M0K9e+dby09FL88efPi2ueTzrRsjWHuIPOzV81/6P3n6t6L0VhqeInaopTyGIu4k6c1OHPXiotLXwr5qGWPFHzvyX7IKutVVFiL4UMj9spJLujTZ/aJdthLd3TVcOUVELloGUtAIBOsFZHQmKwAAAAAElFTkSuQmCC;" parent="1" vertex="1">
          <mxGeometry x="189.07" y="405.63" width="56.71" height="61.86" as="geometry" />
        </mxCell>
        <mxCell id="zJ8hoWpcTsWKnKYzU_Mt-4" value="" style="image;sketch=0;aspect=fixed;html=1;points=[];align=center;fontSize=12;image=img/lib/mscae/Docker.svg;" parent="1" vertex="1">
          <mxGeometry x="210" y="474.88" width="50" height="41" as="geometry" />
        </mxCell>
        <mxCell id="zJ8hoWpcTsWKnKYzU_Mt-12" value="" style="sketch=0;pointerEvents=1;shadow=0;dashed=0;html=1;strokeColor=none;fillColor=#434445;aspect=fixed;labelPosition=center;verticalLabelPosition=bottom;verticalAlign=top;align=center;outlineConnect=0;shape=mxgraph.vvd.web_browser;" parent="1" vertex="1">
          <mxGeometry x="143" y="351.25" width="50" height="35.5" as="geometry" />
        </mxCell>
        <mxCell id="zJ8hoWpcTsWKnKYzU_Mt-13" value="" style="sketch=0;outlineConnect=0;fontColor=#232F3E;gradientColor=none;fillColor=#232F3D;strokeColor=none;dashed=0;verticalLabelPosition=bottom;verticalAlign=top;align=center;html=1;fontSize=12;fontStyle=0;aspect=fixed;pointerEvents=1;shape=mxgraph.aws4.mobile_client;" parent="1" vertex="1">
          <mxGeometry x="210" y="349.25" width="21.02" height="40" as="geometry" />
        </mxCell>
        <mxCell id="zJ8hoWpcTsWKnKYzU_Mt-17" value="" style="rounded=0;whiteSpace=wrap;html=1;strokeWidth=2;strokeColor=#373E49;" parent="1" vertex="1">
          <mxGeometry x="347" y="250.13" width="160" height="244.87" as="geometry" />
        </mxCell>
        <mxCell id="zJ8hoWpcTsWKnKYzU_Mt-18" value="" style="endArrow=classic;html=1;rounded=0;strokeWidth=2;strokeColor=#373E49;" parent="1" edge="1">
          <mxGeometry width="50" height="50" relative="1" as="geometry">
            <mxPoint x="261" y="375" as="sourcePoint" />
            <mxPoint x="346" y="375" as="targetPoint" />
          </mxGeometry>
        </mxCell>
        <mxCell id="zJ8hoWpcTsWKnKYzU_Mt-20" value="" style="rounded=1;whiteSpace=wrap;html=1;fillColor=default;strokeColor=#373E49;strokeWidth=2;" parent="1" vertex="1">
          <mxGeometry x="25" y="50" width="160" height="90" as="geometry" />
        </mxCell>
        <mxCell id="zJ8hoWpcTsWKnKYzU_Mt-24" value="" style="shape=image;verticalLabelPosition=bottom;labelBackgroundColor=default;verticalAlign=top;aspect=fixed;imageAspect=0;image=data:image/webp,UklGRiwhAABXRUJQVlA4WAoAAAAwAAAAJQIAJQIASUNDUMgBAAAAAAHIAAAAAAQwAABtbnRyUkdCIFhZWiAH4AABAAEAAAAAAABhY3NwAAAAAAAAAAAAAAAAAAAAAAAAAAAAAAAAAAAAAQAA9tYAAQAAAADTLQAAAAAAAAAAAAAAAAAAAAAAAAAAAAAAAAAAAAAAAAAAAAAAAAAAAAAAAAAAAAAAAAAAAAlkZXNjAAAA8AAAACRyWFlaAAABFAAAABRnWFlaAAABKAAAABRiWFlaAAABPAAAABR3dHB0AAABUAAAABRyVFJDAAABZAAAAChnVFJDAAABZAAAAChiVFJDAAABZAAAAChjcHJ0AAABjAAAADxtbHVjAAAAAAAAAAEAAAAMZW5VUwAAAAgAAAAcAHMAUgBHAEJYWVogAAAAAAAAb6IAADj1AAADkFhZWiAAAAAAAABimQAAt4UAABjaWFlaIAAAAAAAACSgAAAPhAAAts9YWVogAAAAAAAA9tYAAQAAAADTLXBhcmEAAAAAAAQAAAACZmYAAPKnAAANWQAAE9AAAApbAAAAAAAAAABtbHVjAAAAAAAAAAEAAAAMZW5VUwAAACAAAAAcAEcAbwBvAGcAbABlACAASQBuAGMALgAgADIAMAAxADZBTFBI9Q4AAA0kBWkbMJt/3V9BREwAiryENFxp2bbXiZRVMFkFEwfEAVkFFAUHBQUFpQoKCqAKAAVTHAQHQcFmFOwVYDjMNt/3fvMrIiBIkhu34VFiYAiIqIPALl8gIds/uYnqgFkFxAFx0K4C6oA6ABSwKNjigDpoHaQOgoOggEHC5JjjP/89/t/DEREQ3EgSGjW329fMzEIkFEgPL1CsV6OMUVrrN3W1dP1H7v5T4VYe42dUIcYY0z/Cb2X+mdRWmzdj0vP46qN7K9f6TSujtdYmhhjOVz3ZPqfaWD3Q1vzXf1yb96ue8fEUfQhRmudaa96t7tOF3D7mJoZT8B74U3v1HFk7sD1eM83AWKv8qQtedLpDk8kXcuCM7cLRe3Etbc6lL1dul+rM0Nru1PkgpdSpGLh7oU92qgNnVXf5mMnnt4KAa3dDq/2hC1JZ3YqhI+QtsSOnugMwq16+S8zQPY5/KHAzsuHYdZKwW1D20pju0EUBSKajh1k2RWadb1N0BL7EErkOT1y4CNCXkCrAXSI1QSZQfPVFQrLAH7YgJ9vFiPZpK0auazt49ctvQuzIy7Ympk6ekNUvb1c4DgTVVR1V/YKXaZzeqGMbBXGiXgcsR9W9+WRGvQrtFkfb8+957wjPyS+mIRxNH00sR6atz8Q0b694wSOZXl0CIzDDIL4Co0tGDuuIm4xc1R1kI45n+jKAbMT0AK4R4wOYRtzPelz0I89iD7ZodC9mnvg9Dc3/zsdZhCyWr9FEjObjV9wGNnyX23y8qx8XHG5JCcWCP53UW0iDZZY2NPwJeJzVGEQSiA84fFQPnQDh47BC4qwNMHhEWYw9Dmdhg1vtPAYnze9mVLCc1G75f0WfPAuPLMuOA/fRMkiUmt1ta86j5QYoen45SaAN21zRQL1QIQFtkpB16Q+HcPVFCpeQ2zDwS0oFmZBVbGaibipoQnaxGdSEwxmTwuJbtyaAsrMjQcAs5t3v6rWKEQT8uYz8kWYKwVpOE1PAqzfgnK1XnO1NSAAejrXRi4iBGj77GMqkxdR85reBhb/Icr1liQp4U5lW1uKGUDOK4GGH7I2SFjN8ESX2ubmdCQBmJfEeqSfqD0Qq/hSmgGQqHmsuoru7iTemJgazCB86wyVrm8xjap+hvHXhyYfwKCSMeFgmWuJDzsqoexVd82y4RNe8ntPtMuG8SNfSJY88kAH4eiwT/stNB5YmgLtTvWikRu4L9VQHGbChF8ODvZGK4ZWK/Ep3Ovux3hLahwr4ujluKe3gNzrZAPBbqEnsv9SzFWmW4F9NYxdBo7ALodHXxdBIc3SxJoYWtnR6hd8pZV0YjSjO6EIHCKOtPVHEojjqR6IcCaJBX+q4U467WSCHK7/sYxFKE0qn55uRGikvCw6dovhjFgkJ41HoVCW8MzrKSkmmFm5OBmmkZFNLTQSVNNfPFlFQSSSsuBMlntq0XjAoHi2Z7yLkDxipB1UscM04isghBQvNOHfrUqqumJNhXTr+fq0y/oDCtZMl89Xm4CmgFn8yjN+xLiUD1SxzCz8bBqbmaxGUgc8tDRYERBGsg9Cw3vweluywXxRZoxwXnkVeMF5CEDGsWQaxeiUvpUwT4jbkp/TTobNUN1VqOtNlNovq2/0iMLTmvM/kLZgo4dVNnYfOF25RcjrNLFPaSF5Ekl3lEHWBWnKDYlvf+/Khbqr4dGb9l8mw2Ok8H5nwXJ26/suEKFrEfGTSg377LhOkKAeZCF0tei+TosFiKUpZn4Pbtp88UuJlFi48vYz/bdhH0vqegjl3Pfk/o8Z+7y483Kt7Em8tAJVPL0Ons4aOkmTr0pYNAlUf4joFUzYIDl5fjVVLFPFmDrOWmLa7qOn+9KjS7bWo89s8a4wb1fnVNex6hO1eV41pj6CJLXuEu1862MB0GhSwibff9/XZxtj6rvbVvYps1rX0Kls9zlKofH2tutpxQmhKMjTVZUtTVbY11WRbU0W2NtVja1M1RoRuAuxNlTpHFieDx+vctQ412OLYHX0FNvl2txfn1ua4PUhT2GdzuN1eXhudnoSfn1Yrq1Pb1XHyLO7oiWY3S5jc0RONG37bHg3v5Mk+45zkFl4Muy8sqE2/XZ/k2PZoXSe9st0dPdlswy/cyyTPhvWThbLNv63Psmx631cy2/a+r+RkfN9X5l0F+yc3fbnlF4fl31soNmnaOQCwaiCIlz/vPMtVW7/VWKibAAxkqeZAlmoOZKkGQZZpEmSZJkGWaRRkiWZBlmgWZHYLsmUB7eBh0NnfVZtj9ssKMGzrc+5EA7ZHGkb+43GHA3LvaV3e/S+Ah0CJ4UuH7TszaXhIzluVCJmXSUgiA/Gca3HIYSYC6QgTuHpJV1IxZQ4emgNuSIMKSrcFqAjkVDLh1HDh0iSuR+9TES4orslA/OkogItEMKb4I1CfjFDh5zV9HGQQGl5e7JI8x2waNiY0MmNfXEM0wkZiTLMhl5oOxB1fMlzf5W46psWD0YoKLK9Kv2Q6iBLE1mLDz5tX8oHlRMdSs4M5PCbv58yHnIOPQj7Wmq0xiTHCR+K0Fh/48UbJNO0mpGxWScjfBEIKpwghRg0n08eR3Rfvq0tGJkoEJymMYGRE5MSI/EvJ9KFEQJISGBI4ToBIm/GCEklJJSQbJbqhJPKxZKOkf/SBZHz43b79x9AwMj7j7PaOkd0BH0nE6yUieIeE38JuRqYARtYKZZT4NJD0jyDh0Iv+SAJOBCMpYyEhelqKkbWCJGSamtGETJCI10l8JEnp248lCyHywgIif33ImwKMdKLfL/DACyfTVEjJbkAqZ2V8YCZ8w8eYSzqwaEhf8rHWLICJoGMtSrD09Bwdju+S2ODIMa/YqIRk6mJgY60IGkfH7qWfR4aOncJ5zUZmLECG5gTRRDIQJzYyY64vF5mJS3XDxZQCF5FEW9o3ZLQF4n4eGJqJwuSXVgrHLRWR5I3POSYiPnkip2sqXBooAsnnn3Ai6QATlTm/yBsqXJq0U8MF89AcSP+SCk9IOQEuXJpEC6nfEKHzAkS0BbICQEyZaB0Nqy7WymgO8MC5kohVsxbdOCCmrEWHFodBSOCQj+cdEVOm7cvCKJEs6BLJwlQkSRhlkgRdJkmYCiUHo1RyoEslB1OxZKANXX5ijw/GRvZbCeXoGwJeWxhGXSxPNwTERb7ltgRUy1zAG/vrQeTkzmvzQuCHk8zJ7XcOgoj9rZpiQ1fq9J5urZ8t9k3nWgqyy1uN9s8WS0YgW8T3JSBbxvclQAv5vgzsk3hvQe6WhS9lq6W/V0HO0ZP975Zf+LtIIfHzbCV5+NacOpyoOM1l/7eooydxJK/KqU4lfxR29OR+lHb0JI7kEUKjkVeL5P17NZL2sR5J+1iRZH2sSbI+ViVJH+uSpI+VSc4kNCJ0X/0+GQsZM0cKru5Gxr/XRziUEj5qOPXlXIun9OADdNCA2Mr3cNBx8qvCSPc4ahW0rqR7jpqHKuNke4w1BdCw9H7GPkB1S+88kawLTR9hvtQCdsHGEdaxD6HC0psaqR73yj7GbCPUMr69DFUlkj1HWYl4z1Hj/MoX7VXSRrLyRH69v70YdSXyPKevq2clV5kys6awwtyo0NsLWjRSZRfVmTWnUq4ydQ0CkcoUmjWLjSxlvRbJVKawQTC1ApUp9fRkKMsATm4bicrs1kfqeVDbXS+u/6JGS0+pzuXqpKdT53J5+7PsXK0fXaBy61eQvlRbv+OdFpyvrF6EtsK39Hc7wb2LzMKVngqtbGNu70JpZKb05Rxx6eT3sOT4OjQSU8pyaf0spQjjqX95oUCTSMqAH94/c7l5EEmVkZWFRb7Xu9GigvEy/nYeJAXqPRxnBur9KuVlQWoGstk+4DO/7HFjZGShzh9G3BgJ9dm9K//JMD4mASRqG4lZz5IiOEvHX03F5S9/y8bf+u/dCcjcnysk47B7bgpyZZJKC0ohIVpd35+D7P3NElwjFmqRGiQgwTVCAWjomYedFkoXS6Ml/iApPlt8yGMnC1Vh/EYY5akxEeDvcSONTliTTyeDSpIOaUQGlfSrkkL/p8hrYuj0NSF0CpsIOoXtvJGFI9Kcot8Jbdh3Qtv6Q6NOLL7EGdFEOW4M5n2c5kkgjaBdI2OCZ2rGQKP4VtM8V40lv9C7bFD9SpUF1GW/JjuGm7kS6LLuCJ+y+e8KZzbg7/OTRiNL8NmAnHkvqJ+3VbszoLukGLABuPMAMVXoeuwe/kq3R1th63J/fwKpNw+s/frf3Tkk3/z6wwBug2qaAFMb9f2XjQfzRQWuDT5MnBsNJ4TH02xu1wnYA3MTC1/zOZ9kWrh61xn7Ns9/Nzgm3vGZWWUmFQdRjb95nZYI5lRbBr/Ry88qZyEXTAuT8V5bOVhJRW4AYIccsrfwz08xR8heC5szP2M2OfgzraDzxqwQNuKZXyFoUpaFSNn8klL9cAjrL5sT2BbuLEbYzDfY5I8psAkCBohSfBWb4RICnr64jwGBG1ODkFguTzsDTdoNRN4wLkqDylkp7YbiLqwO6SR4zkLhpGMCbfDIqF4acQ7auJRlYXEf6gBLEjGdGCCcvAzf8Q7uHZMPFLii1SO6FRAfSwQG+xuuCJ5BU7AfLIO0fWMRK4fSiP+3OA1YH4E1YHsE2IDlEWSDlI+zOwJtsL3k42xu21AvV3xwm5HmD9+9xe7QG5xs4pU43JQA4KCr3cQxFgZ5lUVlM1wIKTBiSb99ikqELzDiZ0ODPzy0DaNpkzJyRvS7dVSvVuQy8qs6DxN4vKsPq/rQsBIFQas+KkhPpoJ6sSKZah38JSenWfJMoIyupzZcBFRLIBfQKwFeQGCYfAeRgV7gXZGyLcok+2OnSK+cAGP7o3FDRxQe030nPQRxWt4dg72YJebrenwSj4F/zfP7o3Ija4hY3k4v/oZ/dHTw2rrkJvNrP+2Zooa4oXh9d1TWDVyeSdSpeyFElsmq1506a927y0g3HL1/CvOX0cfs3FnjBlb3/8v1QFdmqqE7eWWtGRjTy0/lOXhYU+w84xQfTiEaY/VA257Yi6eI9ncrp5Dl9qEyRhv9ftX7/n88hvAZoo//056oQuoQQzxf9YzWWhul37RW6roQ3l8Mw83zqIL6jFdLQbH+TCoAVlA4IEAQAAAQlgCdASomAiYCPm02l0kkIr+iINGpW/ANiWlu4XEeQv6L+B3kjHc018AfoB/APhKlb/NvwA/QD+Aaqr+AH6AfwC1/8rX/Y/wAvdNDP1X/oH5Efsl42/2vonPLCQ76s/v/6/+3vx+/bu8/gBfi/8r/WDfqQAdSTqWZAH8e/qfoh3pn3n/aewH5LH8t/0f7d/ovR9+e/5j/x/6r4CP5r/WvR1///s6/bj/8+4P+vX//D/OtFt9j2QNasKJhbCYrEuWyw+Wd8ope4s75QiGG2ZFEOLNpsu1BOcKqod6iHFnfKKXiBNxN4s75RS9xZtNl5E6RYAUQ4s75Qfa1gIFD5RS9xZ3yil5BprRnow+Wd8onoqe4s75RS9xZ3yg/yVaiI1wMPlnfI5SfrIohxZ3yil7izabPaNN7BRd/L9asKKXuLO+UUvcWdtwUovsxgf+HDb92tCl7izvlFL3FnfKKXhzqwCzLxvFnfKKXuLO+UUvcWd8jp+j06V+HFnfKKXuLNXYWX0EtRDWxQsbxZ3yil7izvlE6oJ3GmgJtUXgUKEsFtbMiiHFnfKKXuGmJz1TzYKAi8Cil7TwdzztSNLb7VkUQ4s75QY8IlN6pV8zrb5RS9xXnzLapvShPDPPay0j8HyWFevXcbGOUU7ZNQTolnwDGgQHUmAvJrgFkx3ZFXcZjUHkbyQsxEg4s1uLvlMJWQ4WBVCfmBPVDBSYnjH97P/AyI+nGIeCUK9JdsgBpy5x/Wvj6ehGcxneBRS9rNMCuQiU8p54WB5Tow4be/Bc/M1SdSz5g2IxMf3dg0hCEjRHekp2zX4cWlXn/se5/5/dBP5yhf+jw3l2OH07t21RMOa/iQGwohehPJLMckkji5unVtbWkk+Wd8+UrIah5nsVZP9arnAYWUZtmlh+TgODBgFBam+WQjLsA7URD2oHObnWQ1vka5+JdnRjWi2+1Y/GnU86fIkGOzXQIQUzdW0onVBqwO69wDslie1YmqHUrLiUOYzmWOCdRjFVuqWMRNSAyNaLbWL0TVkFWfvVpQGS79mJikXBPNVIoGWp6XzxKSzcao9smQ20ULrli/i/Urnls/83CFXnVYk6S4ohw1mHfbnh94avQIMBRCzIRhPvGjfx48dDRbMYamAlA5+Vx9f02cmqiWZlUzBRK+quxQjFHGOP3ZeAESPpAN7EbmFmx6WRFX8F7mtWFFKhz8PDEgiGuKLxSFL41+5M23K/cwKQovAj8TJnvOjJMfLO+UUvcWd8opWRVW0ope1MW2oE48BwV+HFnfKKXuLO3iIS72PR9TIohquf6K2KiP9FL3FnfKKXuLNkdMws2wAohxZ1/y4W+1ZFEOLO+R0/V6vrukK1otvtWRRDizvlFL3FeMW2ueRrRbfasiiHFnfKKXtX/O+Rtra7r0kv4qLwKKXuLO+UUvcV4OGRDiu8cC4xqgWd8ope4s75RS9qH/S/nfKKVZY/KGyFalqIcWd8ope4s2MR2+1ZFEDHqtfisSHQFeBRS9xZ3yiejJdxZ3yil5BpyZV4hGZe4s75RSt/DhHg6O32rIohxZ3urO3Z303DVnhuLO+SOfb1qIcWd8ope4s7fwMiZKTxEuUFYUUvcVwAA/qGQlpg//+DJ0Vd1BSlVY59G8DOea7Ys4///wxghBXYJD4JT+OKGQcJ+xgBQbAjv44oP+OMpsROJATKYSHair2Oveo2rUSJ+g+WjlJChTMEzwpuy5nJghOJHfxxQwNMElKDzl6FxQLfLW4V4ncQMn4hiFQRxNyRGHInPg6SqXpDjRCSIyYdwPprp7wc+ZMyfX5B+TA0M3sRb7z1W4udzPbvTZ+yIvA+f1qQQzu1/ifQ23aizLMRjtdopPfyM/+7uZKxoMJ2d2f+MEv/qpS1EcZrn3wdgAtEfbtpIEPu4qQ2VpQzd2aeqap3i++JR8WKmEu7UcdFtDVq12luSJpgUcyGoJUA2j/z9nmzWniyXGbMXSXAp1WD/4zqbnA7lAAxhwGc6M/772Hj7NwZaqt/0vMBJ223iaPQSUUK4SwulskJOKlQhKicIjBOpwxwm8PdHsQu0FQZX4C+8M0+Al/7TryQZqENk7Depo4gUcfDvSoEfDHgYho25Mk3PJ57GFzQJvD3PZhp78U9lu3exo1qCyDNokcLF3K9ftjp0Y9sB4ut9o0zvROQBpNihJ9LsocLqxo9H7Xv1VD4TEfm8CPDWCv+zzVakfR4WCteff5Gl6jspWMSY56qSnEQVZDBe9/yNGhYtgyRBDS+8OTMq0dh8agXljhbPPDpO59sQCBvjaNTc/7Suk68DYdUDgk+tWSK22Sxdw+Mu2FQmNt9LbXBqJojgjY/hKheAnhycQ2jJFe3p7jvAuoKcJoIJkzqoecYFzGUPXzHAyGldIanm8zbSVPqWaXGcZFzGfrEfx0KXdfLn6F0m6tjYL/+/eM4NN1meFh/JfqkjHDh9pw9qkAkCZSaoAWInvNwNlxlGJ1XAeF59sTb6qaAaB9rX2sp9ijv+L8iHsf1Nc/obtCDsxfoPtxy0pnb1FgPNDP5QcPs/iOHp3ts6lHPfCWO14t8vr5JKmLGQ5VHnBG3Aq311iMMFY4o9K3pJl4ZPucDOtxQFGLATZYSXOOxL2IU50C82TwSDrGjZJofMK8UIyUMxXLG7rmVDJ7e7uCLz5Lk/P4PL2879V2wxPgAHnQ6h8ZIThsHOJxOrVu0DNkpi+VALxYT3RGvJWh42QiYvQQMnbMm76lZvqLo5uvNvQKJvztmul80ZjEw3YM+p2RImAj/Z9uA4RWDoyrrXXEeTXaN6nug+JQu8kF8Vd4sioSNCy+8VCKtUsl35AK28+zT4O2yFf2nF0NpY2rpgD5q4FiO8mtgdJLXD2vg5AtHpGziWZ1z/o6j9Y6MYZj+5xcSFDDQbWgswedKyTjV6buLkEHCpNr9GhhLwCsiEweCjmkfGdSVWqiFdHnt4zQAmhEirdRbczEwou6fg0vgAlQpgG0wjwi5kwm8iq79rtuPbh3Zae+jegpg2VD+JFp2NQ6sShmnnmE4d8tlCP6dAx20jTNqH8y3sx2EB/LmV+1E57HWYAUOblatuV3Cf36MfPpvk7vvGN3uCkBg95P9yAntfw3xiT6dTbvNmE5L6vx2N6kdyzrAIjM3MC14KYaZ/s41TkFvzLS9dm1U7X91/NL+60orQRn3JdehVp2ObOlgiK7fDfdRbL0rGWJE1UKIOA/nUucOw6QMiNrOOhUcZtF43amDpzd9o1IH04zeu1io76Eq8Cw4twSCTkqxY7z9vCdZXEBFK1dRV+hoK9tGj6+/keNMMoqVPVdIKlAPhcQS5OHSTjaMS4qa+28UceTy85wMyO0kFuwhn+Ij9xAZNGFhBhXG4oBDQPFZv8T2U06bNWuH5BuE/10R/S/zk1NZm+6Ooq1KhIlgZmzqfYmZnvieVi3tGnhnkSa+v5aLYygco1DKLBytJ2ZeVGVs/9wh3r3vxdAgErs/o4+2HEfG15NfjYNXLSi3l2YqEW1KT47v+88w0zSkQbxcXyCQ6Q2H98tBVLdh9DO3sJ5XUfl13oeOJ5Fw1rNQycDgTLE9eoRQFnhHfb/tLlnV0C55+Yfz+Y0xYXVwqON+hEo71Ly4aZH92NzgsgqOnmNd3KNKnz+Qh235tRDP5A/F24tcGFByFcFOZ4L2R/d3tP+pOt/efrfxpjFjAVqgxh4ZV/YMJW0nE7YLBVJ0XQxvx5Aw8sTbX7xXKeHdF5LZHP50YbG5BpxFaC2qXwnHDo/rmbQS2rgmHjWAIQovnQ3G9BOeUaM9rl+inBglBBGEmr1XgMwppuwYfI7hFEwuj0wBjvxOqfAdKUipDFJDBAuVE8G5pnuBpStjJGLafvNVyJRYRRzyXLwDhYC0Vw7Ufcc3Pv5elzqg31JdlwDyfB+EoJ99h/w16k/Pu/zP8GvMRDAx7unRsvGy8ZE2RYYrXPx7ReRHPe/8dJYbkjLptzvoN+8m89ydIfndNwHZOiNUpRxtNX+H6doIhMcMJHg+apMY4jVApIbE9HqXb71rO//1ecFasBrwC+5Cn6ie3jnzEM8P624kW6+wPPve7hjF12vKu3bDynhWIwa/CmMnvApL05RwB5F0LFSA0C5dPyiGbWNXoP1zb8CUfwWLe3KPz6qfpOpeW9Yk+09Wwj8e3mH6V7O0v8SmdHTEvvjJrzLfkCk8rEBbXaxgYO0SgCMsXhTFj/l6Vr0zRhPS/h6iJCWQWTf4i/75UnF32oZmRF1VM38LVvDEiZLBj+kU3KaZ3iLnfzf3imC6F+YP/RE2gy94T1tNsM+DKr/fZ3aEc9d414HEiCYO4H3cmKQTkFW5zV6Aah9Bs08aU+K52+/GTM+2j3jH1T6/hH94DQpUijUE9H9B6nClQiCmt00jnFXluybiOCITWMyVW//qPz/ygfLD6by54nRMlcI3/f5ZKXJpgvpDUq19RplC0uKSQGLcM7P9GCdp1xBLDhqxVWTszHnsDCT+Ln8SYahGdVPWY0esuHlAVfjTRr2ebhYwhUZgpB4MsCZUN1dImGXvtRpV4v3jqhZrCZELdr4FvbA4wFtqJE+sg4m2qA4r+YPYaY3PITiku67mJNKlXPW3mclKRviKPMf0S4PXM0OOCZf3bUxqTj7nDd7XZaoGBSa4uoDD5bFFFNRWJoIeaqWwf4///r3tCLiD4FeZEXlBLVJGGGi1GExv6mYRP0DvguP/zMD7NSYcY1ESE7C6VYnRKDh93NcuLDCzNdf9L1iMMRjbD8Bd3Gqifm611qkEs3EZ+rzVJhiv7NWLBTVpWMXr+c+2IA4eyJ4L3aT4omaTsI6V0IzBeXHuiPUW7zJojajF70Qir1hfmJm0exlg35qkLuH64+DzQecV61EGux4IucU9nKHWCfTcBKsy4WDKgr5Bdls78J2ieEVTx3LqzkOuwMNCvMjwsnGtVnGPj9U4XJ4kYV7a69FRN+8FLnnGWD4Ny/OKsK/FdhI5UY3YVSiGoQ3Yf/ifju4orWua2Yloc+bwztCz0VYS2p3qzCgml1RMIr5KEt8tMX7w7dngsHX52+bMvwv/So9hcFJUupfWGE3zAa/C9/TaqwRgx8HQueHAuQKuPGoo/5PAewXrA8PYkQyend/XIejg2CM8b6+MAK4CmmlVbgpmEm6p0i68eIW3jlEAcvDw0zoHi/ZtH/ceJqGnz+TlFStU8hxkdjgnpZu0ufb8UjtWmIzp6GV+PggfOfx+6ptIr4YrX0vTxdOki0tVlmOw7+rOABHhO+UKJCgpGLewSHAtI6enesVziSg6jqtyM+ePZaeuPPI1Yy2rE/TajvtNsVksxm+g3v1PO4Gz7evX5b2AIT1l5pIjZzrTic9KIHu3e9dQVxEOK5fKSb9TBYnNfyA2Qb6Q4i03F/bNC4jw6IAmHKT/8NK9ddeBiAASqMzBRU8WN8CuBm6VezaeB2/yLmvJwEkABNE3yAWpEMXque8DIKts+ifSbH6+g2oN4Kn//kXJaDikUKne4ZxIwcio22n2n///hVrynFd10tuWTEu799XgAAA==;" parent="1" vertex="1">
          <mxGeometry x="394.25" y="395.25" width="59.75" height="59.75" as="geometry" />
        </mxCell>
        <mxCell id="zJ8hoWpcTsWKnKYzU_Mt-25" value="" style="image;sketch=0;aspect=fixed;html=1;points=[];align=center;fontSize=12;image=img/lib/mscae/Docker.svg;" parent="1" vertex="1">
          <mxGeometry x="693" y="474.8800000000001" width="50" height="41" as="geometry" />
        </mxCell>
        <mxCell id="zJ8hoWpcTsWKnKYzU_Mt-31" value="" style="rounded=1;whiteSpace=wrap;html=1;fillColor=default;strokeColor=#373E49;strokeWidth=2;" parent="1" vertex="1">
          <mxGeometry x="191" y="50" width="151" height="90" as="geometry" />
        </mxCell>
        <mxCell id="zJ8hoWpcTsWKnKYzU_Mt-37" value="" style="group" parent="1" vertex="1" connectable="0">
          <mxGeometry x="636" y="345" width="70" height="73" as="geometry" />
        </mxCell>
        <mxCell id="zJ8hoWpcTsWKnKYzU_Mt-36" value="" style="html=1;verticalLabelPosition=bottom;align=center;labelBackgroundColor=#ffffff;verticalAlign=top;strokeWidth=2;strokeColor=#0080F0;shadow=0;dashed=0;shape=mxgraph.ios7.icons.data;" parent="zJ8hoWpcTsWKnKYzU_Mt-37" vertex="1">
          <mxGeometry width="42.911877394636015" height="49.99999999999999" as="geometry" />
        </mxCell>
        <mxCell id="zJ8hoWpcTsWKnKYzU_Mt-35" value="" style="image;aspect=fixed;html=1;points=[];align=center;fontSize=12;image=img/lib/azure2/databases/Azure_Database_PostgreSQL_Server.svg;" parent="zJ8hoWpcTsWKnKYzU_Mt-37" vertex="1">
          <mxGeometry x="26.551724137931032" y="19" width="40.49999999999999" height="54" as="geometry" />
        </mxCell>
        <mxCell id="zJ8hoWpcTsWKnKYzU_Mt-38" value="&lt;span style=&quot;font-size: 15px;&quot;&gt;&lt;b&gt;&lt;font style=&quot;color: rgb(55, 62, 73);&quot;&gt;Backend&lt;/font&gt;&lt;/b&gt;&lt;/span&gt;" style="text;html=1;align=center;verticalAlign=middle;whiteSpace=wrap;rounded=0;" parent="1" vertex="1">
          <mxGeometry x="394" y="252.25" width="60" height="30" as="geometry" />
        </mxCell>
        <mxCell id="zJ8hoWpcTsWKnKYzU_Mt-39" value="&lt;font style=&quot;color: light-dark(rgb(55, 62, 73), rgb(34, 53, 72));&quot;&gt;&lt;b style=&quot;&quot;&gt;Carrinho&lt;/b&gt;&lt;/font&gt;" style="text;html=1;align=center;verticalAlign=middle;whiteSpace=wrap;rounded=0;" parent="1" vertex="1">
          <mxGeometry x="196.5" y="50.099999999999994" width="140" height="30" as="geometry" />
        </mxCell>
        <mxCell id="zJ8hoWpcTsWKnKYzU_Mt-43" value="" style="rounded=1;whiteSpace=wrap;html=1;fillColor=default;strokeColor=#373E49;strokeWidth=2;" parent="1" vertex="1">
          <mxGeometry x="352" y="50.099999999999994" width="151" height="90" as="geometry" />
        </mxCell>
        <mxCell id="zJ8hoWpcTsWKnKYzU_Mt-50" value="&lt;b&gt;&lt;font style=&quot;color: rgb(55, 62, 73);&quot;&gt;Produtos&lt;/font&gt;&lt;/b&gt;" style="text;html=1;align=center;verticalAlign=middle;whiteSpace=wrap;rounded=0;" parent="1" vertex="1">
          <mxGeometry x="357.5" y="50" width="140" height="30" as="geometry" />
        </mxCell>
        <mxCell id="zJ8hoWpcTsWKnKYzU_Mt-54" value="" style="rounded=1;whiteSpace=wrap;html=1;fillColor=default;strokeColor=#373E49;strokeWidth=2;" parent="1" vertex="1">
          <mxGeometry x="509" y="50" width="150" height="90" as="geometry" />
        </mxCell>
        <mxCell id="zJ8hoWpcTsWKnKYzU_Mt-61" value="&lt;font style=&quot;color: rgb(55, 62, 73);&quot;&gt;&lt;b style=&quot;&quot;&gt;Pedidos&lt;/b&gt;&lt;/font&gt;" style="text;html=1;align=center;verticalAlign=middle;whiteSpace=wrap;rounded=0;" parent="1" vertex="1">
          <mxGeometry x="514" y="50" width="140" height="30" as="geometry" />
        </mxCell>
        <mxCell id="zJ8hoWpcTsWKnKYzU_Mt-62" value="" style="rounded=1;whiteSpace=wrap;html=1;fillColor=default;strokeColor=#373E49;strokeWidth=2;" parent="1" vertex="1">
          <mxGeometry x="666" y="50" width="160" height="90" as="geometry" />
        </mxCell>
        <mxCell id="zJ8hoWpcTsWKnKYzU_Mt-69" value="&lt;font style=&quot;color: rgb(55, 62, 73);&quot;&gt;&lt;b style=&quot;&quot;&gt;Fornecedor&lt;/b&gt;&lt;/font&gt;" style="text;html=1;align=center;verticalAlign=middle;whiteSpace=wrap;rounded=0;" parent="1" vertex="1">
          <mxGeometry x="668" y="50.10000000000002" width="155" height="30" as="geometry" />
        </mxCell>
        <mxCell id="zJ8hoWpcTsWKnKYzU_Mt-74" value="&lt;font style=&quot;color: light-dark(rgb(55, 62, 73), rgb(206, 97, 0));&quot;&gt;&lt;b style=&quot;&quot;&gt;Autentica&lt;span style=&quot;text-align: start; background-color: rgb(255, 255, 255);&quot;&gt;&lt;font style=&quot;&quot;&gt;ção&lt;/font&gt;&lt;/span&gt;&amp;nbsp;&lt;/b&gt;&lt;/font&gt;" style="text;html=1;align=center;verticalAlign=middle;whiteSpace=wrap;rounded=0;" parent="1" vertex="1">
          <mxGeometry x="48.84" y="50.099999999999994" width="101" height="30" as="geometry" />
        </mxCell>
        <mxCell id="zJ8hoWpcTsWKnKYzU_Mt-78" value="" style="shape=image;verticalLabelPosition=bottom;labelBackgroundColor=default;verticalAlign=top;aspect=fixed;imageAspect=0;image=data:image/png,iVBORw0KGgoAAAANSUhEUgAAAgoAAAFXCAYAAADDOWbhAAAMb2lDQ1BEaXNwbGF5AABIiZVXd1STdxd+3pGEBMIMCAgSQIYgiiBLZIYpCMgGFyEJEEaILwkqbmqponWLA0cddWHRagWkDkStszhx1PHhQKVSi3WLyvdHArV+3znf+e45eX/33N9zn3vv8+bk5AIGbWKlspA0BIoUKiYxMlSYnpEp5DwEDR5MQUFPLClRhiQkxAJA7/mZEcDrayAA4IqbWKksxP9nxlJZiQQgxgHIlpZIigCiCaDLJUpGBbDDANhPVilVADsPgIBJz8gE2NMBCHI1/hIAgmyNvxWAgElOFAHsBkBHTyxmcgH9EwCEpZJcFaD/EIC7QipXAAYCAIGSPLEUMEgGMLioqFgKGMwG4FwqyVUCBjsA+GZ/xpn7D/7sPn6xOLfP18wFANAJk5coC8VT/09p/rcVFap7azgC0MtjohIBCADiRkFxTCIAPYDoVGTHxQMwBoi3cqlGd4Dk5amjUjR40kpSIsoEYAaQ7lJxWAwAK4CMUBTGxWrj2TnyiGgAhgA5Ra6KTtbmzpOVhCdpOdcxxYnxvX4OIwrR5taKGUCLP6EuSAnR8t/Ik0X38r8sy0tOA8ADKF6pPDUOgD5ACUoKkmI0GMquLE8U14th1IkpAAYClK9MERmq4afG5TARiVq8sqikd16qIk8eHaf1V6vykqM0+lC7JOLwJADmAFUnU4Sk9PLIStJje2eRysLCNbNTLTJFinZe6q5SFZqoze1SFiZo8bSOrDAyEYAdQFuWlCZpc+mRKiZZ+47oWKUqIVnTJ52VLx6VoOmHLkUsRAiDEGoIkY1i5EPe0lnfCaH2JgJiMMiFDG7aSG9GGsRgoIAYSSjDH1BAhpK+vFCIwUCGUijwsS+qebohB2IwKIUMJSjAIzAoQgwKIYMaDGRQ9FVLxUMwkP9HdQmKUYhiMJD/l1gIRIjVRtS9vEKDXiQ7nB3GjmJHsAfRlnQg7U/H0oF0MB1Ie9C+tF9vt3/jWY9Yl1j3Wa2sNtbNifJy5oteRqMNaq1SMmR/PjHtSHvQXnQoHUAH0n4Q0ma0Jdzo4bQvHUIH0f60F+0HkbZvNZgvlPpigs801+K47lyS248bzHX+MlPfRd+rj0UGxT/00fSa3aeqqO/my/qiz3SWohgxXyKpedR+6hR1jDpDHaLqIaSOUg3UeeowVf/Zd+ghGOT2VUuEDAoUoBDy/6gn1tZkIEOJe417h/sH7R1UsikqABAVK6cy8tw8lTBEqSyUCaMVkiGDhR7uHu5AekamUPMz9cIMBADC7OzfsfI7QEBGT0/Pob9jsXHAT08AXuffMacagH8EOP21RM2UamI0ALDAgwEEsMAA2MMZbvCAN/wRjHCMQjySkYEJkCAPRWAwGdMxBxVYgCVYibXYiC3YgR+wD/U4hGP4BedwEa24hTa04ym68BrdBEFwCD5hQlgQNoQD4Up4EL5EIBFOxBKJRAaRReQSCkJNTCe+IhYQy4i1xCZiJ/EjcZA4RpwhLhE3iXtEB/EX8Z6kSD1SQFqTjuRQ0pcMIWPIZHI8mUtOIsvIueQicjW5mdxN1pHHyHNkK9lGPiVfUaB0KTPKlnKjfCkRFU9lUjkUQ82kKqkqajNVSzVSp6grVBvVSb2j2bQJLaTdaH86ik6hJfQkeia9kF5L76Dr6BP0Ffoe3UV/YvFZVixX1ghWNCudlcuazKpgVbG2sQ6wTrJaWe2s12w224ztxPZhR7Ez2PnsaeyF7PXsPewm9iX2A/YrDodjwXHlBHDiOWKOilPBWcPZzTnKucxp57zV0dWx0fHQidDJ1FHolOtU6ezSOaJzWeexTjfXkOvAHcGN50q5U7mLuVu5jdwL3HZuN8+I58QL4CXz8nlzeKt5tbyTvNu8F7q6una6frpjdOW6s3VX6+7VPa17T/ednrGei55Ib5yeWm+R3na9Jr2bei/4fL4jP5ifyVfxF/F38o/z7/Lf6pvoD9GP1pfqz9Kv1q/Tv6z/zIBr4GAQYjDBoMygymC/wQWDTkOuoaOhyFBsONOw2vCg4XXDV0YmRsOM4o2KjBYa7TI6Y/TEmGPsaBxuLDWea7zF+LjxAxPKxN5EZCIx+cpkq8lJk3YBW+AkiBbkCxYIfhC0CLpMjU2Hm6aaTjGtNj1s2mZGmTmaRZsVmi0222d2zex9P+t+If1k/eb3q+13ud8b8/7mweYy80rzPeat5u8thBbhFgUWSy3qLe5Y0pYulmMsJ1tusDxp2dlf0N+/v6R/Zf99/X+zIq1crBKtplltsTpv9cp6gHWktdJ6jfVx684BZgOCB+QPWDHgyIAOGxObQBu5zQqboza/C02FIcJC4WrhCWGXrZVtlK3adpNti223nZNdil253R67O/Y8e1/7HPsV9s32XQNtBo4eOH1gzcDfHLgOvg55DqscTjm8cXRyTHP8xrHe8YmTuVO0U5lTjdNtZ75zkPMk583OVwexB/kOKhi0ftBFF9LFyyXPpdrlgivp6u0qd13vemkwa7DfYMXgzYOvu+m5hbiVutW43RtiNiR2SPmQ+iHPhg4cmjl06dBTQz+5e7kXum91vzXMeNioYeXDGof95eHiIfGo9rjqyfeM8Jzl2eD5fLjrcNnwDcNveJl4jfb6xqvZ66O3jzfjXevd4TPQJ8tnnc91X4Fvgu9C39N+LL9Qv1l+h/zejfAeoRqxb8Sf/m7+Bf67/J+MdBopG7l15IMAuwBxwKaAtkBhYFbgd4FtQbZB4qDNQfeD7YOlwduCH4cMCskP2R3yLNQ9lAk9EPpGNEI0Q9QURoVFhlWGtYQbh6eErw2/G2EXkRtRE9EV6RU5LbIpihUVE7U06nq0dbQkemd01yifUTNGnYjRi0mKWRtzP9YlloltHE2OHjV6+ejbcQ5xirj6eMRHxy+Pv5PglDAp4ecx7DEJY6rHPEocljg98VSSSdLEpF1Jr5NDkxcn30pxTlGnNKcapI5L3Zn6Ji0sbVlaW/rQ9Bnp5zIsM+QZDZmczNTMbZmvxoaPXTm2fZzXuIpx18Y7jZ8y/swEywmFEw5PNJgonrg/i5WVlrUr64M4XrxZ/Co7OntddpdEJFkleSoNlq6QdsgCZMtkj3MCcpblPMkNyF2e25EXlFeV1ykXydfKn+dH5W/Mf1MQX7C9oKcwrXBPkU5RVtFBhbGiQHGieEDxlOJLSldlhbJt0ohJKyd1MTHMthKiZHxJg0qgUqrOq53VX6vvlQaWVpe+nZw6ef8UoymKKeenukydP/VxWUTZ99PoaZJpzdNtp8+Zfm9GyIxNM4mZ2TObZ9nPmjurfXbk7B1zeHMK5vxa7l6+rPzlV2lfNc61njt77oOvI7+uqdCvYCquf+P/zcZ59Dz5vJb5nvPXzP9UKa08u8B9QdWCDwslC89+O+zb1d/2LMpZ1LLYe/GGJewliiXXlgYt3bHMaFnZsgfLRy+vWyFcUbni5cqJK89UDa/auIq3Sr2qbXXs6oY1A9csWfNhbd7a1urQ6j3rrNbNX/dmvXT95Q3BG2o3Wm9csPH9d/LvbmyK3FS32XFz1Rb2ltItj7ambj31ve/3O7dZbluw7eN2xfa2HYk7Tuz02blzl9WuxTVkjbqmY/e43Rd/CPuhodatdtMesz0L9mKveu/vP2b9eG1fzL7m/b77a39y+GndAZMDlXVE3dS6rvq8+raGjIZLB0cdbG70bzzw85Cftx+yPVR92PTw4iO8I3OP9BwtO/qqSdnUeSz32IPmic23jqcfv3pizImWkzEnT/8S8cvxUyGnjp4OOH3ozIgzB8/6nq0/532u7rzX+QO/ev16oMW7pe6Cz4WGi34XGy+NvHTkctDlY1fCrvxyNfrquda41kvXUq7duD7uetsN6Y0nNwtvPv+t9LfuW7Nvs25X3jG8U3XX6u7mfw36154277bD98Lunb+fdP/WA8mDpw9LHn5on/uI/6jqsc3jnU88nhzqiOi4+PvY39ufKp92d1b8YfTHumfOz376M/jP813pXe3Pmec9fy18YfFi+8vhL5tfJby6+7rodfebyrcWb3e883136n3a+8fdkz9wPqz+OOhj46eYT7d7inp6lGJGDACgAJA5OcBf2wF+BmByEeCN1ex8AABCs6cCmv8g/93X7IUAAG+gFkAiAFETsLcJcJwN8AEkAEgOBunp2ffRWkmOp4eGS48BWG97el5YA5xG4CPT09O9vqfn41aAugk0TdLsmgDANgS+CwaAVvP0TfjCNHvoZzN+eQKkp+dwfHn+G9sEiXe5qWARAAAACXBIWXMAAAsTAAALEwEAmpwYAAAOV2lUWHRYTUw6Y29tLmFkb2JlLnhtcAAAAAAAPD94cGFja2V0IGJlZ2luPSLvu78iIGlkPSJXNU0wTXBDZWhpSHpyZVN6TlRjemtjOWQiPz4gPHg6eG1wbWV0YSB4bWxuczp4PSJhZG9iZTpuczptZXRhLyIgeDp4bXB0az0iQWRvYmUgWE1QIENvcmUgNi4wLWMwMDIgNzkuMTY0NDYwLCAyMDIwLzA1LzEyLTE2OjA0OjE3ICAgICAgICAiPiA8cmRmOlJERiB4bWxuczpyZGY9Imh0dHA6Ly93d3cudzMub3JnLzE5OTkvMDIvMjItcmRmLXN5bnRheC1ucyMiPiA8cmRmOkRlc2NyaXB0aW9uIHJkZjphYm91dD0iIiB4bWxuczp4bXA9Imh0dHA6Ly9ucy5hZG9iZS5jb20veGFwLzEuMC8iIHhtbG5zOmRjPSJodHRwOi8vcHVybC5vcmcvZGMvZWxlbWVudHMvMS4xLyIgeG1sbnM6cGhvdG9zaG9wPSJodHRwOi8vbnMuYWRvYmUuY29tL3Bob3Rvc2hvcC8xLjAvIiB4bWxuczp4bXBNTT0iaHR0cDovL25zLmFkb2JlLmNvbS94YXAvMS4wL21tLyIgeG1sbnM6c3RFdnQ9Imh0dHA6Ly9ucy5hZG9iZS5jb20veGFwLzEuMC9zVHlwZS9SZXNvdXJjZUV2ZW50IyIgeG1sbnM6c3RSZWY9Imh0dHA6Ly9ucy5hZG9iZS5jb20veGFwLzEuMC9zVHlwZS9SZXNvdXJjZVJlZiMiIHhtbG5zOnRpZmY9Imh0dHA6Ly9ucy5hZG9iZS5jb20vdGlmZi8xLjAvIiB4bWxuczpleGlmPSJodHRwOi8vbnMuYWRvYmUuY29tL2V4aWYvMS4wLyIgeG1wOkNyZWF0b3JUb29sPSJBZG9iZSBQaG90b3Nob3AgMjEuMSAoTWFjaW50b3NoKSIgeG1wOkNyZWF0ZURhdGU9IjIwMjAtMDYtMDVUMDQ6NDA6MzcrMDI6MDAiIHhtcDpNb2RpZnlEYXRlPSIyMDIwLTA2LTE5VDAyOjUxOjEyKzAyOjAwIiB4bXA6TWV0YWRhdGFEYXRlPSIyMDIwLTA2LTE5VDAyOjUxOjEyKzAyOjAwIiBkYzpmb3JtYXQ9ImltYWdlL3BuZyIgcGhvdG9zaG9wOkNvbG9yTW9kZT0iMyIgcGhvdG9zaG9wOklDQ1Byb2ZpbGU9IkRpc3BsYXkiIHhtcE1NOkluc3RhbmNlSUQ9InhtcC5paWQ6MmFjOWM3YjMtMzZjOS00YWZiLTkwYzYtZmU4Y2M0YzkxYzFkIiB4bXBNTTpEb2N1bWVudElEPSJhZG9iZTpkb2NpZDpwaG90b3Nob3A6ZTdkNDkwMzEtMjQ1Ni05ZTQwLTk2OGQtNWE1MjFhYTc1Nzg3IiB4bXBNTTpPcmlnaW5hbERvY3VtZW50SUQ9InhtcC5kaWQ6OThlOWZlMzktYWQwNC00ODU2LTg5NmItYjczNzQ0NzdiNmU5IiB0aWZmOk9yaWVudGF0aW9uPSIxIiB0aWZmOlhSZXNvbHV0aW9uPSI3MjAwMDAvMTAwMDAiIHRpZmY6WVJlc29sdXRpb249IjcyMDAwMC8xMDAwMCIgdGlmZjpSZXNvbHV0aW9uVW5pdD0iMiIgZXhpZjpDb2xvclNwYWNlPSI2NTUzNSIgZXhpZjpQaXhlbFhEaW1lbnNpb249IjUyMiIgZXhpZjpQaXhlbFlEaW1lbnNpb249IjM0MyI+IDxwaG90b3Nob3A6VGV4dExheWVycz4gPHJkZjpCYWc+IDxyZGY6bGkgcGhvdG9zaG9wOkxheWVyTmFtZT0iUmVhY3QgTmF0aXZlIiBwaG90b3Nob3A6TGF5ZXJUZXh0PSJSZWFjdCBOYXRpdmUiLz4gPHJkZjpsaSBwaG90b3Nob3A6TGF5ZXJOYW1lPSJkamFuZ28iIHBob3Rvc2hvcDpMYXllclRleHQ9ImRqYW5nbyIvPiA8cmRmOmxpIHBob3Rvc2hvcDpMYXllck5hbWU9IlJlYWN0IEpTIiBwaG90b3Nob3A6TGF5ZXJUZXh0PSJSZWFjdCBKUyIvPiA8L3JkZjpCYWc+IDwvcGhvdG9zaG9wOlRleHRMYXllcnM+IDxwaG90b3Nob3A6RG9jdW1lbnRBbmNlc3RvcnM+IDxyZGY6QmFnPiA8cmRmOmxpPjNEQ0E1MkU0REE1RUFCNUJCQkMzNDMyRjE2NkQ1Q0VBPC9yZGY6bGk+IDxyZGY6bGk+REUwQUNCQTU2NkI1RUY4OTAyNEEyMTlEMTZFN0UxMjU8L3JkZjpsaT4gPHJkZjpsaT54bXAuZGlkOjRlMGFmZTRhLTM0M2YtNGNhNy04ZjE0LTAxNGZiOTQxNTUyMDwvcmRmOmxpPiA8L3JkZjpCYWc+IDwvcGhvdG9zaG9wOkRvY3VtZW50QW5jZXN0b3JzPiA8eG1wTU06SGlzdG9yeT4gPHJkZjpTZXE+IDxyZGY6bGkgc3RFdnQ6YWN0aW9uPSJjcmVhdGVkIiBzdEV2dDppbnN0YW5jZUlEPSJ4bXAuaWlkOjk4ZTlmZTM5LWFkMDQtNDg1Ni04OTZiLWI3Mzc0NDc3YjZlOSIgc3RFdnQ6d2hlbj0iMjAyMC0wNi0wNVQwNDo0MDozNyswMjowMCIgc3RFdnQ6c29mdHdhcmVBZ2VudD0iQWRvYmUgUGhvdG9zaG9wIDIxLjEgKE1hY2ludG9zaCkiLz4gPHJkZjpsaSBzdEV2dDphY3Rpb249InNhdmVkIiBzdEV2dDppbnN0YW5jZUlEPSJ4bXAuaWlkOmU1MmNiY2JmLTZhNzEtNDgyZi05ZDRiLTgzN2M1YTZkMDI1NSIgc3RFdnQ6d2hlbj0iMjAyMC0wNi0xOVQwMDo0NTowMSswMjowMCIgc3RFdnQ6c29mdHdhcmVBZ2VudD0iQWRvYmUgUGhvdG9zaG9wIDIxLjIgKE1hY2ludG9zaCkiIHN0RXZ0OmNoYW5nZWQ9Ii8iLz4gPHJkZjpsaSBzdEV2dDphY3Rpb249ImNvbnZlcnRlZCIgc3RFdnQ6cGFyYW1ldGVycz0iZnJvbSBpbWFnZS9wbmcgdG8gYXBwbGljYXRpb24vdm5kLmFkb2JlLnBob3Rvc2hvcCIvPiA8cmRmOmxpIHN0RXZ0OmFjdGlvbj0iZGVyaXZlZCIgc3RFdnQ6cGFyYW1ldGVycz0iY29udmVydGVkIGZyb20gaW1hZ2UvcG5nIHRvIGFwcGxpY2F0aW9uL3ZuZC5hZG9iZS5waG90b3Nob3AiLz4gPHJkZjpsaSBzdEV2dDphY3Rpb249InNhdmVkIiBzdEV2dDppbnN0YW5jZUlEPSJ4bXAuaWlkOjQ1MmQzYjFiLWFmOTMtNDJlMC1hZmFjLTliZmVlMjA1NDBlNCIgc3RFdnQ6d2hlbj0iMjAyMC0wNi0xOVQwMDo0NTowMSswMjowMCIgc3RFdnQ6c29mdHdhcmVBZ2VudD0iQWRvYmUgUGhvdG9zaG9wIDIxLjIgKE1hY2ludG9zaCkiIHN0RXZ0OmNoYW5nZWQ9Ii8iLz4gPHJkZjpsaSBzdEV2dDphY3Rpb249InNhdmVkIiBzdEV2dDppbnN0YW5jZUlEPSJ4bXAuaWlkOjI2ZjM2NDU2LTU0ZjQtNGM1MS1hZTY3LTg0ZjliZWY5MDljNyIgc3RFdnQ6d2hlbj0iMjAyMC0wNi0xOVQwMjo1MToxMiswMjowMCIgc3RFdnQ6c29mdHdhcmVBZ2VudD0iQWRvYmUgUGhvdG9zaG9wIDIxLjIgKE1hY2ludG9zaCkiIHN0RXZ0OmNoYW5nZWQ9Ii8iLz4gPHJkZjpsaSBzdEV2dDphY3Rpb249ImNvbnZlcnRlZCIgc3RFdnQ6cGFyYW1ldGVycz0iZnJvbSBhcHBsaWNhdGlvbi92bmQuYWRvYmUucGhvdG9zaG9wIHRvIGltYWdlL3BuZyIvPiA8cmRmOmxpIHN0RXZ0OmFjdGlvbj0iZGVyaXZlZCIgc3RFdnQ6cGFyYW1ldGVycz0iY29udmVydGVkIGZyb20gYXBwbGljYXRpb24vdm5kLmFkb2JlLnBob3Rvc2hvcCB0byBpbWFnZS9wbmciLz4gPHJkZjpsaSBzdEV2dDphY3Rpb249InNhdmVkIiBzdEV2dDppbnN0YW5jZUlEPSJ4bXAuaWlkOjJhYzljN2IzLTM2YzktNGFmYi05MGM2LWZlOGNjNGM5MWMxZCIgc3RFdnQ6d2hlbj0iMjAyMC0wNi0xOVQwMjo1MToxMiswMjowMCIgc3RFdnQ6c29mdHdhcmVBZ2VudD0iQWRvYmUgUGhvdG9zaG9wIDIxLjIgKE1hY2ludG9zaCkiIHN0RXZ0OmNoYW5nZWQ9Ii8iLz4gPC9yZGY6U2VxPiA8L3htcE1NOkhpc3Rvcnk+IDx4bXBNTTpEZXJpdmVkRnJvbSBzdFJlZjppbnN0YW5jZUlEPSJ4bXAuaWlkOjI2ZjM2NDU2LTU0ZjQtNGM1MS1hZTY3LTg0ZjliZWY5MDljNyIgc3RSZWY6ZG9jdW1lbnRJRD0iYWRvYmU6ZG9jaWQ6cGhvdG9zaG9wOjFjZmFmNTAyLTQzZDMtZGE0ZC1hYTNkLWUwZGY5YWNiYWY2YSIgc3RSZWY6b3JpZ2luYWxEb2N1bWVudElEPSJ4bXAuZGlkOjk4ZTlmZTM5LWFkMDQtNDg1Ni04OTZiLWI3Mzc0NDc3YjZlOSIvPiA8L3JkZjpEZXNjcmlwdGlvbj4gPC9yZGY6UkRGPiA8L3g6eG1wbWV0YT4gPD94cGFja2V0IGVuZD0iciI/PgjvnA8AAE9uSURBVHic7d13mF1F+cDxb4ChSglVURRBhiZICR0VlaZYUAlNQAYV7GLBxJ8Ne7CCnagZRUANRRAVEVQEQRCCFAEZINKRIkGKBCbl98fMwrLs3XvPnDn33HPu+3mefRLCzpzZzebOe6e876TFixcjhBBCCDGeJeoegBBCCCEGlwQKQgghhOhIAgUhhBBCdCSBghBCCCE6kkBBCCGEEB1JoCCEEEKIjiRQEEIIIURHS9U9AFGtSZMm1T2ERjPOLwWsDiwbf10APAY8CvzbarWgxuGJLozzClgHWBdYC1gOWAl4CFgI3A/cC9xktZpX0zAbT/LxtNsk+QtuNwkUemecfxbwSmAnYAqggedN0GQhcBdwC3ANMAe4HLjWarWw0sGKZ4hB3fbADsDW8WM9el85vQe4FPgT8Gur1U1VjLONZB5pNwkUWk4ChYkZ55cE3gC8FdgTWDpDtw8RJpvzgN9areZm6FOMwzi/NvBGYA9gF2DFjN1fBswETrRazc/Yb+vIPNJuEii0nAQK44vvPt8KfIKwLF2lK4AzgNlWqxsqflbrGefXAPYH9iWs/lT9Q/5v4DPAD2WraXwyj7SbBAotJ4HCMxnntwN+AGxWw+Mvjs+ebbX6Xw3PbyTj/CTCttARwN6AqmEYVwBvt1r9vYZnDzSZR9pNAoWWk0DhKXGb4ZPxo+4bPw8DPwaOla2JzozzyxFWfj4EbFDzcACeAKZZrY6teyCDROaRdpNAoeUkUAiM8ysAPwdeW/dYxlgEnA581Wp1ad2DGRTG+dWA98aP1Wseznh+CLxTDq0GMo+0mwQKLSeBAhjnVwZ+D2xb91i6OAc42mp1Sd0DqYtxfhXgyPixcp1j6cHJwCESLEig0HYSKLTcsAcKxvnlgT8C29U9lgLOAT5htbq87oH0S9xiOBKYxuAHCKOdABxqtRrqF1KZR9pNAoWWG+ZAIR6AO51w+K2JTgI+ZrW6ve6BVCX+HR0IzGDinBWD7DNWq6PrHkSdZB5pNwkUWm7IA4X/A75Q9zhKmg98DZhhtXqk7sHkZJzfATgO2KbusZS0GNjLanV23QOpi8wj7SaBQssNa6BgnN8euIj6bzfkcgdwpNXqtLoHUpZxfjJhBeEdVJ8DoV/uATa1Wv2n7oHUQeaRdpNAoeWGMVAwzi8DXAVsWPdYKnA28N4mXqmM2wwHEVZI1qh5OFU4yWp1UN2DqIPMI+0mgULLDWmgMB34UqbuHgFuAO6Lv38ceBbwXEIdgVUzPaeI+cCngK835cS9cf75hCuFu/X50QuAfwA3ATcTCkA9Skj1vCLwAmBzYAvyrG68zGp1YYZ+GkXmkXaTQKHlhi1QMM6vDvyLMJmn+g/wbeAMq9WVXZ63BmGPfXtC5sAd6N92x6WEE/f/7NPzCourCG8nrCLkrMPQyUJC9suzgT8Df7daPdatkXF+LeAthJsX65R4/uXAtsN2C0LmkXaTQKHlhjBQ+AbhxT7V94GjUg8Oxv33PYH9gFeTp8jURB4nZJr8mtVqUcXPKiQWbLLA7hU/ahGhCNfJwOlWqwdTO4qJub5GSBWd6o1WqzNKtG8cmUfaTQKFlhumQCFm87sdWC6h+SJC8pyTMo5nMqF40TsJy9tVOh842Gp1R8XP6Ylx/nXALKrNqng3oW7GD3J/3cb5dwPfSWx+idVqh5zjGXQyj7SbBAotN2SBQpnrkG+zWs3KOZ7RjPM7AR8A9qG6k/7zgCOsVqdU1H9XMXHS14B3VfiYK4EvA6darXxVDzHOfxo4OrH5jlarv2YczkCTeaTdJFBouWEJFIzzSwC3kLa//AOr1eF5RzQ+4/wGwEcJhY6qqoD4I+B9vezN52Sc3wg4DdikokdcSij3/Lt+nAGIP1O/BfZIaH6C1eqtmYc0sGQeaTcJFFpuiAKFPYDfJTS9A9iw3yWf4y2AzxKuCy5ZwSOuAd5stbqxgr6fwTi/H+FWQ5lDpJ1cDXzcavXrCvqekHH+BcD1FN/O+h/wHKvVQ/lHNXhkHmm3tiSjESL1/vqH+x0kAFitbrNaHQpsBpxZwSM2A64wzu9TQd9PMs4vbZz/FqEyZ+4g4S7gYGDLOoIEAKvVrYTkUEUtD7wh83CEqIWsKLTcMKwoxARL9wIrFWx6LbDZIFxlM86/CjgWeHEF3R8LfCR3zgXj/HOAX5K/4NbjhHMOX7RaPZq578JiRctbKF6s6tdWq9dlH9AAknmk3WRFQbTBLhQPEgCOGYQgAcBq9QdgS8KBx4czd38k8Pt4KyQL4/y2hJwBuYOEc4FNrFYfH4QgASBet5yZ0HTXeLhTiEaTQEG0wZ4JbR4EZmceRylWqwVWq28SDgP+MnP3rwQuM86XvqZpnD8EuABYu/SonnIfcJDVavcBTU/9w4Q2yxKCWCEaTQIF0QYpaYF/brV6PPtIMrBa3WG1ehPwRkKxoVxeCFxsnN87pbFxfgnj/JeBnwDLZBzXz4GNc+awyM1q5YCU646vyj0WIfpNAgXRaMb5VYFNE5r+IvdYcovZ/TYlZBzMZQXgNOP8h4s0Ms4vT1iBOSrjWO4H9rVaHdCQqosplTtfmn0UQvSZBAqi6XZKaPMwoQT1wLNa/cdq9RbgzcADmbpdAviqcf57xvmuVzON82sSUiS/OdPzIeQneHGdyaES/CahzdbG+WWzj0SIPpJAQTTdFgltzqsyo18VrFanE9JA/yljt+8EfmOc73gQ1Di/MSHR0baZnvkE8EHgtVarnNsqlYvFt24t2GxJ0la8hBgYEiiIptssoc1fso+iD6xWdwK7Ah8jlE/OYQ/g/Lhq8DTG+e2BC4F1Mz3LAdtbrY4dlNsmCS5OaFN1nQ8hKiWBgmi6lyS0aWwOfqvVIqvVDMJp+jszdbsl4ZDji0b+wDi/J/BHINeVylOBKVarv2fqry4pQWbKz6gQA2OpugcgRKp4wO5FXT/x6RYCV1QwnL6yWl1knN8KOImwylDW+sBFxvlXE65nziJPLYoFwEetVt/I0NcgSPnZkUBBNJqsKIgm24DiP8M3Deq1yKKsVvcSckh8PlOXaxK2Gn5KniDhHuAVLQoSIGTzLEpnH4UQfSSBgmiy5yW0uS77KGpktVpotfokoXx1jkyGy2foA8I7722sVo08D9KJ1ephih9ofLZxXlZvRWNJoCCaLKWk9PXZRzEArFanATsC/6p7LIQESi+1Wt1e90AqUrQi5xLAc6sYiBD9IIGCaLKUQKGtkxdWq6uBbaj3VsengAPrqMjZR7cltElZ/RJiIEigIJrs+Qltii4bN0rMcPgqwiHHfvKEWg2fa/DVx16l/AylBLVCDAQJFESTPePufw/uyj6KAWO1egI4mPDuvh8eAF41yLUaMrs7oc1a2UchRJ9IoCCabMWENvdnH8UAslottlp9DjiU8G6/KrcBO1qtLqzwGYMmpS5Fys+qEANBAgXRZCkvvrnqJTSC1eonwOuBKs4M/APYyWp1QwV9D7L7Etp0TJMtxKCTQEE0WdFAYb7V6rFKRjLArFa/I2RyzLma8hdgZ6vVHRn7bIqHE9rIioJoLAkURJOtUvDzW5FoKYXV6jLCtcVsXVqt/puxvyZ5MKGNrCiIxpJAQTTZswp+/kOVjKIBjPMfAt6bscvvG+dfn7G/JlmY0GaF7KMQok8kUBBNtmTBz19UySgGnHH+bcDXMnergJ8b51+Zud8mSNl6EKKxJFAQosWM8/sAMyvqfjngDOP8lIr6F0IMAAkUhGgp4/wuhMRLVf47XxE42zi/QYXPEELUSAIFIVrIOP8S4Exg6T48bnXg98b5tfvwLCFEn0mgIETLGOdfCPyO/p60Xxf4nXF+5T4+UwjRBxIoiCZ7pODn9+Pdda2M86sCZwPPruHxmwG/NM63/fu8SkKbJ3IPQoh+kUBBNFnRQGH5SkYxIIzzyxC2GzascRivAH5knJ9U4xiqtkxCm0ezj0KIPpFAQTRZ0UChtUlv4sR8ArBzya5OpXwp7oOAz5XsY5Atl9BmWJNTiRaQQEE0WdFAYVJ8191GXwT2LdnHWcCBwCuBe0v29XHj/GEl+xhUKQFn0Z9VIQaGBAqiyVLepa2WfRQ1M86/FZhespvzgf2tVt5qdROwK2mpikf7fryi2TarJrSRrQfRWBIoiCZLyZDXqkDBOP8y4Aclu7kc2Ntq9WSFSavVNcCelHsnrIDTjfO65PgGzeoJbWRFQTSWBAqiyVJKRqe8yA8k4/z6wC8JE3KqG4DXjFfgyWp1KfAGwJfofzJwVryN0RYpX0tKaWohBoIECqLJ7k5os0b2UdTAOL8i8CvSJq0R9wB7Wq06TmJWqz8SDieWoYHZxvmitTkGVUqweU/2UQjRJxIoiCZLefFtfPZA4/wShNTMm5To5hHCSsIt3T7RajUb+GCJZwG8Cvh6yT4GxToJbf6dfRRC9IkECqLJUlYUnpt9FP33WeB1JdovAPaxWl3RawOr1bGUn+jf35KbECnBpgQKorEkUBBNlvLim/JucGDEapAfL9nN4VarcxLafQT4eclnf984v33JPupWNFB4wmo1r5KRCNEHEiiIJksJFJ6XfRR9YpzfBPhxyW4+b7WyKQ2tVouBtwJ/KfF8BZxmnK8jxXRpMbFV0WCzbE4KIWolgYJospQMgutnH0UfGOdXItxwWKFEN6cBnyozDqvVE8AbgbklulmbcLixzG2NuqxN8RTOt1YxECH6RQIF0VhWq0cpfqDx2cb5MpNt38V3sT8h3B5INQc4JK4KlGK1uh/Yi3JpiV8KfK3sWGqwXkKbMkGVELWTQEE03c0JbV6UfRTV+iiwd4n2dwOvH51QqSyr1T+BfQgHI1O9zzh/YKYh9YsECmLoSKAgmi7lRbgxgYJx/qXAF0p08RjwWqvVXZmG9CSr1XnAe0t2MzOevWiKlK0rCRREo0mgIJouZUVh0+yjqIBxfk3gF0CZREVHFLkGWZTV6njgeyW6WAE41Tj/rExDqlrKz44ECqLRJFAQTZcSKAz8O9iYxfBk4Dkluvmm1eqnmYY0kSOBC0u03xiYmWcoldsooY0ECqLRJFAQTXdjQpuBDxSAjxGyGaa6gJD3oHLxJsRU4I4S3RxgnD8i05AqEW9pFD1Q+mgV2z5C9JMECqLprktos5FxfqnsI8nEOL8zcHSJLu4C9rValSnmVIjV6h7gTcD8Et0ca5zfLNOQqrABUPTn5h9VDESIfhrYF0shemG1esg4fyvwggLNFGG5+5pqRpUuVlk8mXLnEi4D3hsLRy1HuPe/cvx1eWBS/O+xlgeWjr9/lKdXjfTxzyDcdHiEEBTMJ5T79sBDwN+BHRLHvSwhv8KUePV10Lwkoc212UchRJ9JoCDa4BqKBQoAWzJAgUJc1n4e8A3Kp5l+Q/xooo0IaZ4/AdxptSpz/TK3LRLaDMzPmBCpJFAQbfAP4LUF22wBnJB/KOMzzi9LCGZeAKwLPD/+OvL75yJbgSMOih8LjfN3EDIb3grcMub3t8XzEf2yRUIbWVEQjSeBgmiDlHdtW2UfBWCcfw6wIeGd8Ubx9xsTgoFJVTyzxZbkqeBqPIuM87cA1wOOcF7FAf+0WlVRX2GLhDayoiAab9LixaUzuooBNmlS++emeADu6oLNHgFWsVotTHzmZML2xRaEveuRwGCllP5EdvOAfwI3AFeOfFitktJOG+fXAW4r2OwBq9VqKc9rGplH2k1WFEQbXE84VLdsgTbPIrzT73oq3Tj/PEJQMPqj6JkI0V+TCYcqn3aw0jj/L0LQ8PeRX61WvVzr3DZhDHMS2ggxcCRQEI1ntVpgnL8C2LFg0x0YEygY55cDpgA7xY/tgdVzjFMMhBfGjzeO/IFx/n7gUuAi4K/A38api7FNwrMuSx2kEINEAgXRFn+jeKCwrXH+rNhuJDDYinB9UgyP1QnVMPeK/73QOH8lcDEhcLiItEDh0iyjE6JmEiiItvhbQpvDgLfnHohovCWBrePH+0r0IysKohXkOpZoi5QXZfn5F1W5y2p1d92DECIHeaEUrWC1ugn4T93jECKSbQfRGhIoiFYwzm8NPFj3OISIVjTOb1n3IITIQfIotFxb8ygY5ycB2xGqFu5DSGgkxKCZC5wK/BK41GrVyhdcmUfaTQKFlmtToBCDgx2AA4C9CbURhtEiwjbL6I95hKJMYz/+RyjatJCw4rIo/jmj/ny0kZTIS4/58yV4KpnUSvG/Vx7167LAivFjJWCVUf+9avxYI/66fNJX3Xy3EwKGn1ut/lr3YHKSeaTdJFBouTYECsb59YCD48f6NQ+nLrcArwHutVo1+iyGcX4ZwgrQxQxvjoqbgJ8CP7Va/avuwZQl80i7SaDQck0NFIzzKwP7AocAO9c8nEHwSqvVn+oeRE7G+b0J77CH3V8IQcNsq9WDNY8licwj7SaBQss1LVAwzk8B3g3sDyxX83BSPEKoL3DdqF/vAH4FPDuxz+OsVkdmGd2AMc6fQFgpSnE9ocrkiwjpuDeKv2qa+bPzGPAz4PtWq0blYJB5pN0kUGi5JgQKxvnlCYHBuwlJbppgMeGg2lWEglRXxY9bxh5YM85/Hfhg4nMcsOU4KYVbwTi/CiGN9nMTu/iI1eprY/pckrBFtTmhYNfm8WPd5IH23xXAdwnnGR6tezDdyDzSbhIotNwgBwrG+ecDHwDeRjgQN8huImR/nANcTigm9HC3Rsb5rWK7JROeuQjYyWp1SULbxjDO7w6ck9j8MWATq9UtPTxnZUIgug2hnsfWhLoPg+whYBZwrNXq1roH04nMI+0mgULLDWKgYJzfHPgosB+DmUb8QeASQo7/S4DLUsoTx3e2lxAmpRRftVodldi2UYzzxwOHJzY/x2q1Z+JzVycEDjsTan5sx2BuWywEfkH4mfh73YMZS+aRdpNAoeUGKVAwzu8KHAXsXvdYxrEQeBchOLg+x3134/z7geMSm98EbGa1ml92HE1gnF8JuJb0K69vsVqdnGEcSxEKg70JmFa2v4r8Afiy1er3dQ9khMwj7SaBQssNQqBgnN8FmEF4tzbItrFaXZ6jI+P88wgHGVdM7OIVVqvzc4ylKYzzewG/Tmx+H7BxrqujJYO8frkU+NQgBAwyj7SbpHAWlTHO72ScPx/4E4MfJAC8PmNfx5EeJMwctiABwGr1G+CkxOZrAF/OOJzXZeyrKtsB5xjnz4/BuBCVkBWFlqtjRSHmuP8SsEffH17OVVarLcp2YpzfA/hdYvO7CIfzCp+JaAPj/GqEa49rJHaxY9msh3Eb5H5AFWy6GKhzCe+PwEetVnP6/WCZR9pNVhRENsb5tYzzPyDcDKgjSHiUcA/99YTzBkW9xDj/gjIDMM4vTbkl63cPa5AAELcO3leii+/GQ6Rl7EHxIAFgM0Jq8RN5Kk12P70SuMw4P8s4n5qzQ4hnkEBBlGacX9o4fxThzv/b6e+7qkcJp8H3AdawWh1otTqLUIhnUUJ/ZbcfPgBsmNj2TKvVmSWf33hWq18AZyc23wJ4Z8khpPwMXGu1utZqdabV6mDCishrCEFDP/MgTAIMcKNx/mPG+WX7+GzRUrL10HJVbz3EmwzfI2TH65cngN8As4GzOiWkMc5fALy0YN9/tFq9KmVQxvnnEIKlZyU0/x/hMN5tKc9uG+P8uoTDoClXFR8ENrRa3ZvwXAXcA0wu2PSLVquPd+hzOULwcQCwF/29Evwv4J1VH3iUeaTdZEVBJDHOr2KcnwWcS/+ChDmEZem1rVZvslp1y1p3RsIzdjHOr5k0OvgKaUECwNESJDwlJlA6OrH5KsAXEtu+iuJBAkDHlSCr1WNWq19YrfYG1iZk6bwqbXiFvZBw4PHH8fyHEIVJoCAKi8V8ricscVbtYeA7wOZWqylWq28XuAJ3RsLzliDcoS/EOL8z8JaE50FIYfyNxLZt9nXC9ybF24zzKTdtpia0uRvoqTaD1eo+q9Wx8dDsVsBMQn2Qqr0VuNY4n/L1iSEnWw8tl3PrwTg/mbDNsF+2Tju7mhAgnGy1Sn4hNc5fA7y4YLNC2w/G+SUIqx1bFHzOiJ2tVhcltm014/yOhOqKKT/IlwPbWa16OqsSD0HeR/EVhZlWqyOKDm7Uc1cEDgTeQzgQWbXTgMOtVg/k6lDmkXaTFQXRE+P8ywiTd5VBwmLC2YNXWa1eYrWaWSZIiFIOBxbdfngr6UGClSChM6vVxcCPEptPIVSX7NUuZN526IXV6mGr1fFWq82B3YDflumvB28GrjbOv6Li54iWkEBBTMg4P8k4P52QNCk1vW43Hjge2Mhq9Vqr1R8z9n1GQpuetx9i5cvPJzwDwhW66Ylth8nHgHmJbb8Y/456kbIs/yghpXIWVqvzrFZ7Ecpl/4jwb6MKzwXOM85/Iq6ICdGRbD20XJmth5h45kSqy1L3GGGP9itWqzureIBxfhJwK7BOwaYXWK1e3kP/nwQ+mzI24EirVa1pgo3z6wAaeD6hgudKhGuljwAPEL53/7Ra3VPbIAHj/LsIZZdTHG21+kyX/lNvO5xqtaps3z9WWD2KcO24qquOvyHUykjO3yHzSLtJoNByqYGCcX594CzCO5vc5hNWEL5gtbqvgv6fxjj/ZcKLbVHrTlTaN16HvBFYIaHva4EtrFYLEtomizUo3kg43f8yep8Y7yWsKv0BOKMff2+jxfMDl5O2xfM/QE8UjBrnX0/aFsI+VqvTEtoVEn/W/g84grRkUN3cALzeauVSGss80m6y5CSewTi/PaE8cu4gYSHwA8Id9yP7ONn8LLFdt1sMnyMtSAB4f7+CBOP8Esb5/YzzfwBuA74JvIFi757XJJxPmQncZZw/0zi/Z1yxqZzVaiHw7sTmy9P9umTKjZWHqP48AQBWq7utVu8DNgB+QloysYlsCFxsnN8pc7+iBWRFoeWKrigY519HyHSYkuhmIr8DPmK1ujZzvz0xzv+T4hkTr7dabdKhv82AK0kLtitdrh4RJ/GDgU9SXa6LK4FPW61+VVH/T2Oc/zHh8GhRiwnVQZ9RByHeOriX4kv7P7VaHZIwltKM85sDxwK5DyTOB/Yr+vcp80i7yYqCeJJxfn/C1amcQYIDXmO1enVdQUKUUpVwY+P8Vh3+3zGk/fuZT9o2SCHG+S2AiwnvPqtMiLUFcKZx/rdxu6pq00lLiTwJ+GqH//cm0vb/T05ok4XV6mqr1SsJ20hzM3a9LHCacT41J4hoIQkUBADG+QMJk2mu/c/HgU8REiWl5u3PKXX74eCxf2Ccfznw6sT+jotZBysRb6l8hJAAaPuqnjOOVxOu3B1a5UOsVv8GZiQ238U4v9s4f17kCuWI+8l42yGV1eoMQp6QL5DvhsRSwAkSLIgRsvXQcr1sPcTthtPIFyScD7zDanVTpv6yMM5fRrhbX8R/CCmjnxjVz0XAjglDuA/YoKrqkMb5ZxHe5VZ1S6VXPyJUwXyi62cmiLUTbqD4TRYIibG2sVotjn09H7iF4gmdjrdalS0+lZVxfmPCGZKdM3W5CJhqtTq92yfKPNJusqIw5GLmu1+QJ0h4jFA98ZWDFiREKasKqxEO/gFgnH8taUEChGt6VQUJaxBuJdQdJAC8jbAd0Wv+gkKsVo8Rciuk2Jqn58h4K2lZH2vbdujEanU9IWnURwkremUtAZwY05OLISYrCi030YpCrNB3OWEyLOsKYH+r1Y0Z+qqEcX5t4A6KTwznWK32jIlprgBekvD46wnbMNlvOsRiP38GNs3dd0kXAntarf6Xu+N4UPMSYNuE5tcDmxNu4dwErFew/Z3A83tNDV2HuLrwc8LXWdYDhFWYjmchZB5pN1lRGFLG+RUI98ZzBAnfAnYc5CABwGp1F2n7yrvHJer9SAsSAD5aUZCwPPBrBi9IgFDi++SYAyGruHXwocTmGxPOnryM4kECwImDHCTAk6sL2xHylZS1KmGFKPUqsGg4CRSG13GUf7fxP2Bfq9X7rVY5ljr74YcJbSYB7yDkTUhxgdXq14ltu5lJfw8tFvUG0ks+TyjWyEits/AZQvKiFLMS2/WV1Wp+PEdxEOG2TRkvJrwhEENIAoUhZJzfh7CPXMZthKqHp2QYUj+dQTigWNTHgNTrf5XUczDOv5300tb9NM04n3pLpJv/I2whFLUOcEBCu7+kZi+si9XqJMLqzl0luzJSpno4SaAwZOJ+9vdKdnM1sK3V6u8ZhtRXceXjxISmqcvnZ1qt/prYtiPj/AsIq0JNMcs4v3LuTq1W1wEn5O53Ao1YTRjLanU5YSviHyW7+m48OCuGiAQKw2cGsHqJ9hcCL6u7SFBJqWWLi1pEeMdbhWMJqYmb4tmkb91082nKL6334mFgdh+eUwmr1R2EcxllAtfVSc9jIRpKAoUhErP1ldlyuIBwir2SK379YrW6hpCQqGonxHe8WRnndwH2zt1vH7zbOL9B7k6tVrcD38nd7zh+YbVKyQo5MKxW84BdCTdGUhnj/JaZhiQaQAKF4XI0aXfGAf5GqC6X/apbTVIONRbhCe90q/CJivqt2pLAxyvqewbhHX+V+rUSVan4b3hP0oPlScCX8o1IDDoJFIaEcf4ljEocVNBtwOuavpIwxs8JtzaqMstqdVvuTo3zWxNKRDfVgTGfRVZWq/uBr+fud5TrrFZl3oUPlPhv+XXA7Yld7CGrCsNDAoXh8YHEdo8SVhLuzTmYulmtHqK6/eb5wBcr6vuwivrtF8U49TMyORaoKpht5CHGicRzRm8gZFRN8f6MwxEDTAKFIRBrAOyf2PwjVqurco5ngJS9/dHJ8RWtJihC0qemq6Q0s9XqQUKwkNt8wFbQb+3izaUPJzbfL762iJaTQGE4vI600tG/I09mt4Fktfob4exFTvMJJairsCN5MmnWbZOYPrwKx5KWJ2MiJ1utHsjc5yD5PvD7hHbLMRi1RUTFJFAYDnsltFkIHDlSZa/Fvp25v+OtVndn7nPEKyrqtw6VnLOIqwpfzdxtqzMSxn/jHyAtcdVrMw9HDCAJFIZDyovyLKvVDdlHMnh+AeQ6f1HlagLkKx88CKr8Wr4NPJipr79Yra7M1NfAslr9k7TtlVfmHosYPBIotJxx/rmEZDdF5X6nPZCsVk8Qll5z+EmFqwkAm1TYd79V9rVYrR4hX9bKfuRnGBQpKyfPjq8xosUkUGi/lKqCV1mtrs4+ksE1Eyhb2XEhFWasM86vCDynqv5rsGHF/R9HuLFTxt3AaRnG0gjx33zKv/tBrFwqMpJAof1ekNDmvOyjGGBWqzspPyGcbLW6JcNwOmlTkACwciyRXYmYgbDsqtjxViufYzwNcm5Cm5TXGNEgEii03+SENtdmH8Xg+2aJtoupPv99G6+hVf01fYP0GhCeFt/4mUDKv/2U1xjRIBIotF/Ku7b7so9iwFmtLiZt2RXgV1XUdBhjpYr7r0OlRa1iQqHUMujnW63+nXM8DZHyb79JxclEAgkU2i9l772N714nFJfB10ls/gLjfGoNjV49XnH/dSh7LmRCxvmlCQWQUuxonG9jcNbNigltKv17FPWTQKH9HkxoM4x7jgeQvoS6BfCafEMZV9UFj+rwSMX9H0b62Y4VAJNxLE3xwoQ2D+YehBgsEii0310JbV6afRSDr2ze+k9mGUVnbcsMuCAmR6qEcX4p4KMlu3mvcX7YXiN3SWiT8hojGmTY/hEMo5sS2rzKOL9K7oEMKuP8S4HNS3aznXG+suQzVqu7KH/db5Ck/FwW8RbS3h2P9iJCOeahYJxfDXhZQtOq/y5FzSRQaL/rKL6/vSxwaP6hDKz3ZurnU5n66cRV3H8/VZb1M64CTMvU3fsy9dMEbwOWKdjmccJrjGgxCRRazmq1APhrQtOPGOdTCkk1Sswq96ZM3b3cOL99pr7Gc1mFfffb5RX2vS+wcaa+9jDOb5Cpr4EVq0B+KKHpX+NrjGgxCRSGQ0pluOcCR+UeyAA6HFgqY3+fzdjXWH+qsO9++2MVncbVhJwrO5PIt+I0yD4GrJXQLuW1RTSMBArDYXZiu48b5zfLOpIBEq/PvTNzt7sZ53fJ3OeIPwCLKuq7nx4if3nvETlXE0aYmEK7lYzzW5F+8DP1tUU0iAQKQ8BqdTNwSULTpYETW7wF8WZgzQr6PbqCPrFa3Udait1B84sqlqsrWE0YsSJwcAX91s44vwJwEmmrapfE1xbRchIoDI+UynAQbgPM6kNCoTq8o6J+X17hqsIJFfXbTz+tqN8qVhNGvL2ifmsT/02fCGyU2MVQVJgVEigMk1OB2xPb7g98OuNYamecXx94RYWP+FxF/Z4K3FlR3/1wpdXqwtydxrwJVX3PAbaMS/Rt8mVg78S2t5OeHls0jAQKQ8Jq9QTw+RJdfNo436bDjVVn3dvZOJ/9Dn78e/xq7n77qKrDngcR8h5U6W0V9983xvnpwEdKdPH5+LMohoAECsNlFnBNifZfNs5/INdg6mKcX5L+5In4UkWZ/Y4Hbqug36pdDpyZu1Pj/DJUe9tkxFuM88v24TmVikHCl0p0cQ3htUQMCQkUhkg8QFY2gcyxxvl+vChXaXfC9c+qbUHYtsnKavUYzUsEtBh4l9Wqilsb7yK9oFcRKwP79OE5lTDOTzLOf5lyQQLA+yR3wnCRQGHIWK3+DHy/ZDefNM7/KF4vbKJ+LiF/rorvk9XqV8Dpufut0LFWq+xJluK1xU/k7ncCjdx+iKsuP6F8bpTj42uIGCISKAynoyifn/0w4A/G+ZQkLbUxzq8OvD6h6T8I74qLWo+Q1KkKbwduqajvnC4DplfU94eB1RLazSPkpShqF+N81WchsjLOPxs4n/JXPG+i3LkG0VASKAwhq9UjhKtkRWtAjLUzcJlxfsfyo+qbgwGV0O6zhPvmKT4ZU+RmZbWaR1gK/1/uvjO6D9i3ioNvxvk1SJ+4vgx8I/XRie36LhY8mwOUTS3+OLBffO0QQ0YChSFltfo7ed7prgNcYJyf3pBcC4cmtHkA+BUhkZJPaL8m5Usej8tqNYdQqyJlXFV7CNjTanVLRf1/Glghod2/geOA35F21fTQQS8/bZxfwjj/CcJKwtoZunyn1eqKDP2IBhroH3ZRLavVCcBXMnS1JOGA1B+N8+tm6K8SxvlNSSsnfbLV6vGYhe6HiY8/yjj/vMS2E7JanQPsBwzSdbWHgNdVNbkY5zciPf32561Wj1mtFgI2of3apJVj7gvj/AsJtTQ+R57X+K9arX6coR/RUBIoiGmkL6mPtQtwtXH+HQO6unBAYrvRk8nngMcS+liW8qfNO7Ja/RLYgzBB1+1u4KVWqwsqfMZXCAFqUbcAPxj13ymBAqT/LFUm3mp4F+H64sszdfszKloNE80hgcKQs1otJhxMPCtTlysCMwmrC1Wl002V8uJ+9eh3xVaru4FvJj7/IOP8Noltu7JanQ9MAa6q6hk9+COwldXq6qoeYJx/BfDaxOafGX1ewmo1l7RKllON8ylnXSphnN8E+DPwXdK2Y8ZzFnBofI0QQ0wCBTGS7W8f8gULEFYXrjTOf944v3zGfpMY57cl3EAoarzaCjOA/yYO5RtVrrZYrW4kHFz7OrCwqueMYz7wf8DuVqt/V/WQeDbg64nNr2f8v8+U+hmTgeyZN4syzq9gnP8iITh8acauzwL2keyLAiRQENGoYOEXGbtdGvg44Izzb6l5O2K/hDaLCUuvT2O1epD0bYSdgKmJbXtitZpvtfowsBXhMFvVzgQ2sVp9Ke77V+kQQiKrFNM6JHw6jbTtpAMTx1Fa3GY4BHDAx0ir/tjJaUiQIEaZtHixrCq12aRJxebmmN74OOA9FQznb8BH+52wJb4LvQN4TsGmf7Ba7dqhz2WAfwLrJgzpDmBDq1VfrjXGSpbTyPsOeCFwBvCFeIOmcsb5lYAbSSsN/mer1S4T9H0yxbemHgWe3e8rg/Hv86vA1hV0fzzwnqIBn8wj7SYrCuJprFYLrVbvJSRlyp1ud1vgfOP87/pcie+lFA8SAE7u9D+sVo+TfsjreYSVlr6wWp1vtXo18EJCFsOrSEsetRC4BPgQ8Dyr1T79ChKio0kLEqB7voUTE/pcAXhdQrskxvltjfO/B/5E/iBhMfAxq9U7+7AqJBpGVhRaruiKwmjG+dcSbkSslG1AT3cm4XBZpZONcf77wBEFmz0OrGW16ngWIW6lXEjYTijqCeDF8UxB3xnnVyWcI3kxoAkrI88CViFMGv8FHiTcEnCE4OJCq1UttyriYb2rSFtiP8lqdVCX/hUhp8IaBfv+tdWq0mAhnq/5P+ANFT3iEeAtMS14EplH2k0ChZYrEygAGOc3BE4lTChVOYcQMPw1d8dx2+HfFJ8ATrdavbmH/rcFLk0ZG3C21eo1iW2HinH+XGDcbaAu5gMbWa1u7eEZ3wLeW7D/J4A1qgig4hbDdMK116pcD0y1Wl1bphOZR9pNth7EhKxWNxBO0f+4wsfsAVxsnL/IOL9PPCeRyw4UDxIATunlk6xWfyM9D8WrjfMpdSeGinH+TaQFCQDH9RIkRLMT+l+ajGc/jPNLGef3M85fSthiqDJIOAnYtmyQINpPAgXRldXqUauVIRz2Sr0W2IsdCRP0Tcb5I43zq2ToM2W5dj7w6wKfPz22SXHcIFwfHVTxe5Nak+F+it1OuYiQLKqovRPaPI1xfjXj/EeBfwE/J5znqcojwMFWq4OkdoPohQQKomdWq58TUiD/ruJHrUuYHO6M5azLHNxKCRR+W+QF1Gp1B+nXJdcFPpXYdhh8Gnh+YtuPT3TGZKx4dfK0hOfslZp8yTi/g3H+BML5iGMIB12rdB6wudUq5fCmGFJyRqHlyp5R6MQ4fzBwLLBqJQ94piuAWYS6C/N6aRDPV/wz4VkHxKCoZ8b5ZYFrSUvqtICQzfCahLatFWtzXEnaAcY5hGX1Qjd3YrXFlNTTu1utzu3xGWsAbyFUoUypPZLiv4SS3LOqyLQo80i7SaDQclUFCvDkC963SEtmlOoJwm0JC5xntepYNdE4fxShnHAR8wmH0wovyRrn96LYlsVoFwM7S7rcIN4ouYBQyjzFjimHY0vk3Piu1apj7pGYd+M1wFuBvcibIKmbM4F3W63uquoBMo+0mwQKLVdloDDCOL8HYaug37Ud7ifcyDgJuGjsJGuc/wvFry7+ymqVfA3NOP8r0u/WH2G1mpn67DYxzhvCClKKn1itDi3x7O8A7y7Y7A7g+aN/BmNwsDuwL/B6qrtm3MlNwIfLXHvslcwj7SaBQsv1I1CAcFqb8OJ6NCEPfr/dTthfPp1wKG01wrXIoudwDrda/aD7p40vlvi9jlAtsqgHCVf57kl9fhsY51cDbiD8HRb1EKDLfA+N87sTruwWtQ0h18OrCGm696H/wQHAw4Qqp8f1Kw2zzCPtJocZRRZWqwVWq28CLyJsR/Q7u9s6wJGE5eo7CFfdiv58L6ZkYSyr1b+ALyQ2XwX4dpnnt8Q3SAsSIOTjKBto/Zkw2Rb1Q+Ae4GxCRdZ+BwmL4hg2sFp9RWo1iFxkRaHl+rWiMJZx/kWEdMEHATnzIlTpMqtV6Wtpccn5H4SgKcUbrVZnlB1HExnn9yRMtCmuJ5zoX5BhHLOpuHhXRosJgfFnrVbX1TIAmUdaTVYURCWsVjfFfeJNCRUpm/BKkqXMdqwD8a4SXXw/Uw6JRjHOP4tQlCjVETmChKjyff1MziTcmNm/riBBtJ8ECqJSVqsbrFb7E1JA/4L+b0kU8adcHVmtzgN+mth8LdKTDDXZF0jPmfAjq9WFGcfyt4x95TayRbat1Wpvq9WVNY9HtJxsPbRcXVsPncTDfh8i3CFfoebhjLWIsGVwEfAXwk2KXtP/PkO8PvpP0nNN7GG1+n3q85vEOL8D4fue8gN7H+EQ6AMlnq8JVzF3ih8bpvZVoScIwedXrVYp+UEqI/NIu0mg0HKDFiiMiCfb3wW8j/TSwf1wF6Ho0xzgMuDyIhOScf5QQs6HFLcTKkzWUrGxX2KyqitJn5wPLpJp0Di/JuGGwuiPlHog/fJf4HvAN61WKSmmKyfzSLtJoNBygxoojIiTxFRC0LBDzcPp1b8IQcNVwDXA1Z1WHmLioD8Ar0h81iyr1dsS2zaCcf5rhFWmFH+wWnUsGGWcXxd4SfzYAphCuCHTBFcRAoSTBr0mg8wj7SaBQssNeqAwmnH+JcARwMHAs2oeTlH/Ba4mBA7XE3Ip3GC1ujMua18NLJPY92utVr/JM8zBElMm/5m0LYfHCSsuNxnnn0tYkdgU2IiQGnlz6sljUMbjhBsM36ui7HpVZB5pNwkUWq5JgcII4/yKwIHAoYQS1032MOGcwvMonhZ4xD3Aplar/2Qb1QCItxyuIq0+BoRKj3cQAoMVc42rJtcAPyFklby/7sEUJfNIu0mg0HJNDBRGM85vABxCyMewbr2jqdVsq1U/a2pULjFVcpvcA5wMnND0mwsyj7SbBAot1/RAYUTc69+ZsC2xD/Wkia7bz4DbgP8AD8RfR37/MCF98X/rLiwVSy6vFD8mE7Isrhp/XY1weHUtmpPQKKdHCVcbfwqcY7Ua5OvCPZN5pN0kUGi5tgQKo8WJ6BXAm+LHIJ9Yr8MjhMDhYeCx+OtCwjmKRfFX4v97fEzbkReEsT84y/JU/YpVCDlYVgIU4ZrrCjwVHKTUuWizhwgJnM4Afmu1eqze4eQn80i7SaDQcm0MFEYzzi8J7Eio0Lcvg33VUgyPxwkrQKcDv4/ZOltL5pF2k0Ch5doeKIxmnJ8JvKPucQhBWNVZpS1bC93IPNJuksJZtEnpgk5CZPIswm0MIRpPAgXRCsb55Qj1JIQYFNvVPQAhcpBAQbTFVhQvZz0X+CxwLuHAnxCj3UY4Z/Ae0gqGyQqXaIWl6h6AEJlsk9DmT1arT8OThyI3JaSR3omQ6GmDfMMTA24h8HfgYmJRMKvVXSP/MyaHKpqGO+VnUoiBI4GCaIuUF+XLRn4TD51dHT+OhyeLB20HbEmoE7Alw530qS0WENJsX0EIDv5OKPb1vwnaXJLwnM2N88u18TqkGC4SKIi2KBUojMdqdS8hOc5ZI39mnF+ZpwcOWwIbI/+WBtUjhODvSp4KCv6RcF1xDmHVocj21lKEn5PG1GwQYjxyPbLlhuF6pHF+ecKEUOSLnQ+saLVakOH5CngRoSjRhoTT7iMfq5TtX/TkdsARVgpuiL86q9XtuR5gnL+KUGiqiCOsVjNzjWFQyTzSbvIuSLTBxhSvPviPHEECgNXKEyam68f+v7h9sREhgHghYeviBfFjbdKqJg6j+cCtwC3x11sJ5b5vIAQE/SjDPIfigYLcxBGNJ4GCaIPNEtpcmXsQ44nbF/cCF4z9f8b5pYF1CEHDuvHXgwkBxTD7F/BdngoIbonfx7pdAZiCbYoGFkIMHAkURBukvGu7KvsoCrJaPQHcHD8AMM6fSdjTXrpE1/cT6jisBCxD9bUXFhCKHT1KeE0pk0Z7AbC/1epvOQaW2d8T2qQEsUIMFAkURBukBApX5h5EDlarK4zzHwa+VaKbm4BdRh/YM86vQCjgtEr8oyWBFce0W4mn51YZKSY12uOEIGR+/HiyWmW8Yno2sFuJsf/fgAYJEH5mFlNsu2hV4/xzrFZ3VzMkIaongYJog5RA4R/ZR5GJ1erbxvlXAXsndrE9Yen+baP6fDT+9sFSg5vY5ykXJJwDfDXTWLKzWj1qnL+F4ltDLwYkUBCNJZkZRaMZ51cEnluw2V1WqwcrGE5OhxEO7iW3N86/O9NYujLO7wNML9HF3cAhI6sTAywlwJSaD6LRJFAQTbdeQpt/Zh9FZlarecBU4IkS3RxnnH95piF1ZJzfBLAlulgEHDAgBxa7uS6hzfrZRyFEH0mgIJouJVC4NvsoKmC1uhw4skQXSwGzjfPPzzOiZ4oJqM4gVEtM9XGr1Z/zjKhyEiiIoSOBgmi6lEDBZR9FRaxW3wNOKtHFmsBZcYsmq3h4cTblamL8Fjgmz4j6IuVnJ+VnVIiBIYGCaLqUF+G52UdRrSMotwqyOfCzOLHndCywe4n2twIHN+Bcwmg3d/+UZ1jPOC+JtURjSaAgmi4lUEh5sa9NvLGwN/DfEt3sRcYbBcb5dwHvLdHFfOCNVqsHMg2pL6xW9xHShRexLCELpxCNJIGCaLqigcJiyt0mqIXV6ibgIML4Ux1pnH9n2bEY53elXJ4HgHdarVISGA2ClEBz3dyDEKJfJFAQTffsgp9/T0LlwIFgtfo18NmS3XzbOL9HamPj/MbAKRSrojjWd61WPynRvm63JbSRFQXRWBIoiMYyzi9LyCZYRLZqgjX5DPCrEu2XBE4zzm9dtKFxfm3gd5SriHkh8MES7QfBnQltyqS1FqJWEiiIJlsroc1d2UfRR/Hg30GUO9y4AvBb43zP2zbG+ZWA3wBlrlreBuwTa1w0WUqwWTQpmBADQwIF0WTPSWjT6EABwGr1MPB6oMxBwDWBc4zza3T7xFjl8lRgixLPewzYuyFJlbpJWVHo+n0WYlBJoCCabOhWFEZYreYSMjcuKNHNi4BfG+eX7/QJ8VrfDyhXwwHg0AYfXhzrnoQ2sqIgGksCBdFkRQ8yQrl34QPFavVH4D0lu9kWOCOuGoznq8AhJZ/xaavV7JJ9DJL/JLSRFQXRWBIoiCZLSRvcmkABwGo1E/hayW52A34+NiGTcf4TwIdK9n0y8LmSfQyalJ+hooduhRgYEiiIJktJS5zybnDQTQPOKtnHG4FZIxkEjfPvofwEfzFwWMMyL/Yi5ZxFmVoYQtRKAgXRZCnv0uZlH0XNrFYLgQOBsmcADgG+ZZx/C/Dtkn3NJRxebGTOionEw6RFSaAgGksCBdFkKyS0ad3EBWC1eoSQpjklGdBo7wFOLNnHf4BXx3THbfW/gp8vWw+isSRQEE2WEiikvBtsBKvV3cCrKVcToqz5wBusVo2p0JnosaINqqjgKUQ/SKAgmixlObfoO8FGsVpdR8ix4Gt4/CJCNciLanh2vxUtDAXl0l4LURsJFMSwaXpWwK6sVhcQziws6vOjj7RandrnZwohKiaBghAtFCfsMmWgi/q81apsRUkhxACSQEGIlrJafY/y1SZ7MQv4VB+eI4SogQQKQrSY1erTwHcqfMTpwOEtzJVQBTmjIBpJAgUxbJapewA1eB/w0wr6PRc4IOZxEN1JLgXRSBIoiCZLOdm/XPZRDLj4bt8AZ2Ts9q+EhEqtPxzaQcqkX+e1VSGSSaAgmuyhhDZDFyjAk9kbL8jY5cPApIz9NY1KaNPaHB6i3SRQEE2W8sI7lBnyjPOfAb6escvdgfON80NXFTEWzyr6c/SYbNGIppJAQTTZgwltVss9iEFmnF/SOP8DqrmVMAW42Di/XgV9D7JVE9rIaoJoLAkURJOlbD2kvMg3knF+eeBU4O0VPuZFhGBhmwqfMWgkUBBDRQIF0WQpgcKzs49iABnnnw38Gdi7D49bC/izcf5NfXjWIFgroU0by5uLISGBgmiy2xParJN9FAPGOL8JcClha6BflgNONc4f1cdn1uX5CW3uyD4KIfpEAgXRZCkllV+QfRQDxDi/J+HqYspkVtYk4MvG+VnG+Tbnq0gJNiVQEI0lgYJospQVhXVzD2JQxHfzv6H+mx2GsBXxnJrHUZUNEtpIoCAaSwIF0VhWq0cofvNho3i9rTWM88sa508Evszg/JveDphjnN+u7oFUYJOENilBrRADYVBeVIRIdWvBz1+GcFK/FYzzLwT+ArwlU5cXAO8BFmTo6znABcb592Toa5BsnNDm5uyjEKJPJFAQTXdVQpuXZB9FDYzzewFzgK0zdflLYA+r1XeB1wOPZehzaeDbxvmfGecbX+sg5owourWzCLi2guEI0RcSKIimuzqhzQ7ZR9FHMYnS54FfA5MzdftDYKrVaj6A1eps4JXA/Zn63x/4m3F+80z91WXHhDY3W63+l30kQvSJBAqi6VJWFFJe7AeCcf4FhO2Bj2fs9nNWq3eMTTFstboE2Jni2zudbEwIFt5rnG9qnYiUn52UYFaIgSGBgmi6lBfhrYzzq+QeSNWM81OBK8kX6HjgbVarjumdrVY3EA4m/i3TM5cBvgWc1dA6EbsltEkJZoUYGBIoiEazWt1L8XwKSxGKGjWCcX4V4/yPgdnAKpm6fQh4tdVqVrdPtFrdA7wCOC3TswH2Aq4zzr85Y5+VMs6/iLSDsLmCLCFqIYGCaIMLE9q8LvsoKmCc3x24Bnhrxm5vBXawWv2h1wZxj30q4QpmLqsTsjmeZJxvQrGuvRPaLAQuyjwOIfpKAgXRBn9KaPPGQT6Fb5yfbJz/IXAO8LyMXV8IbGe1uq5oQ6vVYqvVNOAQ4PGMYzqQsLpwYMY+q3BIQpvLYr4PIRpLAgXRBucktFmB8A554Bjn9weuB96WueuZwK5xKyGZ1eqnwEuBO7OMKlgTOMk4/3vj/PoZ+83COL8VsFlC05SfTSEGyqTFixfXPQZRoUmTmnq4vBjj/FVA0at3VwFbWq0G4h+BcX4j4Djyn59YALzfavW9nJ3GCpWnAjvl7BeYD3wN+JLV6tHMfScxzv+McMWzqClWqzm5xzNoZB5pN1lREG1xakKblwCvyT2QoozzKxvnv0E4i5A7SLgbeGXuIAHAavVvQq6Fb2buelnC9U9nnD/EOF/r65RxfgPSVp9uHYYgQbSfBAqiLWYntjvGOL9U1pH0KNZo+CAhve+RhNsYOf2RsGKSctizJ1arJ6xWHyBMpLn34tcGfkKoGfHazH0X8XUgpT7IL3IPRIg6SKAgWiHe978koemmwIczD2dCxvmljfNvBxxhEqrixP8Xgd3LnkfoldXqVGArqkkutAUh78LFsYx238Trm6lBis05FiHqImcUWm5YzigAGOcPA36U0NQDL4uZCCtjnF8eeAchMFmnosf8GzjUalXLITrj/LLAVwmFpapyJTADOM1qlaN41bjiocrLSctdcYHV6uV5RzS4ZB5pNwkUWm7IAoVlCeV8V09ofjchWLgp76ierPD4TuDtwKq5+x/lt4CJSahqZZx/DeEd9ZoVPuZO4AfATKvV3Tk7Ns4/B/gzsEFiF2+2Wp2ecUgDTeaRdpNAoeWGKVAAMM5/Gjg6sfldhMJIF2cYx7MIFRgPBvYAqvyLeBz4CPCdQbnBAWCcXxOYRcjCWKUFwB+Ak4Bfls1bYJzfMfa1bmIX1wMvtlotKjOOJpF5pN0kUGi5IQwUVgFuAVZO7GIR8A3gy0XfmcfrgnsSblK8hpCroWqXErYa/tmHZyUxzh8KHEv630kRjxNWAs4mHOa8dmyxq06M8+sC0wkrPymHF0ccYLX6eYn2jSPzSLtJoNBywxYoABjnj6J8quHHCclyzibkW5gLzAMWEwKAtYD1CEvTWwPbA7rkM4uO75PA13udCOtknH8uIeFTv6+jPgrMIRwcvQm4B3iQ8PeoCH+PmpBAassMz5sDbDtMqwkggULbSaDQckMaKCxNyEnQz4m7ny4EDh/kVYROjPMHEFZs1qp7LBVYDOxktfpr3QPpN5lH2k2uR4rWsVo9Qbhd0Db/AQzw8iYGCQBWq58BGwLfIWzztMm3hzFIEO0nKwotN4wrCiNitsMj6x5HBosJ1z6nW63+U/dgcjHOTyFkddyh7rFkcB1hy2EgUk73m8wj7SaBQssNeaCwNPAXYJu6x1LC+cAHrVZX1jyOShjnJwH7EvIirFvvaJI9Amxvtbq27oHUReaRdpNAoeWGOVCAJ+/DXwI8v+6xFHQj8FGr1Rl1D6QfjPPLAO8HplFNpsqqLAJea7U6u+6B1EnmkXaTQKHlhj1QADDOb0K4MpeSiKnfbgY+D5xYZdbBQRXzT3wofvTjOmUZi4BDrFYn1T2Qusk80m4SKLScBAqBcf7FhMyFVaVOLmsu8BXgh8MYIIwV82G8L36sUe9oxjWfECScUvdABoHMI+0mgULLSaDwFOP82sAZDNaZhcsIOR9OH7a7972IabkPJtTH2LDm4Yy4k5DBU244RDKPtJsECi0ngcLTxQOOXyLchqjrevBjwGnA961WF9U0hkaJhx5fSbj2+kZg6ZqGMht4j9Xq/pqeP5BkHmk3CRRaTgKF8RnntyHc5e/n6sKlhBoCP7VaPdjH57aKcX514ADCbYmdqLaOxohrgGnDfmixE5lH2k0ChZaTQKGz+C71DcBRwI4VPGIRYWvhVGC21eq2Cp4x1OJ20psJqaFfDiyXsfvFhEOw3wTOlK2hzmQeaTcJFFpOAoXeGOc3BQ4iTDibJ3bzBHA18DdCNcM/yspB/8RtpR15qm7DFIofXv0v8FdCnY/TJbjrjcwj7SaBQstJoFCccX41wpbEpsD6wJqEq5WT4sdj8ePfhEqVtwA3AP+wWvn+j1h0Em9PrBs/ngesSFh1WIlQMOp/wP3AbYS/w38NUqnuppB5pN0kUBBCCCFER1IUSgghhBAdSaAghBBCiI4kUBBCCCFERxIoCCGEEKIjCRSEEEII0ZEECkIIIYToSAIFIYQQQnQkgYIQQgghOpJAQQghhBAdSaAghBBCiI4kUBBCCCFERxIoCCGEEKIjCRSEEEII0ZEECkIIIYToSAIFIYQQQnQkgYIQQgghOpJAQQghhBAdSaAghBBCiI4kUBBCCCFERxIoCCGEEKKjpeoegBhukyZNqnsIQtTCOD8t/nZrYOoEn3oKMAfAanXM6P+xePHiagYnxCiT5AdN5HDYjQuOBw6v8BEzgbnx96dYreZO9MlClGGcXw+4ucunTR87cffQ766EfycTBQbdzAFmWq1myuu36AfZehBNcTgwI37cbJx/YNQ7MtEwxvn1jPPn1j2Ofhn19Z5LuSABwgrE8cb5mw+7ccGu5UcnxMQkUBBNNRmYYZy/2Ti/dd2DEb0zzs8gvFsfikkuriJU8fWuB5x72I0LJGAWlZJAQTTdesDl8cVYDDDj/FTj/M3A0Exs8eey6pWTGYfduGBGxc8QQ0wCBdEWs+O+shgwcdl9NjCbENgNhfjzOLtPj5smKwuiKhIoiLaYDBxf9yDE08VzJDdTfl++iWYQfi77ZdphNy4YmkBM9I9cjxRtsqtxfler1Xl1D0SAcX7kAOrQiVsOvQRH84BjgLlWq1PG6Wca3a9PjphM2NY5osBQhehKAgXRT+vP2mCpp11r7JZHIR5U3JXeJ5xpgAQKom69TOzHWK2mT/QJI9cvY+BxPN23bqYeduOC6bM2WGpeb8MUojvZehADzWo1J75Yrk9MOtPFrsb5fi73CjGeboFC1yBhtLhKtm8PnzqZIblNIvpHAgXRCDHBUi8vlCAvlKJG8RBjt2D1GdsM3Vit5hASj3Uj14VFVhIoiMaIwUIvL7ByoEvUqZefv9StAQkURN/JGQXRNHPIfII+7v+OnIUYbzViJNf+efFdXa7nTiVMKusxcfrruTw1Qcy0WmXbfx41hk5fO8DIEnnWZw+5Xelt0n8aq9Uc4/w8Jl6xkEBZZCWBghhacZIcOVU+kanxA+P8XML+cuEX+VHPnUax2wDrjfr8Gcb58+IYkg9tFhxDT8/usT7C2DbjFSuYabVq8sn9XoKpacb581JqllitVh35vdR6EP0gWw9i6BjnJ8e8+7Mpvky7HiHP/rlFEzwZ57eOmQnLXhncFTg3pkIuJGZHfKDEGEaeLTkrOutl8l+PULNEkiSJgSeBgmiaXg4qdnyhjpP75T32020cl/daZyJ+3rnkXRaeFjMe9iROSrPJkwTo8GEq6lRE3J7pdYtqhnF+sXF+RlzhEmLgSKAgGiOeJehlgh93ST4GCTkn68mEd9cTBgvxumauCXqsqTGx0YQStjt6sWuRQGXIFL3VMI2Qhnyxcf54WWkQg0QCBdEIcTLuZbn7vAkO3FVRa2Ay4QV+oiBgRgXPHW3CQCG+U60qQ+JUmdTGVfj64yiH89RKwwPG+Wmy2iDqJIGCGFjxLMG0uB9+Ob1NtuO+QI9KhTuRucB0q9WkkQ9C7oZuy8jr0aEiYlzF6PaOfw5wxOjnxmdP4akbBxPZulOgEp/fU4A1dgzAbvR2Mn+aJLl6unhIseeEShOYTAjyZssWhajLJDk1K3I47MYFx9N9QqzaHKvVlLF/2ONp/POAfTutRsRgpdvXt/7YU+w9LPmfZ7XabaJOeyxVvG+HWgG9jHv6SKrgDs8/nO7BxjP66KVdDEgGTo8/MxN+32I/l1NNXoN5wDGzNlhqwucLkYOsKIi2mEfnzI3dJsq5TBAkAMTret2Wk8d7zkTPnkcPBXziVcRuqxrPeEcf3+V3+9qP6TbZxaug3SYk2X4Y3270dguiqMnAjMNuXLD4sBsX1B2gi5aTQEG0wTxgtwnupPcyWfZy973bUvIznmO1Wh9YNbYd+Rg5bHlKgXv03XImjLf03+3rHqlc2ItunzdZlsSfKf5cTaHaQmXHH3bjgnMPu3GBbP+ISkjCJdF0I/v7477jjpPXRC+g83pNnmS1mhsTDnW6eTHZOL/12LHEyWL0RJuyXJySEbHbknfPmRatVvOM83NinyOZKkdkzVjZNvF7vFtFN09G7Aqce9iNC3aTypEiNwkURFP1miGx22RZ9J3eRIEC8f/lTvO8NWlL+92ukhYa53jnP0Tv4hbPMRUGDCM3g3otniZETyRQEE2SUnOh202JopN6t62CUgfX4gHAkVLByUmh4nXSbkvRsgpQg1EBw+GEv+OcWzZTD7txweGzNlgqOcW4EGNJoCCaYi5hqbzoCkDuE+fdlnV7zpcQT9aPFGXKfSCt6zhS6gyIfOJq2Ex4WoCYY6VhGgkFp4ToRAIF0U/rz9pgqadNTvHEdsc8BKOsR8iC2PVK2hjd3lXPSKmZMIEJJ+hRwUFVe9Ujun3dEiQMkFFbaMeMuq2Suqq03mE3Lpg6a4OlyiR9EuJJEiiIWo28QBrnT6G3zIkzjPO7dss9MEq/T4J3Snw0mbB/3K+bAXICvqFGHX49Bp5cbSi6RTGVctkhhXiSXI8UAyGeOej1zvmug1yQaGxVyXhe4HL6FySIFrFazbRa7QusT++Tf5Upw8WQkUBBDIy4Z97rie1dm1DqeFRBqJQX7pE0wPuSJx2waDCr1dwYMPSy9VZFNkgxpGTrQQwUq9Uc4/x0etvDP9w4P7fgmYV+K1IQ6rz4MXdsOuaEwkvdDl22emtinO/XyFmYcVNdj6PU92fU4cQRI9dcj7FalQr6rFbT47XZCX+uDrtxwXpjzwQJkUICBTFwrFbHFCgpPc04P1GGw7lM/IJ6RK8Jl4rqsSAU9FAzIEHXQME4P7nXhEtNYZzvVrym1wCgl897xveuh9oOyVdexziP+muriCEhWw9iUB1Bb9kIR5b2O+n2jqrKd9a9nEmY0mOQUHTropd3ksO4j11poEAPeTbGnmGpUKuCQFEfCRTEQCpYpnfrCZbmCxdTyqiXFMqVJD2K/XabKAq9uzXOT42ljh+I5b+f/OjQpI5l725fc697971M5uN9fb38feYooNXt65gnqZxFLhIoiIEVtwR6PeU9rcM7tW4v3FUu33Z7MS8SJKQcTuuWnKponyOfP5IY6MmPGEAMwk2UbsFJr8FRaqDQS0Kww+NNmCRxW65bezmbILKRQEEMuun0vgUx3gHIrlUX48Gzrozzk+OEuNg4f/yYd9UpL/w9rWbEACil/26ByNSCy+Ddvk9VVkjsVa6/727bRnPGO98RV3J6CQBnp2xBxDa93PaRHAoiGwkUxEAruAUxdWyp4/hi3u1Fc1q8xtjN4WN+P/pd9eUxgBj9/G4BTq+rGROdwZjIzB7G0FOGyLi90O17NAiTUy+T9IyJJukev9aJApJeDseOZBrtefsnfu659LbaMQh/F6IlJFAQA6/gFsSMcSb9bi/cIy/aE00eu9J9Uh17rbHb8u96E117jCsY59LbasIzJrYeg6SpxvkJA5Eev/bxbp50XQkqswTfwXk9PHcyIbB72vfeOL9r/F70Ejx1DBTiz2uvh0nPNc5fHlelnvHzZ5xfL/6/c+k9SJgp1yJFTnI9UjTFdML+crd3eiN1I55chbBanRdTRE+0nLw1cHPM4TBzZFl51BXHXg6gjb29MKfLMyEENiP36+eMembRehCdvi/TY18Tfd+mGudvJnzdT34NcVxTSfvaobctoxnG+X2tVvNG1TiYl3plNfZzCt1XayaTXufjvB6Kk02n95WgrePHDON8wnCeZiT9sxDZTFq8uNu1YyG6O+zGBcfT/cX5GUWhJk2a1PMz4t5yr9kYp4y+URAn38up7pbDeWPrT8SJ74GKnjfWHKvVlPH+R9wOSd2+6EXHJELG+Qco/j1/xveyiD78XU/p5bZKDEJy3HAo4ggpMS1yk60H0RgFtyCeFlDEZfEjsg8qGDf1dFyVyJl6eaJ36Ft3OmcRt0OqSgE9p0umwZQDjqUm+Ph3XdW76um9XmmN35d+HvCcLkGCqIIECqJper0F8YzcCnHC7LWWRK/mArt1ynAYl/Jz5ErYje5BUseDcXEcuYOFkUJeE0k5VFc6IVFFX2/hDJpxZaQfWwHTZ22wlGw5iEpIoCAapeAtiGccEIvBwhTy3DM/j7AM3a2v3UgPFubEZ4zUgZjIhCfo4yS3L3ky9s20Wk3plgI6fr+LBgtZtgwyBgvzCDUikibiuLLQa2XUouYAUyRIEFWSQEE0ToEtiHFzK1it5lit1qf31Ymx5hAmjo4rCWOeNy+eHyg6aU2Pk/FIkNHtRP/h3e7mx4l7fdLf5Z5CWEHpeRsnVjwstCSeK81xnNyLlGce6xhg/R4LSU00jvPiz9wR5NmOOAXYd9YGS02ZtcFSlWT3FGKEHGYUtSpymLEqozLdTVTE6RjCJD1RAapenzdtgmdNp8Sp/4SxjFQ5HKluONboU/QzewmMJnjWyG2OkUqOY40EUqW/xxOMYWQ7qtNthzmESbjyv4NRY+mleNjI9+Zp45LXb9EPEigIIYQQoiPZehBCCCFERxIoCCGEEKIjCRSEEEII0ZEECkIIIYToSAIFIYQQQnQkgYIQQgghOpJAQQghhBAdSaAghBBCiI4kUBBCCCFERxIoCCGEEKIjCRSEEEII0ZEECkIIIYToSAIFIYQQQnQkgYIQQgghOpJAQQghhBAdSaAghBBCiI4kUBBCCCFER/8P7cJsa/duwDUAAAAASUVORK5CYII=;" parent="1" vertex="1">
          <mxGeometry x="110.56" y="405.63" width="96.44" height="63.37" as="geometry" />
        </mxCell>
        <mxCell id="zJ8hoWpcTsWKnKYzU_Mt-79" value="" style="image;aspect=fixed;perimeter=ellipsePerimeter;html=1;align=center;shadow=0;dashed=0;fontColor=#4277BB;labelBackgroundColor=default;fontSize=12;spacingTop=3;image=img/lib/ibm/infrastructure/mobile_backend.svg;" parent="1" vertex="1">
          <mxGeometry x="392.25" y="320.25" width="60" height="60" as="geometry" />
        </mxCell>
        <mxCell id="zJ8hoWpcTsWKnKYzU_Mt-80" value="" style="image;sketch=0;aspect=fixed;html=1;points=[];align=center;fontSize=12;image=img/lib/mscae/Docker.svg;" parent="1" vertex="1">
          <mxGeometry x="457" y="474.88" width="50" height="41" as="geometry" />
        </mxCell>
        <mxCell id="zJ8hoWpcTsWKnKYzU_Mt-91" value="" style="points=[];aspect=fixed;html=1;align=center;shadow=0;dashed=0;fillColor=#FF6A00;strokeColor=none;shape=mxgraph.alibaba_cloud.dcdn_dynamic_route_for_cdn;" parent="1" vertex="1">
          <mxGeometry x="232" y="80" width="46.5" height="54.900000000000006" as="geometry" />
        </mxCell>
        <mxCell id="zJ8hoWpcTsWKnKYzU_Mt-92" value="" style="points=[];aspect=fixed;html=1;align=center;shadow=0;dashed=0;fillColor=#FF6A00;strokeColor=none;shape=mxgraph.alibaba_cloud.dcdn_dynamic_route_for_cdn;" parent="1" vertex="1">
          <mxGeometry x="400" y="80.00000000000003" width="46.5" height="54.900000000000006" as="geometry" />
        </mxCell>
        <mxCell id="zJ8hoWpcTsWKnKYzU_Mt-93" value="" style="points=[];aspect=fixed;html=1;align=center;shadow=0;dashed=0;fillColor=#FF6A00;strokeColor=none;shape=mxgraph.alibaba_cloud.dcdn_dynamic_route_for_cdn;" parent="1" vertex="1">
          <mxGeometry x="560.75" y="80" width="46.5" height="54.900000000000006" as="geometry" />
        </mxCell>
        <mxCell id="zJ8hoWpcTsWKnKYzU_Mt-94" value="" style="points=[];aspect=fixed;html=1;align=center;shadow=0;dashed=0;fillColor=light-dark(#FF8000,#0B4829);strokeColor=none;shape=mxgraph.alibaba_cloud.dcdn_dynamic_route_for_cdn;" parent="1" vertex="1">
          <mxGeometry x="116.57" y="80" width="46.5" height="54.900000000000006" as="geometry" />
        </mxCell>
        <mxCell id="zJ8hoWpcTsWKnKYzU_Mt-95" value="" style="points=[];aspect=fixed;html=1;align=center;shadow=0;dashed=0;fillColor=#FF6A00;strokeColor=none;shape=mxgraph.alibaba_cloud.dcdn_dynamic_route_for_cdn;" parent="1" vertex="1">
          <mxGeometry x="723.25" y="80.09999999999997" width="46.5" height="54.900000000000006" as="geometry" />
        </mxCell>
        <mxCell id="zJ8hoWpcTsWKnKYzU_Mt-97" value="&lt;span style=&quot;font-size: 15px;&quot;&gt;&lt;b&gt;&lt;font style=&quot;color: light-dark(rgb(55, 62, 73), rgb(255, 174, 255));&quot;&gt;Banco de Dados&lt;/font&gt;&lt;/b&gt;&lt;/span&gt;" style="text;html=1;align=center;verticalAlign=middle;whiteSpace=wrap;rounded=0;" parent="1" vertex="1">
          <mxGeometry x="601.5" y="241" width="120" height="30" as="geometry" />
        </mxCell>
        <mxCell id="zJ8hoWpcTsWKnKYzU_Mt-99" value="" style="endArrow=classic;html=1;rounded=0;entryX=0.838;entryY=0.963;entryDx=0;entryDy=0;fillColor=#d5e8d4;strokeColor=#373E49;strokeWidth=2;entryPerimeter=0;" parent="1" target="zJ8hoWpcTsWKnKYzU_Mt-117" edge="1">
          <mxGeometry width="50" height="50" relative="1" as="geometry">
            <mxPoint x="420" y="215" as="sourcePoint" />
            <mxPoint x="410" y="255" as="targetPoint" />
            <Array as="points">
              <mxPoint x="100" y="215" />
            </Array>
          </mxGeometry>
        </mxCell>
        <mxCell id="zJ8hoWpcTsWKnKYzU_Mt-102" value="" style="endArrow=classic;html=1;rounded=0;strokeWidth=2;entryX=0.018;entryY=0.448;entryDx=0;entryDy=0;entryPerimeter=0;strokeColor=#373E49;" parent="1" edge="1">
          <mxGeometry width="50" height="50" relative="1" as="geometry">
            <mxPoint x="508" y="375" as="sourcePoint" />
            <mxPoint x="580.934" y="374.9200000000001" as="targetPoint" />
          </mxGeometry>
        </mxCell>
        <mxCell id="zJ8hoWpcTsWKnKYzU_Mt-103" value="" style="endArrow=classic;html=1;rounded=0;entryX=0.5;entryY=1;entryDx=0;entryDy=0;exitX=0.5;exitY=0;exitDx=0;exitDy=0;fillColor=#d5e8d4;strokeColor=#373E49;strokeWidth=2;" parent="1" source="zJ8hoWpcTsWKnKYzU_Mt-17" target="zJ8hoWpcTsWKnKYzU_Mt-43" edge="1">
          <mxGeometry width="50" height="50" relative="1" as="geometry">
            <mxPoint x="360" y="305" as="sourcePoint" />
            <mxPoint x="410" y="255" as="targetPoint" />
          </mxGeometry>
        </mxCell>
        <mxCell id="zJ8hoWpcTsWKnKYzU_Mt-104" value="" style="endArrow=classic;html=1;rounded=0;entryX=0.5;entryY=1;entryDx=0;entryDy=0;fillColor=#d5e8d4;strokeColor=#373E49;strokeWidth=2;" parent="1" target="zJ8hoWpcTsWKnKYzU_Mt-31" edge="1">
          <mxGeometry width="50" height="50" relative="1" as="geometry">
            <mxPoint x="430" y="215" as="sourcePoint" />
            <mxPoint x="410" y="255" as="targetPoint" />
            <Array as="points">
              <mxPoint x="330" y="215" />
              <mxPoint x="267" y="215" />
            </Array>
          </mxGeometry>
        </mxCell>
        <mxCell id="zJ8hoWpcTsWKnKYzU_Mt-105" value="" style="endArrow=classic;html=1;rounded=0;entryX=0.5;entryY=1;entryDx=0;entryDy=0;fillColor=#d5e8d4;strokeColor=#373E49;strokeWidth=2;" parent="1" target="zJ8hoWpcTsWKnKYzU_Mt-54" edge="1">
          <mxGeometry width="50" height="50" relative="1" as="geometry">
            <mxPoint x="430" y="215" as="sourcePoint" />
            <mxPoint x="410" y="255" as="targetPoint" />
            <Array as="points">
              <mxPoint x="584" y="215" />
            </Array>
          </mxGeometry>
        </mxCell>
        <mxCell id="zJ8hoWpcTsWKnKYzU_Mt-106" value="" style="endArrow=classic;html=1;rounded=0;entryX=0.5;entryY=1;entryDx=0;entryDy=0;fillColor=#d5e8d4;strokeColor=#373E49;strokeWidth=2;" parent="1" edge="1">
          <mxGeometry width="50" height="50" relative="1" as="geometry">
            <mxPoint x="570.5" y="215.10000000000002" as="sourcePoint" />
            <mxPoint x="752.5" y="145.1" as="targetPoint" />
            <Array as="points">
              <mxPoint x="753" y="215" />
            </Array>
          </mxGeometry>
        </mxCell>
        <mxCell id="zJ8hoWpcTsWKnKYzU_Mt-109" value="" style="shape=image;editableCssRules=.*;verticalLabelPosition=bottom;labelBackgroundColor=default;verticalAlign=top;aspect=fixed;imageAspect=0;image=data:image/svg+xml,PHN2ZyB4bWxucz0iaHR0cDovL3d3dy53My5vcmcvMjAwMC9zdmciIHZpZXdCb3g9Ii0wLjUgLTAuNSAyNS44NjcgMjgiIGhlaWdodD0iMjgiIHdpZHRoPSIyNS44NjciIHN0eWxlPSJjb2xvci1zY2hlbWU6IGxpZ2h0IGRhcms7Ij4mI3hhOwkgIDxzdHlsZSB0eXBlPSJ0ZXh0L2NzcyI+LnN0MCB7IHN0b3AtY29sb3I6IHJnYig5MSwgMTE1LCAxMzkpOyB9IC5zdDEgeyBzdG9wLWNvbG9yOiBsaWdodC1kYXJrKHJnYigyNTUsIDEyOCwgMCksIHJnYigzNCwgNTMsIDcyKSk7IH0gPC9zdHlsZT4mI3hhOwk8ZGVmcz4mI3hhOwkJPGxpbmVhckdyYWRpZW50IGdyYWRpZW50VW5pdHM9InVzZXJTcGFjZU9uVXNlIiB5Mj0iMjMuNjEzIiB4Mj0iMjMuMjI3IiB5MT0iMy40NzQiIHgxPSIxLjg0NiIgaWQ9IkEiPiYjeGE7CQkJPHN0b3AgY2xhc3M9InN0MCIvPiYjeGE7CQkJPHN0b3AgY2xhc3M9InN0MSIgb2Zmc2V0PSIxIi8+JiN4YTsJCTwvbGluZWFyR3JhZGllbnQ+JiN4YTsJPC9kZWZzPiYjeGE7CTxwYXRoIGZpbGw9InVybCgjQSkiIGQ9Ik0xMy4zOSAyNy41aC0xLjkxNWMtLjY1NiAwLTEuMjU3LS4yMTktMS44MDMtLjY1NmEyLjQ2IDIuNDYgMCAwIDEtLjkzMS0xLjU4NWwtLjM4My0xLjgwNC0yLjM1LTEuNDIzLTEuNjQxLjcxYTMuNjEgMy42MSAwIDAgMS0xLjA0LjE2NWMtLjUwOSAwLTEuMDAzLS4xMjgtMS40NzctLjM4My0uNDUyLS4yNzEtLjgxMy0uNjcxLTEuMDM4LTEuMTQ4bC0xLjAzOS0yLjAyM2MtLjE2OS0uMzc5LS4yNjItLjc4OS0uMjczLTEuMjA0YTIuNzUgMi43NSAwIDAgMSAxLjE0OC0yLjI5NmwxLjI1OC0uOTI5di0yLjg0NWwtMS4zMTItLjk4M0MtLjEzNiAxMC41NDYtLjUgOS43OTktLjUgOC44NTJjMC0uMzY2LjA5MS0uNzY3LjI3My0xLjIwNGwxLjA0LTIuMDIzYy4yNTUtLjUxMS42LS44OTMgMS4wMzgtMS4xNDguNDc0LS4yNTUuOTY4LS4zODMgMS40NzctLjM4My40MDIgMCAuNzQ3LjA3NCAxLjA0LjIxOWwxLjY0MS42NTYgMi4zNS0xLjQyMy4zODMtMS44MDJBMi42OCAyLjY4IDAgMCAxIDkuNzI3LjE1NmEyLjYxIDIuNjEgMCAwIDEgMS43NS0uNjU2aDEuOTEzYTIuNjEgMi42MSAwIDAgMSAxLjc1LjY1NmMuNTExLjQwMy44NC45MjkuOTg1IDEuNTg2bC4zMjcgMS44MDYgMi40MDYgMS40MjEgMS42NDItLjY1NmMuMjkxLS4xNDUuNjM3LS4yMTkgMS4wNC0uMjE5YTIuNzcgMi43NyAwIDAgMSAxLjQyMS4zODNjLjQ3My4yNTUuODQuNjM3IDEuMDk0IDEuMTQ4bC45ODUgMi4wMjNjLjIxNy4zNjYuMzI3Ljc4NC4zMjcgMS4yNTggMCAuOTEtLjM4MyAxLjY0Mi0xLjE0OCAyLjE4OGwtMS4zMTIuOTg1djIuODQ0bDEuMzEzLjkyOGMuNzY1LjU4NSAxLjE0OCAxLjMzMiAxLjE0OCAyLjI0MyAwIC40MzgtLjExLjg1OC0uMzI5IDEuMjU4bC0uOTgzIDIuMDIzYy0uMjU2LjUxMS0uNjE5Ljg5Mi0xLjA5NCAxLjE0OC0uNDM3LjI1Ni0uOTEuMzgzLTEuNDIzLjM4My0uMzY0IDAtLjcxLS4wNTQtMS4wMzgtLjE2NWwtMS42NDItLjcxLTIuNDA2IDEuNDIzLS4zMjcgMS44MDJjLS4xNDcuNjU4LS40NzQgMS4xODYtLjk4NSAxLjU4N2EyLjYxIDIuNjEgMCAwIDEtMS43NS42NTZ6bS03LjM4My04LjI1OGMuNDc0IDAgLjk0OS4xNDcgMS40MjMuNDM4bDIuNDA2IDEuNDIzYy43My40MzggMS4xNDggMS4wNCAxLjI1OCAxLjgwNGwuMzgyIDEuODA0aDEuOTE1bC4zMjktMS44MDRjLjE4Mi0uODAyLjYyLTEuNDA0IDEuMzEzLTEuODA0bDIuMzUyLTEuNDIzYTMuMDYgMy4wNiAwIDAgMSAxLjUyOS0uNDM3Yy4xODQgMCAuMzQ2LjAxNy40OTQuMDU0YTQuMTcgNC4xNyAwIDAgMSAuNDkyLjE2NWwxLjY0Mi42NTYuOTgzLTIuMDIzLTEuMjU4LS45MjljLS43NjUtLjU4NC0xLjE0OC0xLjMzLTEuMTQ4LTIuMjQydi0yLjg0NWMwLS45MS4zODMtMS42NTcgMS4xNDgtMi4yNGwxLjI1OC0uOTMxLS45ODUtMi4wMjMtMS42NC43MWMtLjMzNS4xMTEtLjY4Ni4xNjYtMS4wNC4xNjUtLjU4MyAwLTEuMDc1LS4xMjgtMS40NzctLjM4M2wtMi4zNS0xLjQ3N2EyLjY4IDIuNjggMCAwIDEtMS4zMTItMS44MDRMMTMuMzkgMi4yOWgtMS45MTVsLS4zODIgMS44MDRjLS4xMS43NjYtLjUyOCAxLjM2Ny0xLjI1OCAxLjgwNEw3LjQ4MyA3LjM3NWMtLjQwMS4yNTUtLjg5My4zODMtMS40NzUuMzgzLS4zMjkgMC0uNjkzLS4wNTYtMS4wOTQtLjE2NWwtMS42NDEtLjcxLS45ODUgMi4wMjMgMS4zMTMuOTI5Yy43NjcuNTg1IDEuMTUgMS4zMyAxLjE1IDIuMjQ0djIuODQ0YzAgLjkxLS4zODMgMS42NTctMS4xNDggMi4yNGwtMS4zMTIuOTMxIDEuMDM4IDIuMDIzIDEuNjQxLS42NTZjLjI5LS4xNDUuNjM3LS4yMTkgMS4wNC0uMjE5em02LjQtLjE2NWE1LjU3IDUuNTcgMCAwIDEtMi4xODctLjQzN2MtLjY1My0uMjg5LTEuMjQ2LS42OTctMS43NS0xLjIwMmE1Ljc3IDUuNzcgMCAwIDEtMS4yMDQtMS43NSA1LjU4IDUuNTggMCAwIDEtLjQzNy0yLjE4NyA1LjIxIDUuMjEgMCAwIDEgLjQzOC0yLjEzM2MuMjkyLS42OTMuNjkzLTEuMjk1IDEuMjA0LTEuODA0czEuMDk0LS45MSAxLjc1LTEuMjA0YTUuNiA1LjYgMCAwIDEgMi4xODgtLjQzN2MuNzY1IDAgMS40OTUuMTQ3IDIuMTg4LjQzOHMxLjI5NS42OTMgMS44MDQgMS4yMDQuOTEgMS4xMTEgMS4yMDQgMS44MDRjLjI5MS42NTYuNDM4IDEuMzY4LjQzOCAyLjEzM2E1LjYgNS42IDAgMCAxLS40MzcgMi4xODhjLS4yOS42NTMtLjY5OCAxLjI0Ni0xLjIwNCAxLjc1LS41MTEuNTExLTEuMTExLjkxLTEuODA0IDEuMjA0cy0xLjQyMy40MzYtMi4xODcuNDM2em0wLTguMzY1Yy0uNzY3IDAtMS40MjMuMjcxLTEuOTY5LjgxOS0uMjY0LjI1NS0uNDczLjU2MS0uNjE0Ljg5OXMtLjIxMS43MDMtLjIwNiAxLjA2OWMwIC43NjcuMjczIDEuNDIzLjgyMSAxLjk2OXMxLjIwMi44MjEgMS45NjkuODIxYy44MDIgMCAxLjQ3Ny0uMjczIDIuMDIzLS44MjFzLjgyMS0xLjIwNC44MjEtMS45NjktLjI3My0xLjQyMy0uODIxLTEuOTY5YTIuNzUgMi43NSAwIDAgMC0uOTI3LS42MmMtLjM0OC0uMTQxLS43MjEtLjIwOC0xLjA5Ni0uMTk5eiIvPiYjeGE7PC9zdmc+;" parent="1" vertex="1">
          <mxGeometry x="155.07" y="52.099999999999994" width="26" height="28" as="geometry" />
        </mxCell>
        <mxCell id="zJ8hoWpcTsWKnKYzU_Mt-111" value="&lt;font style=&quot;color: rgb(55, 62, 73);&quot;&gt;&lt;b style=&quot;&quot;&gt;JWT&lt;/b&gt;&lt;/font&gt;" style="text;html=1;align=center;verticalAlign=middle;whiteSpace=wrap;rounded=0;" parent="1" vertex="1">
          <mxGeometry x="132" y="116" width="60" height="30" as="geometry" />
        </mxCell>
        <mxCell id="zJ8hoWpcTsWKnKYzU_Mt-112" value="" style="outlineConnect=0;dashed=0;verticalLabelPosition=bottom;verticalAlign=top;align=center;html=1;shape=mxgraph.aws3.saml_token;fillColor=#FF8000;gradientColor=none;" parent="1" vertex="1">
          <mxGeometry x="49.07" y="75.10000000000002" width="45.43" height="40" as="geometry" />
        </mxCell>
        <mxCell id="zJ8hoWpcTsWKnKYzU_Mt-113" value="&lt;font style=&quot;color: rgb(55, 62, 73);&quot;&gt;&lt;b style=&quot;&quot;&gt;JWT&lt;/b&gt;&lt;/font&gt;" style="text;html=1;align=center;verticalAlign=middle;whiteSpace=wrap;rounded=0;" parent="1" vertex="1">
          <mxGeometry x="250" y="116" width="60" height="30" as="geometry" />
        </mxCell>
        <mxCell id="zJ8hoWpcTsWKnKYzU_Mt-114" value="&lt;font style=&quot;color: rgb(55, 62, 73);&quot;&gt;&lt;b style=&quot;&quot;&gt;JWT&lt;/b&gt;&lt;/font&gt;" style="text;html=1;align=center;verticalAlign=middle;whiteSpace=wrap;rounded=0;" parent="1" vertex="1">
          <mxGeometry x="420" y="116" width="60" height="30" as="geometry" />
        </mxCell>
        <mxCell id="zJ8hoWpcTsWKnKYzU_Mt-115" value="&lt;font style=&quot;color: rgb(55, 62, 73);&quot;&gt;&lt;b style=&quot;&quot;&gt;JWT&lt;/b&gt;&lt;/font&gt;" style="text;html=1;align=center;verticalAlign=middle;whiteSpace=wrap;rounded=0;" parent="1" vertex="1">
          <mxGeometry x="577" y="116" width="60" height="30" as="geometry" />
        </mxCell>
        <mxCell id="zJ8hoWpcTsWKnKYzU_Mt-116" value="&lt;font style=&quot;color: rgb(55, 62, 73);&quot;&gt;&lt;b style=&quot;&quot;&gt;JWT&lt;/b&gt;&lt;/font&gt;" style="text;html=1;align=center;verticalAlign=middle;whiteSpace=wrap;rounded=0;" parent="1" vertex="1">
          <mxGeometry x="740" y="111" width="60" height="30" as="geometry" />
        </mxCell>
        <mxCell id="zJ8hoWpcTsWKnKYzU_Mt-117" value="&lt;font style=&quot;color: rgb(55, 62, 73);&quot;&gt;&lt;b style=&quot;&quot;&gt;Access token&lt;/b&gt;&lt;/font&gt;" style="text;html=1;align=center;verticalAlign=middle;whiteSpace=wrap;rounded=0;" parent="1" vertex="1">
          <mxGeometry x="28.57" y="110.1" width="86.43" height="30" as="geometry" />
        </mxCell>
        <mxCell id="zJ8hoWpcTsWKnKYzU_Mt-118" value="" style="shape=image;editableCssRules=.*;verticalLabelPosition=bottom;labelBackgroundColor=default;verticalAlign=top;aspect=fixed;imageAspect=0;image=data:image/svg+xml,PHN2ZyB4bWxucz0iaHR0cDovL3d3dy53My5vcmcvMjAwMC9zdmciIHZpZXdCb3g9Ii0wLjUgLTAuNSAyNS44NjcgMjgiIGhlaWdodD0iMjgiIHdpZHRoPSIyNS44NjciIHN0eWxlPSJjb2xvci1zY2hlbWU6IGxpZ2h0IGRhcms7Ij4mI3hhOwkgIDxzdHlsZSB0eXBlPSJ0ZXh0L2NzcyI+LnN0MCB7IHN0b3AtY29sb3I6IHJnYig5MSwgMTE1LCAxMzkpOyB9IC5zdDEgeyBzdG9wLWNvbG9yOiBsaWdodC1kYXJrKHJnYigyNTUsIDEyOCwgMCksIHJnYigzNCwgNTMsIDcyKSk7IH0gPC9zdHlsZT4mI3hhOwk8ZGVmcz4mI3hhOwkJPGxpbmVhckdyYWRpZW50IGdyYWRpZW50VW5pdHM9InVzZXJTcGFjZU9uVXNlIiB5Mj0iMjMuNjEzIiB4Mj0iMjMuMjI3IiB5MT0iMy40NzQiIHgxPSIxLjg0NiIgaWQ9IkEiPiYjeGE7CQkJPHN0b3AgY2xhc3M9InN0MCIvPiYjeGE7CQkJPHN0b3AgY2xhc3M9InN0MSIgb2Zmc2V0PSIxIi8+JiN4YTsJCTwvbGluZWFyR3JhZGllbnQ+JiN4YTsJPC9kZWZzPiYjeGE7CTxwYXRoIGZpbGw9InVybCgjQSkiIGQ9Ik0xMy4zOSAyNy41aC0xLjkxNWMtLjY1NiAwLTEuMjU3LS4yMTktMS44MDMtLjY1NmEyLjQ2IDIuNDYgMCAwIDEtLjkzMS0xLjU4NWwtLjM4My0xLjgwNC0yLjM1LTEuNDIzLTEuNjQxLjcxYTMuNjEgMy42MSAwIDAgMS0xLjA0LjE2NWMtLjUwOSAwLTEuMDAzLS4xMjgtMS40NzctLjM4My0uNDUyLS4yNzEtLjgxMy0uNjcxLTEuMDM4LTEuMTQ4bC0xLjAzOS0yLjAyM2MtLjE2OS0uMzc5LS4yNjItLjc4OS0uMjczLTEuMjA0YTIuNzUgMi43NSAwIDAgMSAxLjE0OC0yLjI5NmwxLjI1OC0uOTI5di0yLjg0NWwtMS4zMTItLjk4M0MtLjEzNiAxMC41NDYtLjUgOS43OTktLjUgOC44NTJjMC0uMzY2LjA5MS0uNzY3LjI3My0xLjIwNGwxLjA0LTIuMDIzYy4yNTUtLjUxMS42LS44OTMgMS4wMzgtMS4xNDguNDc0LS4yNTUuOTY4LS4zODMgMS40NzctLjM4My40MDIgMCAuNzQ3LjA3NCAxLjA0LjIxOWwxLjY0MS42NTYgMi4zNS0xLjQyMy4zODMtMS44MDJBMi42OCAyLjY4IDAgMCAxIDkuNzI3LjE1NmEyLjYxIDIuNjEgMCAwIDEgMS43NS0uNjU2aDEuOTEzYTIuNjEgMi42MSAwIDAgMSAxLjc1LjY1NmMuNTExLjQwMy44NC45MjkuOTg1IDEuNTg2bC4zMjcgMS44MDYgMi40MDYgMS40MjEgMS42NDItLjY1NmMuMjkxLS4xNDUuNjM3LS4yMTkgMS4wNC0uMjE5YTIuNzcgMi43NyAwIDAgMSAxLjQyMS4zODNjLjQ3My4yNTUuODQuNjM3IDEuMDk0IDEuMTQ4bC45ODUgMi4wMjNjLjIxNy4zNjYuMzI3Ljc4NC4zMjcgMS4yNTggMCAuOTEtLjM4MyAxLjY0Mi0xLjE0OCAyLjE4OGwtMS4zMTIuOTg1djIuODQ0bDEuMzEzLjkyOGMuNzY1LjU4NSAxLjE0OCAxLjMzMiAxLjE0OCAyLjI0MyAwIC40MzgtLjExLjg1OC0uMzI5IDEuMjU4bC0uOTgzIDIuMDIzYy0uMjU2LjUxMS0uNjE5Ljg5Mi0xLjA5NCAxLjE0OC0uNDM3LjI1Ni0uOTEuMzgzLTEuNDIzLjM4My0uMzY0IDAtLjcxLS4wNTQtMS4wMzgtLjE2NWwtMS42NDItLjcxLTIuNDA2IDEuNDIzLS4zMjcgMS44MDJjLS4xNDcuNjU4LS40NzQgMS4xODYtLjk4NSAxLjU4N2EyLjYxIDIuNjEgMCAwIDEtMS43NS42NTZ6bS03LjM4My04LjI1OGMuNDc0IDAgLjk0OS4xNDcgMS40MjMuNDM4bDIuNDA2IDEuNDIzYy43My40MzggMS4xNDggMS4wNCAxLjI1OCAxLjgwNGwuMzgyIDEuODA0aDEuOTE1bC4zMjktMS44MDRjLjE4Mi0uODAyLjYyLTEuNDA0IDEuMzEzLTEuODA0bDIuMzUyLTEuNDIzYTMuMDYgMy4wNiAwIDAgMSAxLjUyOS0uNDM3Yy4xODQgMCAuMzQ2LjAxNy40OTQuMDU0YTQuMTcgNC4xNyAwIDAgMSAuNDkyLjE2NWwxLjY0Mi42NTYuOTgzLTIuMDIzLTEuMjU4LS45MjljLS43NjUtLjU4NC0xLjE0OC0xLjMzLTEuMTQ4LTIuMjQydi0yLjg0NWMwLS45MS4zODMtMS42NTcgMS4xNDgtMi4yNGwxLjI1OC0uOTMxLS45ODUtMi4wMjMtMS42NC43MWMtLjMzNS4xMTEtLjY4Ni4xNjYtMS4wNC4xNjUtLjU4MyAwLTEuMDc1LS4xMjgtMS40NzctLjM4M2wtMi4zNS0xLjQ3N2EyLjY4IDIuNjggMCAwIDEtMS4zMTItMS44MDRMMTMuMzkgMi4yOWgtMS45MTVsLS4zODIgMS44MDRjLS4xMS43NjYtLjUyOCAxLjM2Ny0xLjI1OCAxLjgwNEw3LjQ4MyA3LjM3NWMtLjQwMS4yNTUtLjg5My4zODMtMS40NzUuMzgzLS4zMjkgMC0uNjkzLS4wNTYtMS4wOTQtLjE2NWwtMS42NDEtLjcxLS45ODUgMi4wMjMgMS4zMTMuOTI5Yy43NjcuNTg1IDEuMTUgMS4zMyAxLjE1IDIuMjQ0djIuODQ0YzAgLjkxLS4zODMgMS42NTctMS4xNDggMi4yNGwtMS4zMTIuOTMxIDEuMDM4IDIuMDIzIDEuNjQxLS42NTZjLjI5LS4xNDUuNjM3LS4yMTkgMS4wNC0uMjE5em02LjQtLjE2NWE1LjU3IDUuNTcgMCAwIDEtMi4xODctLjQzN2MtLjY1My0uMjg5LTEuMjQ2LS42OTctMS43NS0xLjIwMmE1Ljc3IDUuNzcgMCAwIDEtMS4yMDQtMS43NSA1LjU4IDUuNTggMCAwIDEtLjQzNy0yLjE4NyA1LjIxIDUuMjEgMCAwIDEgLjQzOC0yLjEzM2MuMjkyLS42OTMuNjkzLTEuMjk1IDEuMjA0LTEuODA0czEuMDk0LS45MSAxLjc1LTEuMjA0YTUuNiA1LjYgMCAwIDEgMi4xODgtLjQzN2MuNzY1IDAgMS40OTUuMTQ3IDIuMTg4LjQzOHMxLjI5NS42OTMgMS44MDQgMS4yMDQuOTEgMS4xMTEgMS4yMDQgMS44MDRjLjI5MS42NTYuNDM4IDEuMzY4LjQzOCAyLjEzM2E1LjYgNS42IDAgMCAxLS40MzcgMi4xODhjLS4yOS42NTMtLjY5OCAxLjI0Ni0xLjIwNCAxLjc1LS41MTEuNTExLTEuMTExLjkxLTEuODA0IDEuMjA0cy0xLjQyMy40MzYtMi4xODcuNDM2em0wLTguMzY1Yy0uNzY3IDAtMS40MjMuMjcxLTEuOTY5LjgxOS0uMjY0LjI1NS0uNDczLjU2MS0uNjE0Ljg5OXMtLjIxMS43MDMtLjIwNiAxLjA2OWMwIC43NjcuMjczIDEuNDIzLjgyMSAxLjk2OXMxLjIwMi44MjEgMS45NjkuODIxYy44MDIgMCAxLjQ3Ny0uMjczIDIuMDIzLS44MjFzLjgyMS0xLjIwNC44MjEtMS45NjktLjI3My0xLjQyMy0uODIxLTEuOTY5YTIuNzUgMi43NSAwIDAgMC0uOTI3LS42MmMtLjM0OC0uMTQxLS43MjEtLjIwOC0xLjA5Ni0uMTk5eiIvPiYjeGE7PC9zdmc+;" parent="1" vertex="1">
          <mxGeometry x="310.5" y="52.099999999999994" width="26" height="28" as="geometry" />
        </mxCell>
        <mxCell id="zJ8hoWpcTsWKnKYzU_Mt-119" value="" style="shape=image;editableCssRules=.*;verticalLabelPosition=bottom;labelBackgroundColor=default;verticalAlign=top;aspect=fixed;imageAspect=0;image=data:image/svg+xml,PHN2ZyB4bWxucz0iaHR0cDovL3d3dy53My5vcmcvMjAwMC9zdmciIHZpZXdCb3g9Ii0wLjUgLTAuNSAyNS44NjcgMjgiIGhlaWdodD0iMjgiIHdpZHRoPSIyNS44NjciIHN0eWxlPSJjb2xvci1zY2hlbWU6IGxpZ2h0IGRhcms7Ij4mI3hhOwkgIDxzdHlsZSB0eXBlPSJ0ZXh0L2NzcyI+LnN0MCB7IHN0b3AtY29sb3I6IHJnYig5MSwgMTE1LCAxMzkpOyB9IC5zdDEgeyBzdG9wLWNvbG9yOiBsaWdodC1kYXJrKHJnYigyNTUsIDEyOCwgMCksIHJnYigzNCwgNTMsIDcyKSk7IH0gPC9zdHlsZT4mI3hhOwk8ZGVmcz4mI3hhOwkJPGxpbmVhckdyYWRpZW50IGdyYWRpZW50VW5pdHM9InVzZXJTcGFjZU9uVXNlIiB5Mj0iMjMuNjEzIiB4Mj0iMjMuMjI3IiB5MT0iMy40NzQiIHgxPSIxLjg0NiIgaWQ9IkEiPiYjeGE7CQkJPHN0b3AgY2xhc3M9InN0MCIvPiYjeGE7CQkJPHN0b3AgY2xhc3M9InN0MSIgb2Zmc2V0PSIxIi8+JiN4YTsJCTwvbGluZWFyR3JhZGllbnQ+JiN4YTsJPC9kZWZzPiYjeGE7CTxwYXRoIGZpbGw9InVybCgjQSkiIGQ9Ik0xMy4zOSAyNy41aC0xLjkxNWMtLjY1NiAwLTEuMjU3LS4yMTktMS44MDMtLjY1NmEyLjQ2IDIuNDYgMCAwIDEtLjkzMS0xLjU4NWwtLjM4My0xLjgwNC0yLjM1LTEuNDIzLTEuNjQxLjcxYTMuNjEgMy42MSAwIDAgMS0xLjA0LjE2NWMtLjUwOSAwLTEuMDAzLS4xMjgtMS40NzctLjM4My0uNDUyLS4yNzEtLjgxMy0uNjcxLTEuMDM4LTEuMTQ4bC0xLjAzOS0yLjAyM2MtLjE2OS0uMzc5LS4yNjItLjc4OS0uMjczLTEuMjA0YTIuNzUgMi43NSAwIDAgMSAxLjE0OC0yLjI5NmwxLjI1OC0uOTI5di0yLjg0NWwtMS4zMTItLjk4M0MtLjEzNiAxMC41NDYtLjUgOS43OTktLjUgOC44NTJjMC0uMzY2LjA5MS0uNzY3LjI3My0xLjIwNGwxLjA0LTIuMDIzYy4yNTUtLjUxMS42LS44OTMgMS4wMzgtMS4xNDguNDc0LS4yNTUuOTY4LS4zODMgMS40NzctLjM4My40MDIgMCAuNzQ3LjA3NCAxLjA0LjIxOWwxLjY0MS42NTYgMi4zNS0xLjQyMy4zODMtMS44MDJBMi42OCAyLjY4IDAgMCAxIDkuNzI3LjE1NmEyLjYxIDIuNjEgMCAwIDEgMS43NS0uNjU2aDEuOTEzYTIuNjEgMi42MSAwIDAgMSAxLjc1LjY1NmMuNTExLjQwMy44NC45MjkuOTg1IDEuNTg2bC4zMjcgMS44MDYgMi40MDYgMS40MjEgMS42NDItLjY1NmMuMjkxLS4xNDUuNjM3LS4yMTkgMS4wNC0uMjE5YTIuNzcgMi43NyAwIDAgMSAxLjQyMS4zODNjLjQ3My4yNTUuODQuNjM3IDEuMDk0IDEuMTQ4bC45ODUgMi4wMjNjLjIxNy4zNjYuMzI3Ljc4NC4zMjcgMS4yNTggMCAuOTEtLjM4MyAxLjY0Mi0xLjE0OCAyLjE4OGwtMS4zMTIuOTg1djIuODQ0bDEuMzEzLjkyOGMuNzY1LjU4NSAxLjE0OCAxLjMzMiAxLjE0OCAyLjI0MyAwIC40MzgtLjExLjg1OC0uMzI5IDEuMjU4bC0uOTgzIDIuMDIzYy0uMjU2LjUxMS0uNjE5Ljg5Mi0xLjA5NCAxLjE0OC0uNDM3LjI1Ni0uOTEuMzgzLTEuNDIzLjM4My0uMzY0IDAtLjcxLS4wNTQtMS4wMzgtLjE2NWwtMS42NDItLjcxLTIuNDA2IDEuNDIzLS4zMjcgMS44MDJjLS4xNDcuNjU4LS40NzQgMS4xODYtLjk4NSAxLjU4N2EyLjYxIDIuNjEgMCAwIDEtMS43NS42NTZ6bS03LjM4My04LjI1OGMuNDc0IDAgLjk0OS4xNDcgMS40MjMuNDM4bDIuNDA2IDEuNDIzYy43My40MzggMS4xNDggMS4wNCAxLjI1OCAxLjgwNGwuMzgyIDEuODA0aDEuOTE1bC4zMjktMS44MDRjLjE4Mi0uODAyLjYyLTEuNDA0IDEuMzEzLTEuODA0bDIuMzUyLTEuNDIzYTMuMDYgMy4wNiAwIDAgMSAxLjUyOS0uNDM3Yy4xODQgMCAuMzQ2LjAxNy40OTQuMDU0YTQuMTcgNC4xNyAwIDAgMSAuNDkyLjE2NWwxLjY0Mi42NTYuOTgzLTIuMDIzLTEuMjU4LS45MjljLS43NjUtLjU4NC0xLjE0OC0xLjMzLTEuMTQ4LTIuMjQydi0yLjg0NWMwLS45MS4zODMtMS42NTcgMS4xNDgtMi4yNGwxLjI1OC0uOTMxLS45ODUtMi4wMjMtMS42NC43MWMtLjMzNS4xMTEtLjY4Ni4xNjYtMS4wNC4xNjUtLjU4MyAwLTEuMDc1LS4xMjgtMS40NzctLjM4M2wtMi4zNS0xLjQ3N2EyLjY4IDIuNjggMCAwIDEtMS4zMTItMS44MDRMMTMuMzkgMi4yOWgtMS45MTVsLS4zODIgMS44MDRjLS4xMS43NjYtLjUyOCAxLjM2Ny0xLjI1OCAxLjgwNEw3LjQ4MyA3LjM3NWMtLjQwMS4yNTUtLjg5My4zODMtMS40NzUuMzgzLS4zMjkgMC0uNjkzLS4wNTYtMS4wOTQtLjE2NWwtMS42NDEtLjcxLS45ODUgMi4wMjMgMS4zMTMuOTI5Yy43NjcuNTg1IDEuMTUgMS4zMyAxLjE1IDIuMjQ0djIuODQ0YzAgLjkxLS4zODMgMS42NTctMS4xNDggMi4yNGwtMS4zMTIuOTMxIDEuMDM4IDIuMDIzIDEuNjQxLS42NTZjLjI5LS4xNDUuNjM3LS4yMTkgMS4wNC0uMjE5em02LjQtLjE2NWE1LjU3IDUuNTcgMCAwIDEtMi4xODctLjQzN2MtLjY1My0uMjg5LTEuMjQ2LS42OTctMS43NS0xLjIwMmE1Ljc3IDUuNzcgMCAwIDEtMS4yMDQtMS43NSA1LjU4IDUuNTggMCAwIDEtLjQzNy0yLjE4NyA1LjIxIDUuMjEgMCAwIDEgLjQzOC0yLjEzM2MuMjkyLS42OTMuNjkzLTEuMjk1IDEuMjA0LTEuODA0czEuMDk0LS45MSAxLjc1LTEuMjA0YTUuNiA1LjYgMCAwIDEgMi4xODgtLjQzN2MuNzY1IDAgMS40OTUuMTQ3IDIuMTg4LjQzOHMxLjI5NS42OTMgMS44MDQgMS4yMDQuOTEgMS4xMTEgMS4yMDQgMS44MDRjLjI5MS42NTYuNDM4IDEuMzY4LjQzOCAyLjEzM2E1LjYgNS42IDAgMCAxLS40MzcgMi4xODhjLS4yOS42NTMtLjY5OCAxLjI0Ni0xLjIwNCAxLjc1LS41MTEuNTExLTEuMTExLjkxLTEuODA0IDEuMjA0cy0xLjQyMy40MzYtMi4xODcuNDM2em0wLTguMzY1Yy0uNzY3IDAtMS40MjMuMjcxLTEuOTY5LjgxOS0uMjY0LjI1NS0uNDczLjU2MS0uNjE0Ljg5OXMtLjIxMS43MDMtLjIwNiAxLjA2OWMwIC43NjcuMjczIDEuNDIzLjgyMSAxLjk2OXMxLjIwMi44MjEgMS45NjkuODIxYy44MDIgMCAxLjQ3Ny0uMjczIDIuMDIzLS44MjFzLjgyMS0xLjIwNC44MjEtMS45NjktLjI3My0xLjQyMy0uODIxLTEuOTY5YTIuNzUgMi43NSAwIDAgMC0uOTI3LS42MmMtLjM0OC0uMTQxLS43MjEtLjIwOC0xLjA5Ni0uMTk5eiIvPiYjeGE7PC9zdmc+;" parent="1" vertex="1">
          <mxGeometry x="474" y="53.099999999999994" width="26" height="28" as="geometry" />
        </mxCell>
        <mxCell id="zJ8hoWpcTsWKnKYzU_Mt-120" value="" style="shape=image;editableCssRules=.*;verticalLabelPosition=bottom;labelBackgroundColor=default;verticalAlign=top;aspect=fixed;imageAspect=0;image=data:image/svg+xml,PHN2ZyB4bWxucz0iaHR0cDovL3d3dy53My5vcmcvMjAwMC9zdmciIHZpZXdCb3g9Ii0wLjUgLTAuNSAyNS44NjcgMjgiIGhlaWdodD0iMjgiIHdpZHRoPSIyNS44NjciIHN0eWxlPSJjb2xvci1zY2hlbWU6IGxpZ2h0IGRhcms7Ij4mI3hhOwkgIDxzdHlsZSB0eXBlPSJ0ZXh0L2NzcyI+LnN0MCB7IHN0b3AtY29sb3I6IHJnYig5MSwgMTE1LCAxMzkpOyB9IC5zdDEgeyBzdG9wLWNvbG9yOiBsaWdodC1kYXJrKHJnYigyNTUsIDEyOCwgMCksIHJnYigzNCwgNTMsIDcyKSk7IH0gPC9zdHlsZT4mI3hhOwk8ZGVmcz4mI3hhOwkJPGxpbmVhckdyYWRpZW50IGdyYWRpZW50VW5pdHM9InVzZXJTcGFjZU9uVXNlIiB5Mj0iMjMuNjEzIiB4Mj0iMjMuMjI3IiB5MT0iMy40NzQiIHgxPSIxLjg0NiIgaWQ9IkEiPiYjeGE7CQkJPHN0b3AgY2xhc3M9InN0MCIvPiYjeGE7CQkJPHN0b3AgY2xhc3M9InN0MSIgb2Zmc2V0PSIxIi8+JiN4YTsJCTwvbGluZWFyR3JhZGllbnQ+JiN4YTsJPC9kZWZzPiYjeGE7CTxwYXRoIGZpbGw9InVybCgjQSkiIGQ9Ik0xMy4zOSAyNy41aC0xLjkxNWMtLjY1NiAwLTEuMjU3LS4yMTktMS44MDMtLjY1NmEyLjQ2IDIuNDYgMCAwIDEtLjkzMS0xLjU4NWwtLjM4My0xLjgwNC0yLjM1LTEuNDIzLTEuNjQxLjcxYTMuNjEgMy42MSAwIDAgMS0xLjA0LjE2NWMtLjUwOSAwLTEuMDAzLS4xMjgtMS40NzctLjM4My0uNDUyLS4yNzEtLjgxMy0uNjcxLTEuMDM4LTEuMTQ4bC0xLjAzOS0yLjAyM2MtLjE2OS0uMzc5LS4yNjItLjc4OS0uMjczLTEuMjA0YTIuNzUgMi43NSAwIDAgMSAxLjE0OC0yLjI5NmwxLjI1OC0uOTI5di0yLjg0NWwtMS4zMTItLjk4M0MtLjEzNiAxMC41NDYtLjUgOS43OTktLjUgOC44NTJjMC0uMzY2LjA5MS0uNzY3LjI3My0xLjIwNGwxLjA0LTIuMDIzYy4yNTUtLjUxMS42LS44OTMgMS4wMzgtMS4xNDguNDc0LS4yNTUuOTY4LS4zODMgMS40NzctLjM4My40MDIgMCAuNzQ3LjA3NCAxLjA0LjIxOWwxLjY0MS42NTYgMi4zNS0xLjQyMy4zODMtMS44MDJBMi42OCAyLjY4IDAgMCAxIDkuNzI3LjE1NmEyLjYxIDIuNjEgMCAwIDEgMS43NS0uNjU2aDEuOTEzYTIuNjEgMi42MSAwIDAgMSAxLjc1LjY1NmMuNTExLjQwMy44NC45MjkuOTg1IDEuNTg2bC4zMjcgMS44MDYgMi40MDYgMS40MjEgMS42NDItLjY1NmMuMjkxLS4xNDUuNjM3LS4yMTkgMS4wNC0uMjE5YTIuNzcgMi43NyAwIDAgMSAxLjQyMS4zODNjLjQ3My4yNTUuODQuNjM3IDEuMDk0IDEuMTQ4bC45ODUgMi4wMjNjLjIxNy4zNjYuMzI3Ljc4NC4zMjcgMS4yNTggMCAuOTEtLjM4MyAxLjY0Mi0xLjE0OCAyLjE4OGwtMS4zMTIuOTg1djIuODQ0bDEuMzEzLjkyOGMuNzY1LjU4NSAxLjE0OCAxLjMzMiAxLjE0OCAyLjI0MyAwIC40MzgtLjExLjg1OC0uMzI5IDEuMjU4bC0uOTgzIDIuMDIzYy0uMjU2LjUxMS0uNjE5Ljg5Mi0xLjA5NCAxLjE0OC0uNDM3LjI1Ni0uOTEuMzgzLTEuNDIzLjM4My0uMzY0IDAtLjcxLS4wNTQtMS4wMzgtLjE2NWwtMS42NDItLjcxLTIuNDA2IDEuNDIzLS4zMjcgMS44MDJjLS4xNDcuNjU4LS40NzQgMS4xODYtLjk4NSAxLjU4N2EyLjYxIDIuNjEgMCAwIDEtMS43NS42NTZ6bS03LjM4My04LjI1OGMuNDc0IDAgLjk0OS4xNDcgMS40MjMuNDM4bDIuNDA2IDEuNDIzYy43My40MzggMS4xNDggMS4wNCAxLjI1OCAxLjgwNGwuMzgyIDEuODA0aDEuOTE1bC4zMjktMS44MDRjLjE4Mi0uODAyLjYyLTEuNDA0IDEuMzEzLTEuODA0bDIuMzUyLTEuNDIzYTMuMDYgMy4wNiAwIDAgMSAxLjUyOS0uNDM3Yy4xODQgMCAuMzQ2LjAxNy40OTQuMDU0YTQuMTcgNC4xNyAwIDAgMSAuNDkyLjE2NWwxLjY0Mi42NTYuOTgzLTIuMDIzLTEuMjU4LS45MjljLS43NjUtLjU4NC0xLjE0OC0xLjMzLTEuMTQ4LTIuMjQydi0yLjg0NWMwLS45MS4zODMtMS42NTcgMS4xNDgtMi4yNGwxLjI1OC0uOTMxLS45ODUtMi4wMjMtMS42NC43MWMtLjMzNS4xMTEtLjY4Ni4xNjYtMS4wNC4xNjUtLjU4MyAwLTEuMDc1LS4xMjgtMS40NzctLjM4M2wtMi4zNS0xLjQ3N2EyLjY4IDIuNjggMCAwIDEtMS4zMTItMS44MDRMMTMuMzkgMi4yOWgtMS45MTVsLS4zODIgMS44MDRjLS4xMS43NjYtLjUyOCAxLjM2Ny0xLjI1OCAxLjgwNEw3LjQ4MyA3LjM3NWMtLjQwMS4yNTUtLjg5My4zODMtMS40NzUuMzgzLS4zMjkgMC0uNjkzLS4wNTYtMS4wOTQtLjE2NWwtMS42NDEtLjcxLS45ODUgMi4wMjMgMS4zMTMuOTI5Yy43NjcuNTg1IDEuMTUgMS4zMyAxLjE1IDIuMjQ0djIuODQ0YzAgLjkxLS4zODMgMS42NTctMS4xNDggMi4yNGwtMS4zMTIuOTMxIDEuMDM4IDIuMDIzIDEuNjQxLS42NTZjLjI5LS4xNDUuNjM3LS4yMTkgMS4wNC0uMjE5em02LjQtLjE2NWE1LjU3IDUuNTcgMCAwIDEtMi4xODctLjQzN2MtLjY1My0uMjg5LTEuMjQ2LS42OTctMS43NS0xLjIwMmE1Ljc3IDUuNzcgMCAwIDEtMS4yMDQtMS43NSA1LjU4IDUuNTggMCAwIDEtLjQzNy0yLjE4NyA1LjIxIDUuMjEgMCAwIDEgLjQzOC0yLjEzM2MuMjkyLS42OTMuNjkzLTEuMjk1IDEuMjA0LTEuODA0czEuMDk0LS45MSAxLjc1LTEuMjA0YTUuNiA1LjYgMCAwIDEgMi4xODgtLjQzN2MuNzY1IDAgMS40OTUuMTQ3IDIuMTg4LjQzOHMxLjI5NS42OTMgMS44MDQgMS4yMDQuOTEgMS4xMTEgMS4yMDQgMS44MDRjLjI5MS42NTYuNDM4IDEuMzY4LjQzOCAyLjEzM2E1LjYgNS42IDAgMCAxLS40MzcgMi4xODhjLS4yOS42NTMtLjY5OCAxLjI0Ni0xLjIwNCAxLjc1LS41MTEuNTExLTEuMTExLjkxLTEuODA0IDEuMjA0cy0xLjQyMy40MzYtMi4xODcuNDM2em0wLTguMzY1Yy0uNzY3IDAtMS40MjMuMjcxLTEuOTY5LjgxOS0uMjY0LjI1NS0uNDczLjU2MS0uNjE0Ljg5OXMtLjIxMS43MDMtLjIwNiAxLjA2OWMwIC43NjcuMjczIDEuNDIzLjgyMSAxLjk2OXMxLjIwMi44MjEgMS45NjkuODIxYy44MDIgMCAxLjQ3Ny0uMjczIDIuMDIzLS44MjFzLjgyMS0xLjIwNC44MjEtMS45NjktLjI3My0xLjQyMy0uODIxLTEuOTY5YTIuNzUgMi43NSAwIDAgMC0uOTI3LS42MmMtLjM0OC0uMTQxLS43MjEtLjIwOC0xLjA5Ni0uMTk5eiIvPiYjeGE7PC9zdmc+;" parent="1" vertex="1">
          <mxGeometry x="631" y="53" width="26" height="28" as="geometry" />
        </mxCell>
        <mxCell id="zJ8hoWpcTsWKnKYzU_Mt-121" value="" style="shape=image;editableCssRules=.*;verticalLabelPosition=bottom;labelBackgroundColor=default;verticalAlign=top;aspect=fixed;imageAspect=0;image=data:image/svg+xml,PHN2ZyB4bWxucz0iaHR0cDovL3d3dy53My5vcmcvMjAwMC9zdmciIHZpZXdCb3g9Ii0wLjUgLTAuNSAyNS44NjcgMjgiIGhlaWdodD0iMjgiIHdpZHRoPSIyNS44NjciIHN0eWxlPSJjb2xvci1zY2hlbWU6IGxpZ2h0IGRhcms7Ij4mI3hhOwkgIDxzdHlsZSB0eXBlPSJ0ZXh0L2NzcyI+LnN0MCB7IHN0b3AtY29sb3I6IHJnYig5MSwgMTE1LCAxMzkpOyB9IC5zdDEgeyBzdG9wLWNvbG9yOiBsaWdodC1kYXJrKHJnYigyNTUsIDEyOCwgMCksIHJnYigzNCwgNTMsIDcyKSk7IH0gPC9zdHlsZT4mI3hhOwk8ZGVmcz4mI3hhOwkJPGxpbmVhckdyYWRpZW50IGdyYWRpZW50VW5pdHM9InVzZXJTcGFjZU9uVXNlIiB5Mj0iMjMuNjEzIiB4Mj0iMjMuMjI3IiB5MT0iMy40NzQiIHgxPSIxLjg0NiIgaWQ9IkEiPiYjeGE7CQkJPHN0b3AgY2xhc3M9InN0MCIvPiYjeGE7CQkJPHN0b3AgY2xhc3M9InN0MSIgb2Zmc2V0PSIxIi8+JiN4YTsJCTwvbGluZWFyR3JhZGllbnQ+JiN4YTsJPC9kZWZzPiYjeGE7CTxwYXRoIGZpbGw9InVybCgjQSkiIGQ9Ik0xMy4zOSAyNy41aC0xLjkxNWMtLjY1NiAwLTEuMjU3LS4yMTktMS44MDMtLjY1NmEyLjQ2IDIuNDYgMCAwIDEtLjkzMS0xLjU4NWwtLjM4My0xLjgwNC0yLjM1LTEuNDIzLTEuNjQxLjcxYTMuNjEgMy42MSAwIDAgMS0xLjA0LjE2NWMtLjUwOSAwLTEuMDAzLS4xMjgtMS40NzctLjM4My0uNDUyLS4yNzEtLjgxMy0uNjcxLTEuMDM4LTEuMTQ4bC0xLjAzOS0yLjAyM2MtLjE2OS0uMzc5LS4yNjItLjc4OS0uMjczLTEuMjA0YTIuNzUgMi43NSAwIDAgMSAxLjE0OC0yLjI5NmwxLjI1OC0uOTI5di0yLjg0NWwtMS4zMTItLjk4M0MtLjEzNiAxMC41NDYtLjUgOS43OTktLjUgOC44NTJjMC0uMzY2LjA5MS0uNzY3LjI3My0xLjIwNGwxLjA0LTIuMDIzYy4yNTUtLjUxMS42LS44OTMgMS4wMzgtMS4xNDguNDc0LS4yNTUuOTY4LS4zODMgMS40NzctLjM4My40MDIgMCAuNzQ3LjA3NCAxLjA0LjIxOWwxLjY0MS42NTYgMi4zNS0xLjQyMy4zODMtMS44MDJBMi42OCAyLjY4IDAgMCAxIDkuNzI3LjE1NmEyLjYxIDIuNjEgMCAwIDEgMS43NS0uNjU2aDEuOTEzYTIuNjEgMi42MSAwIDAgMSAxLjc1LjY1NmMuNTExLjQwMy44NC45MjkuOTg1IDEuNTg2bC4zMjcgMS44MDYgMi40MDYgMS40MjEgMS42NDItLjY1NmMuMjkxLS4xNDUuNjM3LS4yMTkgMS4wNC0uMjE5YTIuNzcgMi43NyAwIDAgMSAxLjQyMS4zODNjLjQ3My4yNTUuODQuNjM3IDEuMDk0IDEuMTQ4bC45ODUgMi4wMjNjLjIxNy4zNjYuMzI3Ljc4NC4zMjcgMS4yNTggMCAuOTEtLjM4MyAxLjY0Mi0xLjE0OCAyLjE4OGwtMS4zMTIuOTg1djIuODQ0bDEuMzEzLjkyOGMuNzY1LjU4NSAxLjE0OCAxLjMzMiAxLjE0OCAyLjI0MyAwIC40MzgtLjExLjg1OC0uMzI5IDEuMjU4bC0uOTgzIDIuMDIzYy0uMjU2LjUxMS0uNjE5Ljg5Mi0xLjA5NCAxLjE0OC0uNDM3LjI1Ni0uOTEuMzgzLTEuNDIzLjM4My0uMzY0IDAtLjcxLS4wNTQtMS4wMzgtLjE2NWwtMS42NDItLjcxLTIuNDA2IDEuNDIzLS4zMjcgMS44MDJjLS4xNDcuNjU4LS40NzQgMS4xODYtLjk4NSAxLjU4N2EyLjYxIDIuNjEgMCAwIDEtMS43NS42NTZ6bS03LjM4My04LjI1OGMuNDc0IDAgLjk0OS4xNDcgMS40MjMuNDM4bDIuNDA2IDEuNDIzYy43My40MzggMS4xNDggMS4wNCAxLjI1OCAxLjgwNGwuMzgyIDEuODA0aDEuOTE1bC4zMjktMS44MDRjLjE4Mi0uODAyLjYyLTEuNDA0IDEuMzEzLTEuODA0bDIuMzUyLTEuNDIzYTMuMDYgMy4wNiAwIDAgMSAxLjUyOS0uNDM3Yy4xODQgMCAuMzQ2LjAxNy40OTQuMDU0YTQuMTcgNC4xNyAwIDAgMSAuNDkyLjE2NWwxLjY0Mi42NTYuOTgzLTIuMDIzLTEuMjU4LS45MjljLS43NjUtLjU4NC0xLjE0OC0xLjMzLTEuMTQ4LTIuMjQydi0yLjg0NWMwLS45MS4zODMtMS42NTcgMS4xNDgtMi4yNGwxLjI1OC0uOTMxLS45ODUtMi4wMjMtMS42NC43MWMtLjMzNS4xMTEtLjY4Ni4xNjYtMS4wNC4xNjUtLjU4MyAwLTEuMDc1LS4xMjgtMS40NzctLjM4M2wtMi4zNS0xLjQ3N2EyLjY4IDIuNjggMCAwIDEtMS4zMTItMS44MDRMMTMuMzkgMi4yOWgtMS45MTVsLS4zODIgMS44MDRjLS4xMS43NjYtLjUyOCAxLjM2Ny0xLjI1OCAxLjgwNEw3LjQ4MyA3LjM3NWMtLjQwMS4yNTUtLjg5My4zODMtMS40NzUuMzgzLS4zMjkgMC0uNjkzLS4wNTYtMS4wOTQtLjE2NWwtMS42NDEtLjcxLS45ODUgMi4wMjMgMS4zMTMuOTI5Yy43NjcuNTg1IDEuMTUgMS4zMyAxLjE1IDIuMjQ0djIuODQ0YzAgLjkxLS4zODMgMS42NTctMS4xNDggMi4yNGwtMS4zMTIuOTMxIDEuMDM4IDIuMDIzIDEuNjQxLS42NTZjLjI5LS4xNDUuNjM3LS4yMTkgMS4wNC0uMjE5em02LjQtLjE2NWE1LjU3IDUuNTcgMCAwIDEtMi4xODctLjQzN2MtLjY1My0uMjg5LTEuMjQ2LS42OTctMS43NS0xLjIwMmE1Ljc3IDUuNzcgMCAwIDEtMS4yMDQtMS43NSA1LjU4IDUuNTggMCAwIDEtLjQzNy0yLjE4NyA1LjIxIDUuMjEgMCAwIDEgLjQzOC0yLjEzM2MuMjkyLS42OTMuNjkzLTEuMjk1IDEuMjA0LTEuODA0czEuMDk0LS45MSAxLjc1LTEuMjA0YTUuNiA1LjYgMCAwIDEgMi4xODgtLjQzN2MuNzY1IDAgMS40OTUuMTQ3IDIuMTg4LjQzOHMxLjI5NS42OTMgMS44MDQgMS4yMDQuOTEgMS4xMTEgMS4yMDQgMS44MDRjLjI5MS42NTYuNDM4IDEuMzY4LjQzOCAyLjEzM2E1LjYgNS42IDAgMCAxLS40MzcgMi4xODhjLS4yOS42NTMtLjY5OCAxLjI0Ni0xLjIwNCAxLjc1LS41MTEuNTExLTEuMTExLjkxLTEuODA0IDEuMjA0cy0xLjQyMy40MzYtMi4xODcuNDM2em0wLTguMzY1Yy0uNzY3IDAtMS40MjMuMjcxLTEuOTY5LjgxOS0uMjY0LjI1NS0uNDczLjU2MS0uNjE0Ljg5OXMtLjIxMS43MDMtLjIwNiAxLjA2OWMwIC43NjcuMjczIDEuNDIzLjgyMSAxLjk2OXMxLjIwMi44MjEgMS45NjkuODIxYy44MDIgMCAxLjQ3Ny0uMjczIDIuMDIzLS44MjFzLjgyMS0xLjIwNC44MjEtMS45NjktLjI3My0xLjQyMy0uODIxLTEuOTY5YTIuNzUgMi43NSAwIDAgMC0uOTI3LS42MmMtLjM0OC0uMTQxLS43MjEtLjIwOC0xLjA5Ni0uMTk5eiIvPiYjeGE7PC9zdmc+;" parent="1" vertex="1">
          <mxGeometry x="799" y="54" width="26" height="28" as="geometry" />
        </mxCell>
        <mxCell id="R2ofVa8NWxra6CiLQ6Ep-6" value="&lt;span style=&quot;font-size: 15px;&quot;&gt;&lt;b&gt;&lt;font style=&quot;color: rgb(55, 62, 73);&quot;&gt;Service&lt;/font&gt;&lt;/b&gt;&lt;/span&gt;" style="text;html=1;align=center;verticalAlign=middle;whiteSpace=wrap;rounded=0;" vertex="1" parent="1">
          <mxGeometry x="400" y="20" width="60" height="30" as="geometry" />
        </mxCell>
      </root>
    </mxGraphModel>
  </diagram>
</mxfile>
